{
.appVersion = "895";
classes = (
{
automatic = 1;
code = "A Aacute Abreve Abreveacute Abrevedotbelow Abrevegrave Abrevehookabove Abrevetilde Acircumflex Acircumflexacute Acircumflexdotbelow Acircumflexgrave Acircumflexhookabove Acircumflextilde Adblgrave Adieresis Adotbelow Agrave Ahookabove Ainvertedbreve Amacron Aogonek Aring Aringacute Atilde AE AEacute B C Cacute Ccaron Ccedilla Ccircumflex Cdotaccent D DZ DZcaron Eth Dcaron Dcroat Dz Dzcaron E Eacute Ebreve Ecaron Ecircumflex Ecircumflexacute Ecircumflexdotbelow Ecircumflexgrave Ecircumflexhookabove Ecircumflextilde Edblgrave Edieresis Edotaccent Edotbelow Egrave Ehookabove Einvertedbreve Emacron Eogonek Etilde F G Gbreve Gcaron Gcircumflex Gcommaaccent Gdotaccent H Hbar Hcircumflex I Iacute Ibreve Icircumflex Idblgrave Idieresis Idotaccent Idotbelow Igrave Ihookabove Iinvertedbreve Imacron Iogonek Itilde J Jcircumflex K Kcommaaccent L LJ Lacute Lcaron Lcommaaccent Ldot Lj Lslash M N NJ Nacute Ncaron Ncommaaccent Eng Nj Ntilde O Oacute Obreve Ocircumflex Ocircumflexacute Ocircumflexdotbelow Ocircumflexgrave Ocircumflexhookabove Ocircumflextilde Odblgrave Odieresis Odieresismacron Odotaccentmacron Odotbelow Ograve Ohookabove Ohorn Ohornacute Ohorndotbelow Ohorngrave Ohornhookabove Ohorntilde Ohungarumlaut Oinvertedbreve Omacron Oogonek Oslash Oslashacute Otilde Otildemacron OE P Thorn Q R Racute Rcaron Rcommaaccent Rdblgrave Rinvertedbreve S Sacute Scaron Scedilla Scircumflex Scommaaccent Germandbls Schwa T Tbar Tcaron Tcedilla Tcommaaccent U Uacute Ubreve Ucircumflex Udblgrave Udieresis Udotbelow Ugrave Uhookabove Uhorn Uhornacute Uhorndotbelow Uhorngrave Uhornhookabove Uhorntilde Uhungarumlaut Uinvertedbreve Umacron Uogonek Uring Utilde V W Wacute Wcircumflex Wdieresis Wgrave X Y Yacute Ycircumflex Ydieresis Ydotbelow Ygrave Yhookabove Ymacron Ytilde Z Zacute Zcaron Zdotaccent Iacute_J.loclNLD";
name = Uppercase;
}
);

glyphs = (
{
color = 4;
glyphname = A;
lastChange = "2016-07-31 01:33:46 +0000";
layers = (
{
anchors = (
{
name = bottom;
position = "{306, 0}";
},
{
name = ogonek;
position = "{556, 0}";
},
{
name = top;
position = "{307, 644}";
}
);
layerId = "D7F5B317-FDDE-425C-99B8-2570E6EC45B4";
paths = (
{
closed = 1;
nodes = (
"77 16 CURVE",
"307 562 LINE",
"538 16 LINE SMOOTH",
"544 1 OFFCURVE",
"556 -4 OFFCURVE",
"571 3 CURVE SMOOTH",
"587 10 OFFCURVE",
"592 21 OFFCURVE",
"585 37 CURVE SMOOTH",
"337 624 LINE SMOOTH",
"331 637 OFFCURVE",
"323 644 OFFCURVE",
"308 644 CURVE",
"306 644 LINE",
"291 644 OFFCURVE",
"281 637 OFFCURVE",
"276 624 CURVE SMOOTH",
"28 37 LINE SMOOTH",
"22 21 OFFCURVE",
"27 9 OFFCURVE",
"42 3 CURVE SMOOTH",
"58 -4 OFFCURVE",
"70 1 OFFCURVE"
);
},
{
closed = 1;
nodes = (
"468 174 LINE SMOOTH",
"485 174 OFFCURVE",
"494 183 OFFCURVE",
"494 200 CURVE SMOOTH",
"494 217 OFFCURVE",
"485 226 OFFCURVE",
"468 226 CURVE SMOOTH",
"143 226 LINE SMOOTH",
"127 226 OFFCURVE",
"117 217 OFFCURVE",
"117 200 CURVE SMOOTH",
"117 183 OFFCURVE",
"127 174 OFFCURVE",
"143 174 CURVE SMOOTH"
);
}
);
width = 613;
}
);
leftKerningGroup = A;
rightKerningGroup = A;
unicode = 0041;
},
{
color = 4;
glyphname = AE;
lastChange = "2016-07-31 01:33:46 +0000";
layers = (
{
anchors = (
{
name = bottom;
position = "{509, 0}";
},
{
name = top;
position = "{515, 644}";
}
);
layerId = "D7F5B317-FDDE-425C-99B8-2570E6EC45B4";
paths = (
{
closed = 1;
nodes = (
"761 0 LINE SMOOTH",
"778 0 OFFCURVE",
"787 9 OFFCURVE",
"787 26 CURVE SMOOTH",
"787 43 OFFCURVE",
"778 52 OFFCURVE",
"761 52 CURVE SMOOTH",
"460 52 LINE",
"460 300 LINE",
"643 300 LINE SMOOTH",
"660 300 OFFCURVE",
"669 309 OFFCURVE",
"669 326 CURVE SMOOTH",
"669 343 OFFCURVE",
"660 352 OFFCURVE",
"643 352 CURVE SMOOTH",
"460 352 LINE",
"460 592 LINE",
"761 592 LINE SMOOTH",
"778 592 OFFCURVE",
"787 601 OFFCURVE",
"787 618 CURVE SMOOTH",
"787 635 OFFCURVE",
"778 644 OFFCURVE",
"761 644 CURVE SMOOTH",
"392 644 LINE SMOOTH",
"378 644 OFFCURVE",
"368 638 OFFCURVE",
"362 625 CURVE SMOOTH",
"30 40 LINE SMOOTH",
"22 25 OFFCURVE",
"26 13 OFFCURVE",
"40 4 CURVE SMOOTH",
"55 -5 OFFCURVE",
"67 -1 OFFCURVE",
"76 14 CURVE SMOOTH",
"167 175 LINE",
"408 174 LINE",
"408 26 LINE SMOOTH",
"408 9 OFFCURVE",
"416 0 OFFCURVE",
"434 0 CURVE SMOOTH"
);
},
{
closed = 1;
nodes = (
"397 586 LINE",
"408 586 LINE",
"408 226 LINE",
"196 226 LINE"
);
}
);
width = 827;
}
);
leftKerningGroup = A;
leftMetricsKey = A;
rightKerningGroup = E;
rightMetricsKey = E;
unicode = 00C6;
},
{
color = 4;
glyphname = B;
lastChange = "2016-07-31 01:33:46 +0000";
layers = (
{
anchors = (
{
name = bottom;
position = "{310, 0}";
},
{
name = top;
position = "{309, 644}";
}
);
layerId = "D7F5B317-FDDE-425C-99B8-2570E6EC45B4";
paths = (
{
closed = 1;
nodes = (
"393 0 LINE SMOOTH",
"507 0 OFFCURVE",
"566 59 OFFCURVE",
"566 172 CURVE SMOOTH",
"566 204 LINE SMOOTH",
"566 316 OFFCURVE",
"507 375 OFFCURVE",
"393 375 CURVE SMOOTH",
"145 375 LINE SMOOTH",
"128 375 OFFCURVE",
"119 366 OFFCURVE",
"119 349 CURVE SMOOTH",
"119 332 OFFCURVE",
"128 323 OFFCURVE",
"145 323 CURVE SMOOTH",
"393 323 LINE SMOOTH",
"479 323 OFFCURVE",
"514 288 OFFCURVE",
"514 204 CURVE SMOOTH",
"514 172 LINE SMOOTH",
"514 88 OFFCURVE",
"478 52 OFFCURVE",
"393 52 CURVE SMOOTH",
"145 52 LINE",
"145 592 LINE",
"380 592 LINE SMOOTH",
"449 592 OFFCURVE",
"477 564 OFFCURVE",
"477 498 CURVE SMOOTH",
"477 471 LINE SMOOTH",
"477 412 OFFCURVE",
"454 378 OFFCURVE",
"401 375 CURVE SMOOTH",
"387 375 OFFCURVE",
"380 365 OFFCURVE",
"380 350 CURVE SMOOTH",
"380 337 OFFCURVE",
"390 336 OFFCURVE",
"408 338 CURVE SMOOTH",
"487 344 OFFCURVE",
"529 388 OFFCURVE",
"529 471 CURVE SMOOTH",
"529 498 LINE SMOOTH",
"529 593 OFFCURVE",
"478 644 OFFCURVE",
"380 644 CURVE SMOOTH",
"119 644 LINE SMOOTH",
"102 644 OFFCURVE",
"93 635 OFFCURVE",
"93 618 CURVE SMOOTH",
"93 26 LINE SMOOTH",
"93 9 OFFCURVE",
"102 0 OFFCURVE",
"119 0 CURVE SMOOTH"
);
}
);
width = 620;
}
);
leftKerningGroup = H;
leftMetricsKey = H;
rightKerningGroup = B;
unicode = 0042;
},
{
color = 4;
glyphname = C;
lastChange = "2016-07-31 01:33:46 +0000";
layers = (
{
anchors = (
{
name = bottom;
position = "{349, 0}";
},
{
name = top;
position = "{342, 644}";
}
);
layerId = "D7F5B317-FDDE-425C-99B8-2570E6EC45B4";
paths = (
{
closed = 1;
nodes = (
"408 0 LINE SMOOTH",
"531 0 OFFCURVE",
"588 48 OFFCURVE",
"595 161 CURVE SMOOTH",
"596 179 OFFCURVE",
"587 188 OFFCURVE",
"569 188 CURVE SMOOTH",
"553 188 OFFCURVE",
"544 179 OFFCURVE",
"543 162 CURVE SMOOTH",
"537 79 OFFCURVE",
"502 52 OFFCURVE",
"408 52 CURVE SMOOTH",
"288 52 LINE SMOOTH",
"172 52 OFFCURVE",
"132 92 OFFCURVE",
"132 208 CURVE SMOOTH",
"132 436 LINE SMOOTH",
"132 552 OFFCURVE",
"172 592 OFFCURVE",
"287 592 CURVE SMOOTH",
"408 592 LINE SMOOTH",
"502 592 OFFCURVE",
"537 564 OFFCURVE",
"543 482 CURVE SMOOTH",
"544 465 OFFCURVE",
"553 456 OFFCURVE",
"569 456 CURVE SMOOTH",
"587 456 OFFCURVE",
"596 465 OFFCURVE",
"595 482 CURVE SMOOTH",
"588 595 OFFCURVE",
"531 644 OFFCURVE",
"408 644 CURVE SMOOTH",
"287 644 LINE SMOOTH",
"143 644 OFFCURVE",
"80 581 OFFCURVE",
"80 436 CURVE SMOOTH",
"80 208 LINE SMOOTH",
"80 64 OFFCURVE",
"144 0 OFFCURVE",
"288 0 CURVE SMOOTH"
);
}
);
width = 665;
}
);
leftKerningGroup = O;
leftMetricsKey = O;
rightKerningGroup = C;
unicode = 0043;
},
{
color = 4;
glyphname = D;
lastChange = "2016-07-31 01:33:46 +0000";
layers = (
{
anchors = (
{
name = bottom;
position = "{331, 0}";
},
{
name = center;
position = "{161, 325}";
},
{
name = top;
position = "{310, 644}";
}
);
layerId = "D7F5B317-FDDE-425C-99B8-2570E6EC45B4";
paths = (
{
closed = 1;
nodes = (
"360 0 LINE SMOOTH",
"526 0 OFFCURVE",
"598 72 OFFCURVE",
"598 238 CURVE SMOOTH",
"598 406 LINE SMOOTH",
"598 571 OFFCURVE",
"526 644 OFFCURVE",
"360 644 CURVE SMOOTH",
"119 644 LINE SMOOTH",
"102 644 OFFCURVE",
"93 635 OFFCURVE",
"93 618 CURVE SMOOTH",
"93 26 LINE SMOOTH",
"93 9 OFFCURVE",
"102 0 OFFCURVE",
"119 0 CURVE SMOOTH"
);
},
{
closed = 1;
nodes = (
"145 592 LINE",
"360 592 LINE SMOOTH",
"497 592 OFFCURVE",
"546 542 OFFCURVE",
"546 406 CURVE SMOOTH",
"546 238 LINE SMOOTH",
"546 102 OFFCURVE",
"497 52 OFFCURVE",
"360 52 CURVE SMOOTH",
"145 52 LINE"
);
}
);
width = 678;
}
);
leftKerningGroup = H;
leftMetricsKey = H;
rightKerningGroup = O;
rightMetricsKey = O;
unicode = 0044;
},
{
color = 4;
glyphname = E;
lastChange = "2016-07-31 01:33:46 +0000";
layers = (
{
anchors = (
{
name = bottom;
position = "{311, 0}";
},
{
name = ogonek;
position = "{492, 10}";
},
{
name = top;
position = "{324, 644}";
},
{
name = topleft;
position = "{94, 644}";
}
);
layerId = "D7F5B317-FDDE-425C-99B8-2570E6EC45B4";
paths = (
{
closed = 1;
nodes = (
"494 0 LINE SMOOTH",
"511 0 OFFCURVE",
"520 9 OFFCURVE",
"520 26 CURVE SMOOTH",
"520 43 OFFCURVE",
"511 52 OFFCURVE",
"494 52 CURVE SMOOTH",
"145 52 LINE",
"145 592 LINE",
"494 592 LINE SMOOTH",
"511 592 OFFCURVE",
"520 601 OFFCURVE",
"520 618 CURVE SMOOTH",
"520 635 OFFCURVE",
"511 644 OFFCURVE",
"494 644 CURVE SMOOTH",
"119 644 LINE SMOOTH",
"102 644 OFFCURVE",
"93 635 OFFCURVE",
"93 618 CURVE SMOOTH",
"93 26 LINE SMOOTH",
"93 9 OFFCURVE",
"102 0 OFFCURVE",
"119 0 CURVE SMOOTH"
);
},
{
closed = 1;
nodes = (
"376 300 LINE SMOOTH",
"393 300 OFFCURVE",
"402 309 OFFCURVE",
"402 326 CURVE SMOOTH",
"402 343 OFFCURVE",
"393 352 OFFCURVE",
"376 352 CURVE SMOOTH",
"145 352 LINE SMOOTH",
"128 352 OFFCURVE",
"119 343 OFFCURVE",
"119 326 CURVE SMOOTH",
"119 309 OFFCURVE",
"128 300 OFFCURVE",
"145 300 CURVE SMOOTH"
);
}
);
width = 560;
}
);
leftKerningGroup = H;
leftMetricsKey = H;
rightKerningGroup = E;
unicode = 0045;
},
{
color = 4;
glyphname = F;
lastChange = "2016-07-31 01:33:46 +0000";
layers = (
{
anchors = (
{
name = bottom;
position = "{183, 0}";
},
{
name = top;
position = "{312, 644}";
}
);
layerId = "D7F5B317-FDDE-425C-99B8-2570E6EC45B4";
paths = (
{
closed = 1;
nodes = (
"145 26 CURVE SMOOTH",
"145 300 LINE",
"374 300 LINE SMOOTH",
"391 300 OFFCURVE",
"400 309 OFFCURVE",
"400 326 CURVE SMOOTH",
"400 343 OFFCURVE",
"391 352 OFFCURVE",
"374 352 CURVE SMOOTH",
"145 352 LINE",
"145 592 LINE",
"480 592 LINE SMOOTH",
"497 592 OFFCURVE",
"506 601 OFFCURVE",
"506 618 CURVE SMOOTH",
"506 635 OFFCURVE",
"497 644 OFFCURVE",
"480 644 CURVE SMOOTH",
"119 644 LINE SMOOTH",
"102 644 OFFCURVE",
"93 635 OFFCURVE",
"93 618 CURVE SMOOTH",
"93 26 LINE SMOOTH",
"93 9 OFFCURVE",
"102 0 OFFCURVE",
"119 0 CURVE SMOOTH",
"136 0 OFFCURVE",
"145 9 OFFCURVE"
);
}
);
width = 506;
}
);
leftKerningGroup = H;
leftMetricsKey = H;
rightKerningGroup = F;
unicode = 0046;
},
{
color = 4;
glyphname = G;
lastChange = "2016-07-31 01:33:46 +0000";
layers = (
{
anchors = (
{
name = bottom;
position = "{342, 0}";
},
{
name = top;
position = "{341, 644}";
}
);
layerId = "D7F5B317-FDDE-425C-99B8-2570E6EC45B4";
paths = (
{
closed = 1;
nodes = (
"408 0 LINE SMOOTH",
"540 0 OFFCURVE",
"596 56 OFFCURVE",
"596 188 CURVE SMOOTH",
"596 277 LINE SMOOTH",
"596 294 OFFCURVE",
"587 303 OFFCURVE",
"570 303 CURVE SMOOTH",
"434 304 LINE SMOOTH",
"417 304 OFFCURVE",
"408 295 OFFCURVE",
"408 278 CURVE SMOOTH",
"408 261 OFFCURVE",
"417 252 OFFCURVE",
"434 252 CURVE SMOOTH",
"544 251 LINE",
"544 188 LINE SMOOTH",
"544 85 OFFCURVE",
"511 52 OFFCURVE",
"408 52 CURVE SMOOTH",
"288 52 LINE SMOOTH",
"172 52 OFFCURVE",
"132 92 OFFCURVE",
"132 208 CURVE SMOOTH",
"132 436 LINE SMOOTH",
"132 552 OFFCURVE",
"172 592 OFFCURVE",
"287 592 CURVE SMOOTH",
"408 592 LINE SMOOTH",
"502 592 OFFCURVE",
"537 564 OFFCURVE",
"543 482 CURVE SMOOTH",
"544 465 OFFCURVE",
"553 456 OFFCURVE",
"569 456 CURVE SMOOTH",
"587 456 OFFCURVE",
"596 465 OFFCURVE",
"595 482 CURVE SMOOTH",
"588 595 OFFCURVE",
"531 644 OFFCURVE",
"408 644 CURVE SMOOTH",
"287 644 LINE SMOOTH",
"143 644 OFFCURVE",
"80 581 OFFCURVE",
"80 436 CURVE SMOOTH",
"80 208 LINE SMOOTH",
"80 64 OFFCURVE",
"144 0 OFFCURVE",
"288 0 CURVE SMOOTH"
);
}
);
width = 666;
}
);
leftKerningGroup = O;
leftMetricsKey = O;
rightKerningGroup = C;
rightMetricsKey = C;
unicode = 0047;
},
{
color = 4;
glyphname = H;
lastChange = "2016-07-31 01:33:46 +0000";
layers = (
{
anchors = (
{
name = bottom;
position = "{355, 0}";
},
{
name = center;
position = "{355, 473}";
},
{
name = top;
position = "{355, 644}";
},
{
name = topleft;
position = "{93, 644}";
}
);
layerId = "D7F5B317-FDDE-425C-99B8-2570E6EC45B4";
paths = (
{
closed = 1;
nodes = (
"145 26 CURVE SMOOTH",
"145 300 LINE",
"565 300 LINE",
"565 26 LINE SMOOTH",
"565 10 OFFCURVE",
"575 0 OFFCURVE",
"591 0 CURVE SMOOTH",
"607 0 OFFCURVE",
"617 10 OFFCURVE",
"617 26 CURVE SMOOTH",
"617 618 LINE SMOOTH",
"617 634 OFFCURVE",
"607 644 OFFCURVE",
"591 644 CURVE SMOOTH",
"575 644 OFFCURVE",
"565 634 OFFCURVE",
"565 618 CURVE SMOOTH",
"565 352 LINE",
"145 352 LINE",
"145 618 LINE SMOOTH",
"145 634 OFFCURVE",
"135 644 OFFCURVE",
"119 644 CURVE SMOOTH",
"103 644 OFFCURVE",
"93 634 OFFCURVE",
"93 618 CURVE SMOOTH",
"93 26 LINE SMOOTH",
"93 10 OFFCURVE",
"103 0 OFFCURVE",
"119 0 CURVE SMOOTH",
"135 0 OFFCURVE",
"145 10 OFFCURVE"
);
}
);
width = 710;
}
);
leftKerningGroup = H;
rightKerningGroup = H;
unicode = 0048;
},
{
color = 4;
glyphname = I;
lastChange = "2016-07-31 01:37:05 +0000";
layers = (
{
anchors = (
{
name = bottom;
position = "{119, 0}";
},
{
name = ogonek;
position = "{113, 2}";
},
{
name = top;
position = "{119, 644}";
},
{
name = topleft;
position = "{93, 644}";
}
);
layerId = "D7F5B317-FDDE-425C-99B8-2570E6EC45B4";
paths = (
{
closed = 1;
nodes = (
"145 26 CURVE SMOOTH",
"145 618 LINE SMOOTH",
"145 634 OFFCURVE",
"135 644 OFFCURVE",
"119 644 CURVE SMOOTH",
"103 644 OFFCURVE",
"93 634 OFFCURVE",
"93 618 CURVE SMOOTH",
"93 26 LINE SMOOTH",
"93 10 OFFCURVE",
"103 0 OFFCURVE",
"119 0 CURVE SMOOTH",
"135 0 OFFCURVE",
"145 10 OFFCURVE"
);
}
);
width = 238;
}
);
leftKerningGroup = H;
leftMetricsKey = H;
rightKerningGroup = H;
rightMetricsKey = H;
unicode = 0049;
},
{
color = 4;
glyphname = J;
lastChange = "2016-07-31 01:37:05 +0000";
layers = (
{
anchors = (
{
name = bottom;
position = "{234, 0}";
},
{
name = top;
position = "{413, 644}";
}
);
layerId = "D7F5B317-FDDE-425C-99B8-2570E6EC45B4";
paths = (
{
closed = 1;
nodes = (
"252 0 LINE SMOOTH",
"384 0 OFFCURVE",
"440 56 OFFCURVE",
"440 188 CURVE SMOOTH",
"440 618 LINE SMOOTH",
"440 635 OFFCURVE",
"431 644 OFFCURVE",
"414 644 CURVE SMOOTH",
"397 644 OFFCURVE",
"388 635 OFFCURVE",
"388 618 CURVE SMOOTH",
"388 188 LINE SMOOTH",
"388 85 OFFCURVE",
"355 52 OFFCURVE",
"252 52 CURVE SMOOTH",
"212 52 LINE SMOOTH",
"118 52 OFFCURVE",
"82 79 OFFCURVE",
"76 162 CURVE SMOOTH",
"75 179 OFFCURVE",
"67 188 OFFCURVE",
"50 188 CURVE SMOOTH",
"33 188 OFFCURVE",
"23 178 OFFCURVE",
"24 161 CURVE SMOOTH",
"32 48 OFFCURVE",
"88.995 0 OFFCURVE",
"212 0 CURVE SMOOTH"
);
}
);
width = 524;
}
);
leftKerningGroup = J;
rightKerningGroup = U;
rightMetricsKey = U;
unicode = 004A;
},
{
color = 4;
glyphname = K;
lastChange = "2016-07-31 01:33:46 +0000";
layers = (
{
anchors = (
{
name = bottom;
position = "{278, 0}";
},
{
name = top;
position = "{271, 644}";
}
);
layerId = "D7F5B317-FDDE-425C-99B8-2570E6EC45B4";
paths = (
{
closed = 1;
nodes = (
"142 251 CURVE SMOOTH",
"480 598 LINE SMOOTH",
"491 610 OFFCURVE",
"491 623 OFFCURVE",
"479 635 CURVE SMOOTH",
"467 647 OFFCURVE",
"454 646 OFFCURVE",
"443 635 CURVE SMOOTH",
"105 288 LINE SMOOTH",
"93 276 OFFCURVE",
"93 262 OFFCURVE",
"105 251 CURVE SMOOTH",
"117 239 OFFCURVE",
"130 240 OFFCURVE"
);
},
{
closed = 1;
nodes = (
"145 26 CURVE SMOOTH",
"145 618 LINE SMOOTH",
"145 635 OFFCURVE",
"136 644 OFFCURVE",
"119 644 CURVE SMOOTH",
"102 644 OFFCURVE",
"93 635 OFFCURVE",
"93 618 CURVE SMOOTH",
"93 26 LINE SMOOTH",
"93 9 OFFCURVE",
"102 0 OFFCURVE",
"119 0 CURVE SMOOTH",
"136 0 OFFCURVE",
"145 9 OFFCURVE"
);
},
{
closed = 1;
nodes = (
"520 41 CURVE SMOOTH",
"252 373 LINE SMOOTH",
"241 387 OFFCURVE",
"228 388 OFFCURVE",
"215 377 CURVE SMOOTH",
"202 367 OFFCURVE",
"201 354 OFFCURVE",
"212 341 CURVE SMOOTH",
"480 8 LINE SMOOTH",
"490 -5 OFFCURVE",
"503 -7 OFFCURVE",
"516 4 CURVE SMOOTH",
"529 15 OFFCURVE",
"531 27 OFFCURVE"
);
}
);
width = 550;
}
);
leftKerningGroup = H;
leftMetricsKey = H;
rightKerningGroup = K;
unicode = 004B;
},
{
color = 4;
glyphname = L;
lastChange = "2016-07-31 01:33:46 +0000";
layers = (
{
anchors = (
{
name = bottom;
position = "{285, 0}";
},
{
name = center;
position = "{141, 316}";
},
{
name = top;
position = "{119, 644}";
},
{
name = topright;
position = "{219, 425}";
}
);
layerId = "D7F5B317-FDDE-425C-99B8-2570E6EC45B4";
paths = (
{
closed = 1;
nodes = (
"450 0 LINE SMOOTH",
"467 0 OFFCURVE",
"476 9 OFFCURVE",
"476 26 CURVE SMOOTH",
"476 43 OFFCURVE",
"467 52 OFFCURVE",
"450 52 CURVE SMOOTH",
"145 52 LINE",
"145 618 LINE SMOOTH",
"145 635 OFFCURVE",
"137 644 OFFCURVE",
"119 644 CURVE SMOOTH",
"102 644 OFFCURVE",
"93 635 OFFCURVE",
"93 618 CURVE SMOOTH",
"93 26 LINE SMOOTH",
"93 9 OFFCURVE",
"102 0 OFFCURVE",
"119 0 CURVE SMOOTH"
);
}
);
width = 499;
}
);
leftKerningGroup = H;
leftMetricsKey = H;
rightKerningGroup = L;
unicode = 004C;
},
{
color = 4;
glyphname = M;
lastChange = "2016-07-31 01:37:05 +0000";
layers = (
{
anchors = (
{
name = bottom;
position = "{393, 0}";
},
{
name = top;
position = "{393, 644}";
}
);
layerId = "D7F5B317-FDDE-425C-99B8-2570E6EC45B4";
paths = (
{
closed = 1;
nodes = (
"145 26 CURVE SMOOTH",
"145 555 LINE SMOOTH",
"145 576 OFFCURVE",
"119 589 OFFCURVE",
"127 568 CURVE SMOOTH",
"128 565 OFFCURVE",
"129 563 OFFCURVE",
"131 560 CURVE SMOOTH",
"362 208 LINE SMOOTH",
"370 196 OFFCURVE",
"378.994 191 OFFCURVE",
"391 191 CURVE SMOOTH",
"405 191 OFFCURVE",
"415 196 OFFCURVE",
"422 208 CURVE SMOOTH",
"654 560 LINE SMOOTH",
"665 578 OFFCURVE",
"670 592 OFFCURVE",
"664 592 CURVE SMOOTH",
"647 592 OFFCURVE",
"638 583 OFFCURVE",
"638 566 CURVE SMOOTH",
"638 26 LINE SMOOTH",
"638 9 OFFCURVE",
"647 0 OFFCURVE",
"664 0 CURVE SMOOTH",
"681 0 OFFCURVE",
"690 9 OFFCURVE",
"690 26 CURVE SMOOTH",
"690 618 LINE SMOOTH",
"690 635 OFFCURVE",
"682 644 OFFCURVE",
"667 644 CURVE SMOOTH",
"653 644 OFFCURVE",
"643 639 OFFCURVE",
"636 627 CURVE SMOOTH",
"386 244 LINE",
"398 246 LINE",
"149 627 LINE SMOOTH",
"142 639 OFFCURVE",
"132 644 OFFCURVE",
"119 644 CURVE SMOOTH",
"102 644 OFFCURVE",
"93 635 OFFCURVE",
"93 618 CURVE SMOOTH",
"93 26 LINE SMOOTH",
"93 9 OFFCURVE",
"102 0 OFFCURVE",
"119 0 CURVE SMOOTH",
"136 0 OFFCURVE",
"145 9 OFFCURVE"
);
}
);
width = 783;
}
);
leftKerningGroup = H;
leftMetricsKey = H;
rightKerningGroup = H;
rightMetricsKey = H;
unicode = 004D;
},
{
color = 4;
glyphname = N;
lastChange = "2016-07-31 01:37:05 +0000";
layers = (
{
anchors = (
{
name = bottom;
position = "{358, 0}";
},
{
name = top;
position = "{358, 644}";
}
);
layerId = "D7F5B317-FDDE-425C-99B8-2570E6EC45B4";
paths = (
{
closed = 1;
nodes = (
"145 26 CURVE SMOOTH",
"145 554 LINE",
"134 560 LINE",
"558 15 LINE SMOOTH",
"566 5 OFFCURVE",
"574 0 OFFCURVE",
"584 0 CURVE SMOOTH",
"601 0 OFFCURVE",
"610 9 OFFCURVE",
"610 26 CURVE SMOOTH",
"610 618 LINE SMOOTH",
"610 635 OFFCURVE",
"601 644 OFFCURVE",
"584 644 CURVE SMOOTH",
"567 644 OFFCURVE",
"558 635 OFFCURVE",
"558 618 CURVE SMOOTH",
"558 90 LINE",
"570 84 LINE",
"146 629 LINE SMOOTH",
"138 639 OFFCURVE",
"130 644 OFFCURVE",
"119 644 CURVE SMOOTH",
"102 644 OFFCURVE",
"93 635 OFFCURVE",
"93 618 CURVE SMOOTH",
"93 26 LINE SMOOTH",
"93 9 OFFCURVE",
"102 0 OFFCURVE",
"119 0 CURVE SMOOTH",
"136 0 OFFCURVE",
"145 9 OFFCURVE"
);
}
);
width = 703;
}
);
leftKerningGroup = H;
leftMetricsKey = H;
rightKerningGroup = H;
rightMetricsKey = H;
unicode = 004E;
},
{
color = 4;
glyphname = Eng;
lastChange = "2016-07-31 01:37:05 +0000";
layers = (
{
components = (
{
name = N;
}
);
layerId = "D7F5B317-FDDE-425C-99B8-2570E6EC45B4";
paths = (
{
closed = 1;
nodes = (
"482 -200 LINE SMOOTH",
"570 -200 OFFCURVE",
"610 -160 OFFCURVE",
"610 -72 CURVE SMOOTH",
"610 229 LINE SMOOTH",
"610 246 OFFCURVE",
"601 255 OFFCURVE",
"584 255 CURVE SMOOTH",
"567 255 OFFCURVE",
"558 246 OFFCURVE",
"558 229 CURVE SMOOTH",
"558 -72 LINE SMOOTH",
"558 -131 OFFCURVE",
"541 -148 OFFCURVE",
"482 -148 CURVE SMOOTH",
"371 -148 LINE SMOOTH",
"322 -148 OFFCURVE",
"301 -136 OFFCURVE",
"297 -98 CURVE SMOOTH",
"294 -81 OFFCURVE",
"286 -72 OFFCURVE",
"270 -72 CURVE SMOOTH",
"253 -72 OFFCURVE",
"243 -82 OFFCURVE",
"245 -99 CURVE SMOOTH",
"252 -169 OFFCURVE",
"292 -200 OFFCURVE",
"371 -200 CURVE SMOOTH"
);
}
);
width = 703;
}
);
leftKerningGroup = H;
leftMetricsKey = N;
rightKerningGroup = H;
rightMetricsKey = N;
unicode = 014A;
},
{
color = 4;
glyphname = O;
lastChange = "2016-07-31 01:33:46 +0000";
layers = (
{
anchors = (
{
name = bottom;
position = "{345, 0}";
},
{
name = center;
position = "{345, 322}";
},
{
name = ogonek;
position = "{499, 20}";
},
{
name = top;
position = "{348, 644}";
},
{
name = topleft;
position = "{80, 644}";
},
{
name = topright;
position = "{543, 606}";
}
);
layerId = "D7F5B317-FDDE-425C-99B8-2570E6EC45B4";
paths = (
{
closed = 1;
nodes = (
"408 0 LINE SMOOTH",
"553 0 OFFCURVE",
"616 63 OFFCURVE",
"616 208 CURVE SMOOTH",
"616 436 LINE SMOOTH",
"616 580 OFFCURVE",
"553 644 OFFCURVE",
"408 644 CURVE SMOOTH",
"287 644 LINE SMOOTH",
"144 645 OFFCURVE",
"80 582 OFFCURVE",
"80 436 CURVE SMOOTH",
"80 208 LINE SMOOTH",
"80 63 OFFCURVE",
"143 0 OFFCURVE",
"288 0 CURVE SMOOTH"
);
},
{
closed = 1;
nodes = (
"132 208 CURVE SMOOTH",
"132 436 LINE SMOOTH",
"132 552 OFFCURVE",
"172 593 OFFCURVE",
"287 592 CURVE SMOOTH",
"408 592 LINE SMOOTH",
"523 592 OFFCURVE",
"564 551 OFFCURVE",
"564 436 CURVE SMOOTH",
"564 208 LINE SMOOTH",
"564 93 OFFCURVE",
"523 52 OFFCURVE",
"408 52 CURVE SMOOTH",
"288 52 LINE SMOOTH",
"173 52 OFFCURVE",
"132 93 OFFCURVE"
);
}
);
width = 696;
}
);
leftKerningGroup = O;
rightKerningGroup = O;
unicode = 004F;
},
{
color = 4;
glyphname = OE;
lastChange = "2016-07-31 01:33:46 +0000";
layers = (
{
layerId = "D7F5B317-FDDE-425C-99B8-2570E6EC45B4";
paths = (
{
closed = 1;
nodes = (
"473 52 LINE",
"473 300 LINE",
"644 300 LINE SMOOTH",
"661 300 OFFCURVE",
"670 309 OFFCURVE",
"670 326 CURVE SMOOTH",
"670 343 OFFCURVE",
"661 352 OFFCURVE",
"644 352 CURVE SMOOTH",
"473 352 LINE",
"473 592 LINE",
"762 592 LINE SMOOTH",
"779 592 OFFCURVE",
"788 601 OFFCURVE",
"788 618 CURVE SMOOTH",
"788 635 OFFCURVE",
"779 644 OFFCURVE",
"762 644 CURVE SMOOTH",
"287 644 LINE SMOOTH",
"144 644 OFFCURVE",
"80 582 OFFCURVE",
"80 436 CURVE SMOOTH",
"80 208 LINE SMOOTH",
"80 63 OFFCURVE",
"143 0 OFFCURVE",
"288 0 CURVE SMOOTH",
"762 0 LINE SMOOTH",
"779 0 OFFCURVE",
"788 9 OFFCURVE",
"788 26 CURVE SMOOTH",
"788 43 OFFCURVE",
"779 52 OFFCURVE",
"762 52 CURVE SMOOTH"
);
},
{
closed = 1;
nodes = (
"132 436 LINE SMOOTH",
"132 552 OFFCURVE",
"172 592 OFFCURVE",
"287 592 CURVE SMOOTH",
"421 592 LINE",
"421 52 LINE",
"288 52 LINE SMOOTH",
"173 52 OFFCURVE",
"132 93 OFFCURVE",
"132 208 CURVE SMOOTH"
);
}
);
width = 828;
}
);
leftKerningGroup = O;
leftMetricsKey = O;
rightKerningGroup = E;
rightMetricsKey = E;
unicode = 0152;
},
{
color = 4;
glyphname = P;
lastChange = "2016-07-31 01:33:46 +0000";
layers = (
{
anchors = (
{
name = bottom;
position = "{174, 0}";
},
{
name = top;
position = "{281, 644}";
}
);
layerId = "D7F5B317-FDDE-425C-99B8-2570E6EC45B4";
paths = (
{
closed = 1;
nodes = (
"145 26 CURVE SMOOTH",
"145 592 LINE",
"353 592 LINE SMOOTH",
"438 592 OFFCURVE",
"474 555 OFFCURVE",
"474 471 CURVE SMOOTH",
"474 441 LINE SMOOTH",
"474 356 OFFCURVE",
"438 320 OFFCURVE",
"353 320 CURVE SMOOTH",
"145 320 LINE SMOOTH",
"128 320 OFFCURVE",
"119 311 OFFCURVE",
"119 294 CURVE SMOOTH",
"119 277 OFFCURVE",
"128 268 OFFCURVE",
"145 268 CURVE SMOOTH",
"353 268 LINE SMOOTH",
"467 268 OFFCURVE",
"526 327 OFFCURVE",
"526 441 CURVE SMOOTH",
"526 471 LINE SMOOTH",
"526 584 OFFCURVE",
"467 644 OFFCURVE",
"353 644 CURVE SMOOTH",
"119 644 LINE SMOOTH",
"102 644 OFFCURVE",
"93 635 OFFCURVE",
"93 618 CURVE SMOOTH",
"93 26 LINE SMOOTH",
"93 9 OFFCURVE",
"102 0 OFFCURVE",
"119 0 CURVE SMOOTH",
"136 0 OFFCURVE",
"145 9 OFFCURVE"
);
}
);
width = 560;
}
);
leftKerningGroup = H;
leftMetricsKey = H;
rightKerningGroup = P;
unicode = 0050;
},
{
color = 4;
glyphname = Thorn;
lastChange = "2016-07-31 01:33:46 +0000";
layers = (
{
layerId = "D7F5B317-FDDE-425C-99B8-2570E6EC45B4";
paths = (
{
closed = 1;
nodes = (
"305 175 LINE SMOOTH",
"419 175 OFFCURVE",
"478 235 OFFCURVE",
"478 348 CURVE SMOOTH",
"478 378 LINE SMOOTH",
"478 492 OFFCURVE",
"419 551 OFFCURVE",
"305 551 CURVE SMOOTH",
"145 551 LINE SMOOTH",
"128 551 OFFCURVE",
"119 542 OFFCURVE",
"119 525 CURVE SMOOTH",
"119 508 OFFCURVE",
"128 499 OFFCURVE",
"145 499 CURVE SMOOTH",
"305 499 LINE SMOOTH",
"390 499 OFFCURVE",
"426 463 OFFCURVE",
"426 378 CURVE SMOOTH",
"426 348 LINE SMOOTH",
"426 264 OFFCURVE",
"390 227 OFFCURVE",
"305 227 CURVE SMOOTH",
"145 227 LINE SMOOTH",
"128 227 OFFCURVE",
"119 218 OFFCURVE",
"119 201 CURVE SMOOTH",
"119 184 OFFCURVE",
"128 175 OFFCURVE",
"145 175 CURVE SMOOTH"
);
},
{
closed = 1;
nodes = (
"136 0 OFFCURVE",
"145 9 OFFCURVE",
"145 26 CURVE SMOOTH",
"145 618 LINE SMOOTH",
"145 635 OFFCURVE",
"136 644 OFFCURVE",
"119 644 CURVE SMOOTH",
"102 644 OFFCURVE",
"93 635 OFFCURVE",
"93 618 CURVE SMOOTH",
"93 26 LINE SMOOTH",
"93 9 OFFCURVE",
"102 0 OFFCURVE",
"119 0 CURVE SMOOTH"
);
}
);
width = 512;
}
);
leftKerningGroup = H;
leftMetricsKey = H;
rightKerningGroup = P;
rightMetricsKey = P;
unicode = 00DE;
},
{
color = 4;
glyphname = Q;
lastChange = "2016-07-31 01:33:46 +0000";
layers = (
{
anchors = (
{
name = bottom;
position = "{348, 0}";
},
{
name = top;
position = "{348, 644}";
}
);
components = (
{
name = O;
}
);
layerId = "D7F5B317-FDDE-425C-99B8-2570E6EC45B4";
paths = (
{
closed = 1;
nodes = (
"609 -4 CURVE SMOOTH",
"475 133 LINE SMOOTH",
"464 144 OFFCURVE",
"452 145 OFFCURVE",
"440 134 CURVE SMOOTH",
"429 123 OFFCURVE",
"429 110 OFFCURVE",
"440 99 CURVE SMOOTH",
"574 -38 LINE SMOOTH",
"585 -49 OFFCURVE",
"597 -49 OFFCURVE",
"608 -38 CURVE SMOOTH",
"620 -27 OFFCURVE",
"620 -15 OFFCURVE"
);
}
);
width = 697;
}
);
leftKerningGroup = O;
leftMetricsKey = O;
rightKerningGroup = O;
rightMetricsKey = O;
unicode = 0051;
},
{
color = 4;
glyphname = R;
lastChange = "2016-07-31 01:33:46 +0000";
layers = (
{
anchors = (
{
name = bottom;
position = "{296, 0}";
},
{
name = top;
position = "{296, 644}";
}
);
components = (
{
name = P;
}
);
layerId = "D7F5B317-FDDE-425C-99B8-2570E6EC45B4";
paths = (
{
closed = 1;
nodes = (
"538 34 CURVE SMOOTH",
"373 297 LINE SMOOTH",
"364 312 OFFCURVE",
"352 315 OFFCURVE",
"337 306 CURVE SMOOTH",
"322 298 OFFCURVE",
"319 285 OFFCURVE",
"328 270 CURVE SMOOTH",
"494 7 LINE SMOOTH",
"502 -7 OFFCURVE",
"515 -10 OFFCURVE",
"529 -1 CURVE SMOOTH",
"544 7 OFFCURVE",
"547 20 OFFCURVE"
);
}
);
width = 592;
}
);
leftKerningGroup = H;
leftMetricsKey = H;
rightKerningGroup = R;
unicode = 0052;
},
{
color = 4;
glyphname = S;
lastChange = "2016-07-31 01:33:46 +0000";
layers = (
{
anchors = (
{
name = bottom;
position = "{332, 0}";
},
{
name = top;
position = "{332, 644}";
}
);
layerId = "D7F5B317-FDDE-425C-99B8-2570E6EC45B4";
paths = (
{
closed = 1;
nodes = (
"402 1 LINE SMOOTH",
"526 1 OFFCURVE",
"581 56 OFFCURVE",
"581 179 CURVE SMOOTH",
"581 302 OFFCURVE",
"526 357 OFFCURVE",
"402 357 CURVE SMOOTH",
"265 357 LINE SMOOTH",
"177 357 OFFCURVE",
"147 387 OFFCURVE",
"147 475 CURVE SMOOTH",
"147 562 OFFCURVE",
"177 592 OFFCURVE",
"264 592 CURVE SMOOTH",
"405 592 LINE SMOOTH",
"488 592 OFFCURVE",
"519 564 OFFCURVE",
"521 487 CURVE SMOOTH",
"522 472 OFFCURVE",
"532 462 OFFCURVE",
"547 462 CURVE SMOOTH",
"563 462 OFFCURVE",
"574 472 OFFCURVE",
"573 488 CURVE SMOOTH",
"569 595 OFFCURVE",
"517 644 OFFCURVE",
"405 644 CURVE SMOOTH",
"264 644 LINE SMOOTH",
"148 644 OFFCURVE",
"95 591 OFFCURVE",
"95 475 CURVE SMOOTH",
"95 358 OFFCURVE",
"148 305 OFFCURVE",
"265 305 CURVE SMOOTH",
"402 305 LINE SMOOTH",
"497 305 OFFCURVE",
"529 273 OFFCURVE",
"529 179 CURVE SMOOTH",
"529 85 OFFCURVE",
"498 53 OFFCURVE",
"402 53 CURVE SMOOTH",
"258 53 LINE SMOOTH",
"168 53 OFFCURVE",
"135 82 OFFCURVE",
"132 167 CURVE SMOOTH",
"131 183 OFFCURVE",
"121 193 OFFCURVE",
"106 193 CURVE SMOOTH",
"90 193 OFFCURVE",
"79 182 OFFCURVE",
"80 166 CURVE SMOOTH",
"84 52 OFFCURVE",
"139 1 OFFCURVE",
"258 1 CURVE SMOOTH"
);
}
);
width = 661;
}
);
leftKerningGroup = S;
leftMetricsKey = O;
rightKerningGroup = S;
rightMetricsKey = O;
unicode = 0053;
},
{
color = 4;
glyphname = Germandbls;
lastChange = "2016-07-31 01:33:46 +0000";
layers = (
{
layerId = "D7F5B317-FDDE-425C-99B8-2570E6EC45B4";
paths = (
{
closed = 1;
nodes = (
"135 -5 OFFCURVE",
"145 5 OFFCURVE",
"145 21 CURVE SMOOTH",
"145 480 LINE SMOOTH",
"145 567 OFFCURVE",
"175 597 OFFCURVE",
"262 597 CURVE SMOOTH",
"270 597 LINE SMOOTH",
"354 597 OFFCURVE",
"384 570 OFFCURVE",
"386 491 CURVE",
"305 401 LINE",
"305 358 LINE",
"399 295 OFFCURVE",
"434 239 OFFCURVE",
"434 160 CURVE SMOOTH",
"434 76 OFFCURVE",
"406 47 OFFCURVE",
"321 47 CURVE SMOOTH",
"251 47 LINE SMOOTH",
"235 47 OFFCURVE",
"225 37 OFFCURVE",
"225 21 CURVE SMOOTH",
"225 5 OFFCURVE",
"235 -5 OFFCURVE",
"251 -5 CURVE SMOOTH",
"321 -5 LINE SMOOTH",
"435 -5 OFFCURVE",
"486 47 OFFCURVE",
"486 160 CURVE SMOOTH",
"486 249 OFFCURVE",
"448 317 OFFCURVE",
"359 384 CURVE",
"426 457 LINE SMOOTH",
"435 467 OFFCURVE",
"438 476 OFFCURVE",
"438 490 CURVE SMOOTH",
"436 599 OFFCURVE",
"383 649 OFFCURVE",
"270 649 CURVE SMOOTH",
"262 649 LINE SMOOTH",
"146 649 OFFCURVE",
"93 597 OFFCURVE",
"93 480 CURVE SMOOTH",
"93 21 LINE SMOOTH",
"93 5 OFFCURVE",
"103 -5 OFFCURVE",
"119 -5 CURVE SMOOTH"
);
}
);
width = 566;
}
);
leftKerningGroup = H;
leftMetricsKey = n;
rightKerningGroup = Germandbls;
rightMetricsKey = o;
unicode = 1E9E;
},
{
color = 4;
glyphname = Schwa;
lastChange = "2016-07-31 01:33:46 +0000";
layers = (
{
layerId = "D7F5B317-FDDE-425C-99B8-2570E6EC45B4";
paths = (
{
closed = 1;
nodes = (
"408 1 LINE SMOOTH",
"553 1 OFFCURVE",
"616 64 OFFCURVE",
"616 209 CURVE SMOOTH",
"616 435 LINE SMOOTH",
"616 579 OFFCURVE",
"553 643 OFFCURVE",
"408 643 CURVE SMOOTH",
"288 643 LINE SMOOTH",
"143 643 OFFCURVE",
"80 579 OFFCURVE",
"80 435 CURVE SMOOTH",
"80 420 OFFCURVE",
"91 409 OFFCURVE",
"106 409 CURVE SMOOTH",
"121 409 OFFCURVE",
"132 420 OFFCURVE",
"132 435 CURVE SMOOTH",
"132 550 OFFCURVE",
"173 591 OFFCURVE",
"288 591 CURVE SMOOTH",
"408 591 LINE SMOOTH",
"523 591 OFFCURVE",
"564 550 OFFCURVE",
"564 435 CURVE SMOOTH",
"564 298 LINE",
"80 298 LINE",
"80 209 LINE SMOOTH",
"80 64 OFFCURVE",
"143 1 OFFCURVE",
"288 1 CURVE SMOOTH"
);
},
{
closed = 1;
nodes = (
"173 53 OFFCURVE",
"132 93 OFFCURVE",
"132 209 CURVE SMOOTH",
"132 246 LINE",
"564 246 LINE",
"564 209 LINE SMOOTH",
"564 93 OFFCURVE",
"523 53 OFFCURVE",
"408 53 CURVE SMOOTH",
"288 53 LINE SMOOTH"
);
}
);
width = 696;
}
);
leftKerningGroup = O;
leftMetricsKey = O;
rightKerningGroup = O;
rightMetricsKey = O;
unicode = 018F;
},
{
color = 4;
glyphname = T;
lastChange = "2016-07-31 01:33:46 +0000";
layers = (
{
anchors = (
{
name = bottom;
position = "{283, 0}";
},
{
name = center;
position = "{283, 322}";
},
{
name = top;
position = "{283, 644}";
}
);
layerId = "D7F5B317-FDDE-425C-99B8-2570E6EC45B4";
paths = (
{
closed = 1;
nodes = (
"309 25 CURVE SMOOTH",
"309 592 LINE",
"522 592 LINE SMOOTH",
"538 592 OFFCURVE",
"548 603 OFFCURVE",
"548 618 CURVE SMOOTH",
"548 634 OFFCURVE",
"538 644 OFFCURVE",
"522 644 CURVE SMOOTH",
"44 644 LINE SMOOTH",
"29 644 OFFCURVE",
"18 634 OFFCURVE",
"18 618 CURVE SMOOTH",
"18 603 OFFCURVE",
"29 592 OFFCURVE",
"44 592 CURVE SMOOTH",
"257 592 LINE",
"257 25 LINE SMOOTH",
"257 10 OFFCURVE",
"268 -1 OFFCURVE",
"283 -1 CURVE SMOOTH",
"299 -1 OFFCURVE",
"309 10 OFFCURVE"
);
}
);
width = 567;
}
);
leftKerningGroup = T;
rightKerningGroup = T;
unicode = 0054;
},
{
color = 4;
glyphname = U;
lastChange = "2016-07-31 01:37:05 +0000";
layers = (
{
anchors = (
{
name = bottom;
position = "{351, 0}";
},
{
name = ogonek;
position = "{562, 59}";
},
{
name = top;
position = "{351, 644}";
},
{
name = topright;
position = "{593, 644}";
}
);
layerId = "D7F5B317-FDDE-425C-99B8-2570E6EC45B4";
paths = (
{
closed = 1;
nodes = (
"411 0 LINE SMOOTH",
"556 0 OFFCURVE",
"619 63 OFFCURVE",
"619 208 CURVE SMOOTH",
"619 618 LINE SMOOTH",
"619 633 OFFCURVE",
"609 644 OFFCURVE",
"593 644 CURVE SMOOTH",
"578 644 OFFCURVE",
"567 633 OFFCURVE",
"567 618 CURVE SMOOTH",
"567 208 LINE SMOOTH",
"567 93 OFFCURVE",
"527 52 OFFCURVE",
"411 52 CURVE SMOOTH",
"291 52 LINE SMOOTH",
"176 52 OFFCURVE",
"135 93 OFFCURVE",
"135 208 CURVE SMOOTH",
"135 618 LINE SMOOTH",
"135 633 OFFCURVE",
"125 644 OFFCURVE",
"109 644 CURVE SMOOTH",
"94 644 OFFCURVE",
"83 633 OFFCURVE",
"83 618 CURVE SMOOTH",
"83 208 LINE SMOOTH",
"83 63 OFFCURVE",
"147 0 OFFCURVE",
"291 0 CURVE SMOOTH"
);
}
);
width = 702;
}
);
leftKerningGroup = U;
leftMetricsKey = "=H-10";
rightKerningGroup = U;
rightMetricsKey = "=H-10";
unicode = 0055;
},
{
color = 4;
glyphname = V;
lastChange = "2016-07-31 01:33:46 +0000";
layers = (
{
anchors = (
{
name = bottom;
position = "{303, 0}";
},
{
name = top;
position = "{304, 644}";
}
);
layerId = "D7F5B317-FDDE-425C-99B8-2570E6EC45B4";
paths = (
{
closed = 1;
nodes = (
"306 0 LINE SMOOTH",
"318 0 OFFCURVE",
"326 7 OFFCURVE",
"331 18 CURVE SMOOTH",
"591 607 LINE SMOOTH",
"600 626 OFFCURVE",
"589 639 OFFCURVE",
"572 642 CURVE SMOOTH",
"559 645 OFFCURVE",
"549 640 OFFCURVE",
"544 627 CURVE",
"304 82 LINE",
"63 627 LINE SMOOTH",
"58 640 OFFCURVE",
"48 645 OFFCURVE",
"35 642 CURVE SMOOTH",
"19 639 OFFCURVE",
"8 626 OFFCURVE",
"16 607 CURVE SMOOTH",
"276 18 LINE SMOOTH",
"281 6 OFFCURVE",
"289 0 OFFCURVE",
"300 0 CURVE"
);
}
);
width = 608;
}
);
leftKerningGroup = V;
rightKerningGroup = V;
unicode = 0056;
},
{
color = 4;
glyphname = W;
lastChange = "2016-07-31 01:33:46 +0000";
layers = (
{
anchors = (
{
name = bottom;
position = "{427, 0}";
},
{
name = top;
position = "{427, 644}";
}
);
layerId = "D7F5B317-FDDE-425C-99B8-2570E6EC45B4";
paths = (
{
closed = 1;
nodes = (
"236 0 LINE",
"251 0 OFFCURVE",
"257 7 OFFCURVE",
"262 20 CURVE SMOOTH",
"436 579 LINE",
"416 584 LINE",
"591 20 LINE SMOOTH",
"595 7 OFFCURVE",
"603 0 OFFCURVE",
"617 0 CURVE",
"622 0 LINE",
"635 0 OFFCURVE",
"643 7 OFFCURVE",
"647 20 CURVE SMOOTH",
"839 609 LINE SMOOTH",
"844 625 OFFCURVE",
"839 640 OFFCURVE",
"818 643 CURVE SMOOTH",
"804 645 OFFCURVE",
"794 639 OFFCURVE",
"790 625 CURVE SMOOTH",
"607 63 LINE",
"630 63 LINE",
"457 624 LINE SMOOTH",
"453 637 OFFCURVE",
"445 644 OFFCURVE",
"431 644 CURVE",
"424 644 LINE",
"409 644 OFFCURVE",
"401 637 OFFCURVE",
"397 624 CURVE SMOOTH",
"224 63 LINE",
"248 63 LINE",
"64 625 LINE SMOOTH",
"60 639 OFFCURVE",
"50 645 OFFCURVE",
"36 643 CURVE SMOOTH",
"16 640 OFFCURVE",
"10 624 OFFCURVE",
"15 609 CURVE SMOOTH",
"207 20 LINE SMOOTH",
"211 6 OFFCURVE",
"219 0 OFFCURVE",
"231 0 CURVE"
);
}
);
width = 855;
}
);
leftKerningGroup = V;
leftMetricsKey = V;
rightKerningGroup = V;
rightMetricsKey = V;
unicode = 0057;
},
{
color = 4;
glyphname = X;
lastChange = "2016-07-31 01:33:46 +0000";
layers = (
{
anchors = (
{
name = bottom;
position = "{282, 0}";
},
{
name = top;
position = "{281, 644}";
}
);
layerId = "D7F5B317-FDDE-425C-99B8-2570E6EC45B4";
paths = (
{
closed = 1;
nodes = (
"89 13 CURVE SMOOTH",
"280 291 LINE",
"480 12 LINE SMOOTH",
"489 -1 OFFCURVE",
"502 -4 OFFCURVE",
"516 6 CURVE SMOOTH",
"529 16 OFFCURVE",
"532 29 OFFCURVE",
"522 42 CURVE SMOOTH",
"315 332 LINE",
"512 601 LINE SMOOTH",
"522 615 OFFCURVE",
"520 627 OFFCURVE",
"506 637 CURVE SMOOTH",
"493 647 OFFCURVE",
"480 646 OFFCURVE",
"470 632 CURVE SMOOTH",
"282 377 LINE",
"101 631 LINE SMOOTH",
"91 645 OFFCURVE",
"78 647 OFFCURVE",
"64 638 CURVE",
"50 628 OFFCURVE",
"48 615 OFFCURVE",
"58 602 CURVE SMOOTH",
"248 336 LINE",
"46 42 LINE SMOOTH",
"37 28 OFFCURVE",
"40 16 OFFCURVE",
"53 6 CURVE SMOOTH",
"67 -4 OFFCURVE",
"80 -1 OFFCURVE"
);
}
);
width = 575;
}
);
leftKerningGroup = X;
rightKerningGroup = X;
unicode = 0058;
},
{
color = 4;
glyphname = Y;
lastChange = "2016-07-31 01:33:46 +0000";
layers = (
{
anchors = (
{
name = bottom;
position = "{270, 0}";
},
{
name = top;
position = "{270, 644}";
},
{
name = topleft;
position = "{29, 644}";
}
);
layerId = "D7F5B317-FDDE-425C-99B8-2570E6EC45B4";
paths = (
{
closed = 1;
nodes = (
"476 631 CURVE SMOOTH",
"268 305 LINE",
"63 630 LINE SMOOTH",
"54 645 OFFCURVE",
"41 647 OFFCURVE",
"27 639 CURVE",
"12 629 OFFCURVE",
"10 617 OFFCURVE",
"18 603 CURVE SMOOTH",
"242 249 LINE",
"242 26 LINE SMOOTH",
"242 9 OFFCURVE",
"251 0 OFFCURVE",
"268 0 CURVE SMOOTH",
"285 0 OFFCURVE",
"294 9 OFFCURVE",
"294 26 CURVE SMOOTH",
"294 249 LINE",
"520 603 LINE SMOOTH",
"529 617 OFFCURVE",
"527 630 OFFCURVE",
"512 638 CURVE",
"498 647 OFFCURVE",
"485 645 OFFCURVE"
);
}
);
width = 539;
}
);
leftKerningGroup = Y;
leftMetricsKey = V;
rightKerningGroup = Y;
rightMetricsKey = V;
unicode = 0059;
},
{
color = 4;
glyphname = Z;
lastChange = "2016-07-31 01:33:46 +0000";
layers = (
{
anchors = (
{
name = bottom;
position = "{319, 0}";
},
{
name = top;
position = "{328, 644}";
}
);
layerId = "D7F5B317-FDDE-425C-99B8-2570E6EC45B4";
paths = (
{
closed = 1;
nodes = (
"427 0 LINE SMOOTH",
"515 0 OFFCURVE",
"566 41 OFFCURVE",
"574 121 CURVE SMOOTH",
"576 138 OFFCURVE",
"566 148 OFFCURVE",
"548 148 CURVE SMOOTH",
"532 148 OFFCURVE",
"524 139 OFFCURVE",
"522 123 CURVE SMOOTH",
"515 73 OFFCURVE",
"486 52 OFFCURVE",
"427 52 CURVE SMOOTH",
"117 52 LINE",
"124 37 LINE",
"536 587 LINE SMOOTH",
"544 598 OFFCURVE",
"547 606 OFFCURVE",
"547 618 CURVE SMOOTH",
"547 635 OFFCURVE",
"538 644 OFFCURVE",
"521 644 CURVE SMOOTH",
"190 644 LINE SMOOTH",
"102 644 OFFCURVE",
"52 602 OFFCURVE",
"43 523 CURVE SMOOTH",
"41 506 OFFCURVE",
"52 496 OFFCURVE",
"68 496 CURVE SMOOTH",
"85 496 OFFCURVE",
"93 504 OFFCURVE",
"96 521 CURVE SMOOTH",
"102 571 OFFCURVE",
"131 592 OFFCURVE",
"190 592 CURVE SMOOTH",
"494 592 LINE",
"483 602 LINE",
"71 54 LINE SMOOTH",
"63 43 OFFCURVE",
"58 36 OFFCURVE",
"58 26 CURVE SMOOTH",
"58 9 OFFCURVE",
"68 0 OFFCURVE",
"86 0 CURVE SMOOTH"
);
}
);
width = 617;
}
);
leftKerningGroup = Z;
rightKerningGroup = Z;
unicode = 005A;
},
{
color = 4;
glyphname = Iacute_J.loclNLD;
lastChange = "2016-07-31 01:37:05 +0000";
layers = (
{
layerId = "D7F5B317-FDDE-425C-99B8-2570E6EC45B4";
paths = (
{
closed = 1;
nodes = (
"320 0 LINE SMOOTH",
"452 0 OFFCURVE",
"508 56 OFFCURVE",
"508 188 CURVE SMOOTH",
"508 618 LINE SMOOTH",
"508 635 OFFCURVE",
"499 644 OFFCURVE",
"482 644 CURVE SMOOTH",
"465 644 OFFCURVE",
"456 635 OFFCURVE",
"456 618 CURVE SMOOTH",
"456 188 LINE SMOOTH",
"456 85 OFFCURVE",
"423 52 OFFCURVE",
"320 52 CURVE SMOOTH",
"280 52 LINE SMOOTH",
"186 52 OFFCURVE",
"150 79 OFFCURVE",
"145 162 CURVE SMOOTH",
"143 179 OFFCURVE",
"135 188 OFFCURVE",
"118 188 CURVE SMOOTH",
"101 188 OFFCURVE",
"91 178 OFFCURVE",
"93 161 CURVE SMOOTH",
"100 48 OFFCURVE",
"157 0 OFFCURVE",
"280 0 CURVE SMOOTH"
);
},
{
closed = 1;
nodes = (
"135 249 OFFCURVE",
"145 259 OFFCURVE",
"145 275 CURVE SMOOTH",
"145 618 LINE SMOOTH",
"145 634 OFFCURVE",
"135 644 OFFCURVE",
"119 644 CURVE SMOOTH",
"103 644 OFFCURVE",
"93 634 OFFCURVE",
"93 618 CURVE SMOOTH",
"93 275 LINE SMOOTH",
"93 259 OFFCURVE",
"103 249 OFFCURVE",
"119 249 CURVE SMOOTH"
);
},
{
closed = 1;
nodes = (
"116 691 OFFCURVE",
"129 692 OFFCURVE",
"139 705 CURVE SMOOTH",
"225 806 LINE SMOOTH",
"235 819 OFFCURVE",
"234 831 OFFCURVE",
"222 841 CURVE SMOOTH",
"210 852 OFFCURVE",
"197 851 OFFCURVE",
"187 838 CURVE SMOOTH",
"101 736 LINE SMOOTH",
"91 724 OFFCURVE",
"92 712 OFFCURVE",
"104 701 CURVE SMOOTH"
);
},
{
closed = 1;
nodes = (
"483 691 OFFCURVE",
"496 692 OFFCURVE",
"506 705 CURVE SMOOTH",
"592 806 LINE SMOOTH",
"602 819 OFFCURVE",
"601 831 OFFCURVE",
"589 841 CURVE SMOOTH",
"577 852 OFFCURVE",
"564 851 OFFCURVE",
"554 838 CURVE SMOOTH",
"468 736 LINE SMOOTH",
"458 724 OFFCURVE",
"459 712 OFFCURVE",
"471 701 CURVE SMOOTH"
);
}
);
width = 609;
}
);
leftKerningGroup = H;
leftMetricsKey = H;
rightKerningGroup = U;
},
{
color = 4;
glyphname = a;
lastChange = "2016-07-31 01:33:46 +0000";
layers = (
{
anchors = (
{
name = bottom;
position = "{290, 0}";
},
{
name = ogonek;
position = "{470, 2}";
},
{
name = top;
position = "{290, 472}";
}
);
layerId = "D7F5B317-FDDE-425C-99B8-2570E6EC45B4";
paths = (
{
closed = 1;
nodes = (
"503 26 CURVE SMOOTH",
"503 292 LINE SMOOTH",
"503 417 OFFCURVE",
"448 472 OFFCURVE",
"323 472 CURVE SMOOTH",
"265 472 LINE SMOOTH",
"151 472 OFFCURVE",
"92 439 OFFCURVE",
"83 363 CURVE SMOOTH",
"81 346 OFFCURVE",
"91 336 OFFCURVE",
"109 336 CURVE SMOOTH",
"124 336 OFFCURVE",
"131 343 OFFCURVE",
"136 360 CURVE SMOOTH",
"145 404 OFFCURVE",
"180 420 OFFCURVE",
"265 420 CURVE SMOOTH",
"323 420 LINE SMOOTH",
"419 420 OFFCURVE",
"451 387 OFFCURVE",
"451 292 CURVE SMOOTH",
"451 26 LINE SMOOTH",
"451 9 OFFCURVE",
"460 0 OFFCURVE",
"477 0 CURVE SMOOTH",
"494 0 OFFCURVE",
"503 9 OFFCURVE"
);
},
{
closed = 1;
nodes = (
"279 0 LINE SMOOTH",
"398 0 OFFCURVE",
"468 55 OFFCURVE",
"478 157 CURVE SMOOTH",
"479 170 OFFCURVE",
"478 177 OFFCURVE",
"476 177 CURVE SMOOTH",
"460 177 OFFCURVE",
"452 168 OFFCURVE",
"449 152 CURVE SMOOTH",
"439 86 OFFCURVE",
"383 52 OFFCURVE",
"279 52 CURVE SMOOTH",
"223 52 LINE SMOOTH",
"149 52 OFFCURVE",
"125 76 OFFCURVE",
"125 150 CURVE SMOOTH",
"125 225 OFFCURVE",
"149 249 OFFCURVE",
"223 249 CURVE SMOOTH",
"451 249 LINE SMOOTH",
"468 249 OFFCURVE",
"477 258 OFFCURVE",
"477 275 CURVE SMOOTH",
"477 292 OFFCURVE",
"468 301 OFFCURVE",
"451 301 CURVE SMOOTH",
"223 301 LINE SMOOTH",
"120 301 OFFCURVE",
"73 254 OFFCURVE",
"73 150 CURVE SMOOTH",
"73 46 OFFCURVE",
"120 0 OFFCURVE",
"223 0 CURVE SMOOTH"
);
}
);
width = 587;
}
);
leftKerningGroup = a;
leftMetricsKey = "=n-20";
rightKerningGroup = n;
rightMetricsKey = n;
unicode = 0061;
},
{
color = 4;
glyphname = ae;
lastChange = "2016-07-31 01:33:46 +0000";
layers = (
{
anchors = (
{
name = bottom;
position = "{455, 0}";
},
{
name = top;
position = "{455, 472}";
}
);
layerId = "D7F5B317-FDDE-425C-99B8-2570E6EC45B4";
paths = (
{
closed = 1;
nodes = (
"667 -6 LINE SMOOTH",
"788 -6 OFFCURVE",
"843 37 OFFCURVE",
"843 135 CURVE SMOOTH",
"843 150 OFFCURVE",
"832 161 OFFCURVE",
"817 161 CURVE SMOOTH",
"803 161 OFFCURVE",
"791 150 OFFCURVE",
"791 135 CURVE SMOOTH",
"791 69 OFFCURVE",
"761 46 OFFCURVE",
"667 46 CURVE SMOOTH",
"606 46 LINE SMOOTH",
"515 46 OFFCURVE",
"483 79 OFFCURVE",
"483 176 CURVE SMOOTH",
"483 244 LINE",
"817 244 LINE SMOOTH",
"834 244 OFFCURVE",
"843 253 OFFCURVE",
"843 270 CURVE SMOOTH",
"843 405 OFFCURVE",
"788 466 OFFCURVE",
"667 466 CURVE SMOOTH",
"607 466 LINE SMOOTH",
"533 467 OFFCURVE",
"484 442 OFFCURVE",
"457 388 CURVE",
"430 442 OFFCURVE",
"379 467 OFFCURVE",
"303 467 CURVE SMOOTH",
"265 467 LINE SMOOTH",
"139 467 OFFCURVE",
"81 426 OFFCURVE",
"81 331 CURVE SMOOTH",
"81 316 OFFCURVE",
"93 305 OFFCURVE",
"107 305 CURVE SMOOTH",
"122 305 OFFCURVE",
"133 316 OFFCURVE",
"133 331 CURVE SMOOTH",
"133 393 OFFCURVE",
"165 415 OFFCURVE",
"265 415 CURVE SMOOTH",
"303 415 LINE SMOOTH",
"396 415 OFFCURVE",
"429 384 OFFCURVE",
"431 296 CURVE",
"223 296 LINE SMOOTH",
"120 296 OFFCURVE",
"73 250 OFFCURVE",
"73 146 CURVE SMOOTH",
"73 42 OFFCURVE",
"120 -4 OFFCURVE",
"223 -4 CURVE SMOOTH",
"259 -4 LINE SMOOTH",
"352 -4 OFFCURVE",
"417 26 OFFCURVE",
"452 82 CURVE",
"478 22 OFFCURVE",
"528 -6 OFFCURVE",
"606 -6 CURVE SMOOTH"
);
},
{
closed = 1;
nodes = (
"149 48 OFFCURVE",
"125 72 OFFCURVE",
"125 146 CURVE SMOOTH",
"125 220 OFFCURVE",
"149 244 OFFCURVE",
"223 244 CURVE SMOOTH",
"431 244 LINE",
"431 172 LINE SMOOTH",
"431 89 OFFCURVE",
"376 48 OFFCURVE",
"259 48 CURVE SMOOTH",
"223 48 LINE SMOOTH"
);
},
{
closed = 1;
nodes = (
"486 384 OFFCURVE",
"518 415 OFFCURVE",
"607 414 CURVE SMOOTH",
"667 414 LINE SMOOTH",
"751 414 OFFCURVE",
"785 382 OFFCURVE",
"791 296 CURVE",
"484 296 LINE"
);
}
);
width = 923;
}
);
leftKerningGroup = a;
leftMetricsKey = a;
rightKerningGroup = e;
rightMetricsKey = e;
unicode = 00E6;
},
{
color = 4;
glyphname = b;
lastChange = "2016-07-31 01:33:46 +0000";
layers = (
{
anchors = (
{
name = bottom;
position = "{333, 0}";
},
{
name = top;
position = "{333, 472}";
}
);
layerId = "D7F5B317-FDDE-425C-99B8-2570E6EC45B4";
paths = (
{
closed = 1;
nodes = (
"355 0 LINE SMOOTH",
"480 0 OFFCURVE",
"535 56 OFFCURVE",
"535 180 CURVE SMOOTH",
"535 293 LINE SMOOTH",
"535 417 OFFCURVE",
"480 473 OFFCURVE",
"355 473 CURVE SMOOTH",
"317 473 LINE SMOOTH",
"189 473 OFFCURVE",
"130 421 OFFCURVE",
"118 323 CURVE SMOOTH",
"117 306 OFFCURVE",
"108 297 OFFCURVE",
"120 297 CURVE SMOOTH",
"137 297 OFFCURVE",
"145 305 OFFCURVE",
"145 321 CURVE SMOOTH",
"145 388 OFFCURVE",
"213 421 OFFCURVE",
"317 421 CURVE SMOOTH",
"355 421 LINE SMOOTH",
"451 421 OFFCURVE",
"483 388 OFFCURVE",
"483 293 CURVE SMOOTH",
"483 180 LINE SMOOTH",
"483 85 OFFCURVE",
"451 52 OFFCURVE",
"355 52 CURVE SMOOTH",
"317 52 LINE SMOOTH",
"213 52 OFFCURVE",
"145 85 OFFCURVE",
"145 151 CURVE SMOOTH",
"146 168 OFFCURVE",
"137 176 OFFCURVE",
"120 176 CURVE SMOOTH",
"108 176 OFFCURVE",
"117 166 OFFCURVE",
"118 149 CURVE SMOOTH",
"130 52 OFFCURVE",
"189 0 OFFCURVE",
"317 0 CURVE SMOOTH"
);
},
{
closed = 1;
nodes = (
"145 26 CURVE SMOOTH",
"145 667 LINE SMOOTH",
"145 684 OFFCURVE",
"136 693 OFFCURVE",
"119 693 CURVE SMOOTH",
"102 693 OFFCURVE",
"93 684 OFFCURVE",
"93 667 CURVE SMOOTH",
"93 26 LINE SMOOTH",
"93 9 OFFCURVE",
"102 0 OFFCURVE",
"119 0 CURVE SMOOTH",
"136 0 OFFCURVE",
"145 9 OFFCURVE"
);
}
);
width = 615;
}
);
leftKerningGroup = h;
leftMetricsKey = n;
rightKerningGroup = o;
rightMetricsKey = o;
unicode = 0062;
},
{
color = 4;
glyphname = c;
lastChange = "2016-07-31 01:37:05 +0000";
layers = (
{
anchors = (
{
name = bottom;
position = "{303, 0}";
},
{
name = top;
position = "{302, 472}";
}
);
layerId = "D7F5B317-FDDE-425C-99B8-2570E6EC45B4";
paths = (
{
closed = 1;
nodes = (
"342 0 LINE SMOOTH",
"440 0 OFFCURVE",
"490 32 OFFCURVE",
"500 103 CURVE SMOOTH",
"503 120 OFFCURVE",
"492 130 OFFCURVE",
"475 130 CURVE SMOOTH",
"458 130 OFFCURVE",
"451 121 OFFCURVE",
"448 106 CURVE SMOOTH",
"440 66 OFFCURVE",
"411 52 OFFCURVE",
"342 52 CURVE SMOOTH",
"260 52 LINE SMOOTH",
"165 52 OFFCURVE",
"132 84 OFFCURVE",
"132 180 CURVE SMOOTH",
"132 293 LINE",
"132 389 OFFCURVE",
"164 421 OFFCURVE",
"260 420 CURVE SMOOTH",
"342 420 LINE SMOOTH",
"411 420 OFFCURVE",
"440 406 OFFCURVE",
"448 366 CURVE SMOOTH",
"451 351 OFFCURVE",
"458 342 OFFCURVE",
"475 342 CURVE SMOOTH",
"492 342 OFFCURVE",
"503 352 OFFCURVE",
"500 369 CURVE SMOOTH",
"490 440 OFFCURVE",
"440 472 OFFCURVE",
"342 472 CURVE SMOOTH",
"260 472 LINE SMOOTH",
"136 473 OFFCURVE",
"80 418 OFFCURVE",
"80 293 CURVE SMOOTH",
"80 180 LINE SMOOTH",
"80 56 OFFCURVE",
"136 0 OFFCURVE",
"260 0 CURVE SMOOTH"
);
}
);
width = 560;
}
);
leftKerningGroup = o;
leftMetricsKey = o;
rightKerningGroup = c;
rightMetricsKey = "=o-20";
unicode = 0063;
},
{
color = 4;
glyphname = d;
lastChange = "2016-07-31 01:33:46 +0000";
layers = (
{
anchors = (
{
name = bottom;
position = "{283, 0}";
},
{
name = center;
position = "{457, 577}";
},
{
name = top;
position = "{330, 472}";
},
{
name = topright;
position = "{565, 472}";
}
);
layerId = "D7F5B317-FDDE-425C-99B8-2570E6EC45B4";
paths = (
{
closed = 1;
nodes = (
"298 0 LINE SMOOTH",
"431 0 OFFCURVE",
"485 52 OFFCURVE",
"497 149 CURVE SMOOTH",
"499 166 OFFCURVE",
"512 176 OFFCURVE",
"495 176 CURVE SMOOTH",
"478 176 OFFCURVE",
"470 168 OFFCURVE",
"470 151 CURVE SMOOTH",
"470 85 OFFCURVE",
"402 52 OFFCURVE",
"298 52 CURVE SMOOTH",
"260 52 LINE SMOOTH",
"165 52 OFFCURVE",
"132 84 OFFCURVE",
"132 180 CURVE SMOOTH",
"132 292 LINE SMOOTH",
"132 387 OFFCURVE",
"164 420 OFFCURVE",
"260 420 CURVE SMOOTH",
"470 420 LINE SMOOTH",
"487 420 OFFCURVE",
"496 429 OFFCURVE",
"496 446 CURVE SMOOTH",
"496 463 OFFCURVE",
"487 472 OFFCURVE",
"470 472 CURVE SMOOTH",
"260 472 LINE SMOOTH",
"136 472 OFFCURVE",
"80 416 OFFCURVE",
"80 292 CURVE SMOOTH",
"80 180 LINE SMOOTH",
"80 56 OFFCURVE",
"136 0 OFFCURVE",
"260 0 CURVE SMOOTH"
);
},
{
closed = 1;
nodes = (
"522 26 CURVE SMOOTH",
"522 667 LINE SMOOTH",
"522 684 OFFCURVE",
"513 693 OFFCURVE",
"496 693 CURVE SMOOTH",
"479 693 OFFCURVE",
"470 684 OFFCURVE",
"470 667 CURVE SMOOTH",
"470 26 LINE SMOOTH",
"470 9 OFFCURVE",
"479 0 OFFCURVE",
"496 0 CURVE SMOOTH",
"513 0 OFFCURVE",
"522 9 OFFCURVE"
);
}
);
width = 606;
}
);
leftKerningGroup = o;
leftMetricsKey = o;
rightKerningGroup = d;
rightMetricsKey = n;
unicode = 0064;
},
{
color = 4;
glyphname = eth;
lastChange = "2016-07-31 01:33:46 +0000";
layers = (
{
layerId = "D7F5B317-FDDE-425C-99B8-2570E6EC45B4";
paths = (
{
closed = 1;
nodes = (
"158 717 LINE SMOOTH",
"141 722 OFFCURVE",
"130 715 OFFCURVE",
"126 698 CURVE SMOOTH",
"122 682 OFFCURVE",
"129 671 OFFCURVE",
"145 666 CURVE SMOOTH",
"377 608 LINE SMOOTH",
"426 595 OFFCURVE",
"454 545 OFFCURVE",
"464 425 CURVE",
"436 457 OFFCURVE",
"394 473 OFFCURVE",
"342 473 CURVE SMOOTH",
"260 473 LINE SMOOTH",
"135 473 OFFCURVE",
"80 418 OFFCURVE",
"80 293 CURVE SMOOTH",
"80 180 LINE SMOOTH",
"80 56 OFFCURVE",
"135 1 OFFCURVE",
"260 1 CURVE SMOOTH",
"342 1 LINE SMOOTH",
"467 1 OFFCURVE",
"522 56 OFFCURVE",
"522 181 CURVE SMOOTH",
"522 318 LINE SMOOTH",
"519 536 OFFCURVE",
"481 636 OFFCURVE",
"389 658 CURVE SMOOTH"
);
},
{
closed = 1;
nodes = (
"470 85 OFFCURVE",
"437 53 OFFCURVE",
"342 53 CURVE SMOOTH",
"260 53 LINE SMOOTH",
"165 53 OFFCURVE",
"132 85 OFFCURVE",
"132 180 CURVE SMOOTH",
"132 293 LINE SMOOTH",
"132 389 OFFCURVE",
"165 421 OFFCURVE",
"260 421 CURVE SMOOTH",
"342 421 LINE SMOOTH",
"425 421 OFFCURVE",
"470 394 OFFCURVE",
"470 309 CURVE SMOOTH",
"470 181 LINE SMOOTH"
);
},
{
closed = 1;
nodes = (
"372 708 LINE SMOOTH",
"384 719 OFFCURVE",
"384 731 OFFCURVE",
"373 743 CURVE SMOOTH",
"362 754 OFFCURVE",
"350 755 OFFCURVE",
"338 744 CURVE SMOOTH",
"186 602 LINE SMOOTH",
"175 590 OFFCURVE",
"175 578 OFFCURVE",
"185 567 CURVE SMOOTH",
"196 555 OFFCURVE",
"209 555 OFFCURVE",
"220 566 CURVE SMOOTH"
);
}
);
width = 602;
}
);
leftKerningGroup = o;
leftMetricsKey = o;
rightKerningGroup = o;
rightMetricsKey = o;
unicode = 00F0;
},
{
color = 4;
glyphname = e;
lastChange = "2016-07-31 01:33:46 +0000";
layers = (
{
anchors = (
{
name = bottom;
position = "{307, 0}";
},
{
name = ogonek;
position = "{478, 50}";
},
{
name = top;
position = "{307, 472}";
}
);
layerId = "D7F5B317-FDDE-425C-99B8-2570E6EC45B4";
paths = (
{
closed = 1;
nodes = (
"342 0 LINE SMOOTH",
"454 0 OFFCURVE",
"511 38 OFFCURVE",
"520 123 CURVE SMOOTH",
"523 141 OFFCURVE",
"513 150 OFFCURVE",
"495 150 CURVE SMOOTH",
"479 150 OFFCURVE",
"471 141 OFFCURVE",
"468 125 CURVE SMOOTH",
"461 72 OFFCURVE",
"427 52 OFFCURVE",
"342 52 CURVE SMOOTH",
"260 52 LINE SMOOTH",
"165 52 OFFCURVE",
"132 84 OFFCURVE",
"132 179 CURVE SMOOTH",
"132 292 LINE SMOOTH",
"132 389 OFFCURVE",
"164 421 OFFCURVE",
"260 420 CURVE SMOOTH",
"342 420 LINE SMOOTH",
"438 420 OFFCURVE",
"470 388 OFFCURVE",
"470 292 CURVE SMOOTH",
"470 268 LINE",
"132 268 LINE SMOOTH",
"115 268 OFFCURVE",
"106 259 OFFCURVE",
"106 242 CURVE SMOOTH",
"106 225 OFFCURVE",
"115 216 OFFCURVE",
"132 216 CURVE SMOOTH",
"496 216 LINE SMOOTH",
"513 216 OFFCURVE",
"522 225 OFFCURVE",
"522 242 CURVE SMOOTH",
"522 292 LINE",
"522 416 OFFCURVE",
"466 472 OFFCURVE",
"342 472 CURVE SMOOTH",
"260 472 LINE SMOOTH",
"136 473 OFFCURVE",
"80 417 OFFCURVE",
"80 292 CURVE SMOOTH",
"80 179 LINE SMOOTH",
"80 55 OFFCURVE",
"136 0 OFFCURVE",
"260 0 CURVE SMOOTH"
);
}
);
width = 602;
}
);
leftKerningGroup = o;
leftMetricsKey = o;
rightKerningGroup = o;
rightMetricsKey = o;
unicode = 0065;
},
{
color = 4;
glyphname = f;
lastChange = "2016-07-31 01:33:46 +0000";
layers = (
{
layerId = "D7F5B317-FDDE-425C-99B8-2570E6EC45B4";
paths = (
{
closed = 1;
nodes = (
"154 26 CURVE SMOOTH",
"154 516 LINE",
"154 610 OFFCURVE",
"185 641 OFFCURVE",
"279 641 CURVE SMOOTH",
"295 641 OFFCURVE",
"304 650 OFFCURVE",
"304 667 CURVE SMOOTH",
"304 684 OFFCURVE",
"295 693 OFFCURVE",
"279 693 CURVE SMOOTH",
"156 693 OFFCURVE",
"102 639 OFFCURVE",
"102 516 CURVE SMOOTH",
"102 26 LINE SMOOTH",
"102 9 OFFCURVE",
"111 0 OFFCURVE",
"128 0 CURVE SMOOTH",
"145 0 OFFCURVE",
"154 9 OFFCURVE"
);
},
{
closed = 1;
nodes = (
"278 420 LINE SMOOTH",
"295 420 OFFCURVE",
"304 429 OFFCURVE",
"304 446 CURVE SMOOTH",
"304 463 OFFCURVE",
"295 472 OFFCURVE",
"278 472 CURVE SMOOTH",
"59 472 LINE SMOOTH",
"42 472 OFFCURVE",
"33 463 OFFCURVE",
"33 446 CURVE SMOOTH",
"33 429 OFFCURVE",
"42 420 OFFCURVE",
"59 420 CURVE SMOOTH"
);
}
);
width = 327;
}
);
leftKerningGroup = f;
rightKerningGroup = f;
unicode = 0066;
},
{
color = 4;
glyphname = g;
lastChange = "2016-07-31 01:33:46 +0000";
layers = (
{
anchors = (
{
name = bottom;
position = "{296, -200}";
},
{
name = top;
position = "{304, 472}";
}
);
layerId = "D7F5B317-FDDE-425C-99B8-2570E6EC45B4";
paths = (
{
closed = 1;
nodes = (
"394 -200 LINE SMOOTH",
"482 -200 OFFCURVE",
"522 -160 OFFCURVE",
"522 -72 CURVE SMOOTH",
"522 446 LINE SMOOTH",
"522 463 OFFCURVE",
"513 472 OFFCURVE",
"496 472 CURVE SMOOTH",
"479 472 OFFCURVE",
"470 463 OFFCURVE",
"470 446 CURVE SMOOTH",
"470 -72 LINE SMOOTH",
"470 -131 OFFCURVE",
"453 -148 OFFCURVE",
"394 -148 CURVE SMOOTH",
"208 -148 LINE SMOOTH",
"159.008 -148 OFFCURVE",
"139 -136 OFFCURVE",
"134 -98 CURVE SMOOTH",
"130 -81 OFFCURVE",
"123 -72 OFFCURVE",
"107 -72 CURVE SMOOTH",
"89 -72 OFFCURVE",
"79 -82 OFFCURVE",
"82 -99 CURVE SMOOTH",
"89 -168 OFFCURVE",
"130 -200 OFFCURVE",
"208 -200 CURVE SMOOTH"
);
},
{
closed = 1;
nodes = (
"298 0 LINE SMOOTH",
"425 0 OFFCURVE",
"487 53 OFFCURVE",
"498 153 CURVE SMOOTH",
"499 168 OFFCURVE",
"505 176 OFFCURVE",
"495 176 CURVE SMOOTH",
"478 176 OFFCURVE",
"470 168 OFFCURVE",
"470 151 CURVE SMOOTH",
"470 84 OFFCURVE",
"402 52 OFFCURVE",
"298 52 CURVE SMOOTH",
"260 52 LINE SMOOTH",
"164 52 OFFCURVE",
"132 84 OFFCURVE",
"132 179 CURVE SMOOTH",
"132 292 LINE SMOOTH",
"132 389 OFFCURVE",
"164 421 OFFCURVE",
"260 420 CURVE SMOOTH",
"342 420 LINE SMOOTH",
"428 420 OFFCURVE",
"470 393 OFFCURVE",
"470 318 CURVE SMOOTH",
"470 301 OFFCURVE",
"479 292 OFFCURVE",
"495 292 CURVE SMOOTH",
"506 292 OFFCURVE",
"499 300 OFFCURVE",
"498 316 CURVE SMOOTH",
"491 423 OFFCURVE",
"451 472 OFFCURVE",
"342 472 CURVE SMOOTH",
"260 472 LINE SMOOTH",
"136 473 OFFCURVE",
"80 417 OFFCURVE",
"80 292 CURVE SMOOTH",
"80 179 LINE SMOOTH",
"80 55 OFFCURVE",
"136 0 OFFCURVE",
"260 0 CURVE SMOOTH"
);
}
);
width = 606;
}
);
leftKerningGroup = o;
leftMetricsKey = o;
rightKerningGroup = u;
rightMetricsKey = n;
unicode = 0067;
},
{
color = 4;
glyphname = h;
lastChange = "2016-07-31 01:33:46 +0000";
layers = (
{
anchors = (
{
name = bottom;
position = "{321, 0}";
},
{
name = center;
position = "{163, 574}";
},
{
name = top;
position = "{122, 682}";
}
);
layerId = "D7F5B317-FDDE-425C-99B8-2570E6EC45B4";
paths = (
{
closed = 1;
nodes = (
"525 26 CURVE SMOOTH",
"525 293 LINE SMOOTH",
"525 417 OFFCURVE",
"470 473 OFFCURVE",
"345 473 CURVE SMOOTH",
"317 473 LINE SMOOTH",
"193 473 OFFCURVE",
"120 421 OFFCURVE",
"108 323 CURVE SMOOTH",
"107 306 OFFCURVE",
"112 297 OFFCURVE",
"120 297 CURVE SMOOTH",
"137 297 OFFCURVE",
"145 305 OFFCURVE",
"147 321 CURVE SMOOTH",
"158 388 OFFCURVE",
"213 421 OFFCURVE",
"317 421 CURVE SMOOTH",
"345 421 LINE SMOOTH",
"441 421 OFFCURVE",
"473 388 OFFCURVE",
"473 293 CURVE SMOOTH",
"473 26 LINE SMOOTH",
"473 9 OFFCURVE",
"482 0 OFFCURVE",
"499 0 CURVE SMOOTH",
"516 0 OFFCURVE",
"525 9 OFFCURVE"
);
},
{
closed = 1;
nodes = (
"145 26 CURVE SMOOTH",
"145 667 LINE SMOOTH",
"145 684 OFFCURVE",
"136 693 OFFCURVE",
"119 693 CURVE SMOOTH",
"102 693 OFFCURVE",
"93 684 OFFCURVE",
"93 667 CURVE SMOOTH",
"93 26 LINE SMOOTH",
"93 9 OFFCURVE",
"102 0 OFFCURVE",
"119 0 CURVE SMOOTH",
"136 0 OFFCURVE",
"145 9 OFFCURVE"
);
}
);
width = 609;
}
);
leftKerningGroup = h;
leftMetricsKey = n;
rightKerningGroup = n;
rightMetricsKey = n;
unicode = 0068;
},
{
color = 4;
glyphname = idotless;
lastChange = "2016-07-31 01:37:05 +0000";
layers = (
{
anchors = (
{
name = bottom;
position = "{119, 0}";
},
{
name = ogonek;
position = "{113, 2}";
},
{
name = top;
position = "{119, 472}";
}
);
layerId = "D7F5B317-FDDE-425C-99B8-2570E6EC45B4";
paths = (
{
closed = 1;
nodes = (
"136 0 OFFCURVE",
"145 9 OFFCURVE",
"145 26 CURVE SMOOTH",
"145 446 LINE SMOOTH",
"145 463 OFFCURVE",
"136 472 OFFCURVE",
"119 472 CURVE SMOOTH",
"103 472 OFFCURVE",
"93 463 OFFCURVE",
"93 446 CURVE SMOOTH",
"93 26 LINE SMOOTH",
"93 9 OFFCURVE",
"103 0 OFFCURVE",
"119 0 CURVE SMOOTH"
);
}
);
width = 238;
}
);
leftKerningGroup = n;
leftMetricsKey = n;
rightKerningGroup = u;
rightMetricsKey = u;
unicode = 0131;
},
{
color = 4;
glyphname = jdotless;
lastChange = "2016-07-31 01:37:05 +0000";
layers = (
{
anchors = (
{
name = bottom;
position = "{37, -200}";
},
{
name = top;
position = "{119, 472}";
}
);
layerId = "D7F5B317-FDDE-425C-99B8-2570E6EC45B4";
paths = (
{
closed = 1;
nodes = (
"-18 -191 OFFCURVE",
"-7 -200 OFFCURVE",
"9 -200 CURVE SMOOTH",
"102 -200 OFFCURVE",
"145 -157 OFFCURVE",
"145 -64 CURVE SMOOTH",
"145 446 LINE SMOOTH",
"145 463 OFFCURVE",
"136 472 OFFCURVE",
"119 472 CURVE SMOOTH",
"102 472 OFFCURVE",
"93 463 OFFCURVE",
"93 446 CURVE SMOOTH",
"93 -64 LINE SMOOTH",
"93 -128 OFFCURVE",
"73 -148 OFFCURVE",
"9 -148 CURVE SMOOTH",
"-6 -148 OFFCURVE",
"-18 -157 OFFCURVE",
"-18 -174 CURVE SMOOTH"
);
}
);
width = 238;
}
);
leftKerningGroup = jdotless;
rightKerningGroup = jdotless;
rightMetricsKey = idotless;
unicode = 0237;
},
{
color = 4;
glyphname = k;
lastChange = "2016-07-31 01:33:46 +0000";
layers = (
{
anchors = (
{
name = bottom;
position = "{238, 0}";
},
{
name = top;
position = "{119, 693}";
}
);
layerId = "D7F5B317-FDDE-425C-99B8-2570E6EC45B4";
paths = (
{
closed = 1;
nodes = (
"433 430 LINE SMOOTH",
"446 442 OFFCURVE",
"447 454 OFFCURVE",
"436 467 CURVE SMOOTH",
"425 480 OFFCURVE",
"412 481 OFFCURVE",
"399 470 CURVE SMOOTH",
"107 219 LINE SMOOTH",
"94 208 OFFCURVE",
"93 195 OFFCURVE",
"105 182 CURVE SMOOTH",
"116 169 OFFCURVE",
"128 168 OFFCURVE",
"141 179 CURVE SMOOTH"
);
},
{
closed = 1;
nodes = (
"145 26 CURVE SMOOTH",
"145 667 LINE SMOOTH",
"145 684 OFFCURVE",
"136 693 OFFCURVE",
"119 693 CURVE SMOOTH",
"102 693 OFFCURVE",
"93 684 OFFCURVE",
"93 667 CURVE SMOOTH",
"93 26 LINE SMOOTH",
"93 9 OFFCURVE",
"102 0 OFFCURVE",
"119 0 CURVE SMOOTH",
"136 0 OFFCURVE",
"145 9 OFFCURVE"
);
},
{
closed = 1;
nodes = (
"450 45 CURVE SMOOTH",
"248 272 LINE SMOOTH",
"237 285 OFFCURVE",
"224 286 OFFCURVE",
"212 275 CURVE SMOOTH",
"199 264 OFFCURVE",
"198 251 OFFCURVE",
"209 238 CURVE SMOOTH",
"411 10 LINE SMOOTH",
"422 -2 OFFCURVE",
"435 -3 OFFCURVE",
"447 8 CURVE SMOOTH",
"460 19 OFFCURVE",
"461 32 OFFCURVE"
);
}
);
width = 478;
}
);
leftKerningGroup = h;
leftMetricsKey = n;
rightKerningGroup = k;
unicode = 006B;
},
{
color = 4;
glyphname = kgreenlandic;
lastChange = "2016-07-31 01:33:46 +0000";
layers = (
{
anchors = (
{
name = bottom;
position = "{248, 0}";
},
{
name = top;
position = "{250, 472}";
}
);
layerId = "D7F5B317-FDDE-425C-99B8-2570E6EC45B4";
paths = (
{
closed = 1;
nodes = (
"433 431 LINE SMOOTH",
"446 442 OFFCURVE",
"447 454 OFFCURVE",
"436 467 CURVE SMOOTH",
"425 480 OFFCURVE",
"412 481 OFFCURVE",
"399 470 CURVE SMOOTH",
"107 219 LINE SMOOTH",
"94 208 OFFCURVE",
"93 195 OFFCURVE",
"105 182 CURVE SMOOTH",
"116 169 OFFCURVE",
"128 168 OFFCURVE",
"141 179 CURVE SMOOTH"
);
},
{
closed = 1;
nodes = (
"136 0 OFFCURVE",
"145 9 OFFCURVE",
"145 26 CURVE SMOOTH",
"145 446 LINE SMOOTH",
"145 463 OFFCURVE",
"136 472 OFFCURVE",
"119 472 CURVE SMOOTH",
"102 472 OFFCURVE",
"93 463 OFFCURVE",
"93 446 CURVE SMOOTH",
"93 26 LINE SMOOTH",
"93 9 OFFCURVE",
"103 0 OFFCURVE",
"119 0 CURVE SMOOTH"
);
},
{
closed = 1;
nodes = (
"460 19 OFFCURVE",
"461 32 OFFCURVE",
"449 45 CURVE SMOOTH",
"248 272 LINE SMOOTH",
"237 285 OFFCURVE",
"224 286 OFFCURVE",
"212 275 CURVE SMOOTH",
"199 264 OFFCURVE",
"198 251 OFFCURVE",
"209 238 CURVE SMOOTH",
"410 10 LINE SMOOTH",
"422 -2 OFFCURVE",
"435 -3 OFFCURVE",
"447 8 CURVE SMOOTH"
);
}
);
width = 478;
}
);
leftKerningGroup = n;
leftMetricsKey = n;
rightKerningGroup = k;
rightMetricsKey = k;
unicode = 0138;
},
{
color = 4;
glyphname = l;
lastChange = "2016-07-31 01:33:46 +0000";
layers = (
{
anchors = (
{
name = bottom;
position = "{187, 0}";
},
{
name = center;
position = "{136, 346}";
},
{
name = top;
position = "{119, 693}";
},
{
name = topright;
position = "{190, 472}";
}
);
layerId = "D7F5B317-FDDE-425C-99B8-2570E6EC45B4";
paths = (
{
closed = 1;
nodes = (
"257 26 CURVE SMOOTH",
"257 43 OFFCURVE",
"248 52 OFFCURVE",
"230 52 CURVE SMOOTH",
"165 52 OFFCURVE",
"145 71 OFFCURVE",
"145 136 CURVE SMOOTH",
"145 667 LINE SMOOTH",
"145 684 OFFCURVE",
"136 693 OFFCURVE",
"119 693 CURVE SMOOTH",
"102 693 OFFCURVE",
"93 684 OFFCURVE",
"93 667 CURVE SMOOTH",
"93 136 LINE SMOOTH",
"93 42 OFFCURVE",
"136 0 OFFCURVE",
"231 0 CURVE SMOOTH",
"247 0 OFFCURVE",
"257 9 OFFCURVE"
);
}
);
width = 290;
}
);
leftKerningGroup = h;
leftMetricsKey = n;
rightKerningGroup = l;
unicode = 006C;
},
{
color = 4;
glyphname = lslash;
lastChange = "2016-07-31 01:33:46 +0000";
layers = (
{
anchors = (
{
name = _center;
position = "{127, 346}";
}
);
components = (
{
name = l;
}
);
layerId = "D7F5B317-FDDE-425C-99B8-2570E6EC45B4";
paths = (
{
closed = 1;
nodes = (
"24 240 OFFCURVE",
"28 241 OFFCURVE",
"32 244 CURVE SMOOTH",
"242 401 LINE SMOOTH",
"249 406 OFFCURVE",
"252 412 OFFCURVE",
"252 420 CURVE SMOOTH",
"252 432 OFFCURVE",
"242 442 OFFCURVE",
"229 442 CURVE SMOOTH",
"224 442 OFFCURVE",
"220 441 OFFCURVE",
"215 438 CURVE SMOOTH",
"5 281 LINE SMOOTH",
"-1 276 OFFCURVE",
"-4 270 OFFCURVE",
"-4 262 CURVE SMOOTH",
"-4 250 OFFCURVE",
"6 240 OFFCURVE",
"18 240 CURVE SMOOTH"
);
}
);
width = 292;
}
);
leftKerningGroup = hbar;
rightKerningGroup = l;
unicode = 0142;
},
{
color = 4;
glyphname = m;
lastChange = "2016-07-31 01:33:46 +0000";
layers = (
{
anchors = (
{
name = bottom;
position = "{429, 0}";
},
{
name = top;
position = "{435, 472}";
}
);
layerId = "D7F5B317-FDDE-425C-99B8-2570E6EC45B4";
paths = (
{
closed = 1;
nodes = (
"145 25 CURVE SMOOTH",
"145 297 LINE SMOOTH",
"145 385 OFFCURVE",
"180 421 OFFCURVE",
"267 421 CURVE SMOOTH",
"309 421 LINE SMOOTH",
"379 421 OFFCURVE",
"407 385 OFFCURVE",
"407 297 CURVE SMOOTH",
"407 25 LINE SMOOTH",
"407 8 OFFCURVE",
"415 -1 OFFCURVE",
"433 -1 CURVE SMOOTH",
"450 -1 OFFCURVE",
"459 8 OFFCURVE",
"459 25 CURVE SMOOTH",
"459 297 LINE SMOOTH",
"459 385 OFFCURVE",
"493 421 OFFCURVE",
"581 421 CURVE SMOOTH",
"622 421 LINE SMOOTH",
"692 421 OFFCURVE",
"720 385 OFFCURVE",
"720 297 CURVE SMOOTH",
"720 25 LINE SMOOTH",
"720 8 OFFCURVE",
"729 -1 OFFCURVE",
"746 -1 CURVE SMOOTH",
"763 -1 OFFCURVE",
"772 8 OFFCURVE",
"772 25 CURVE SMOOTH",
"772 297 LINE SMOOTH",
"772 422 OFFCURVE",
"729 473 OFFCURVE",
"622 473 CURVE SMOOTH",
"581 473 LINE SMOOTH",
"503 473 OFFCURVE",
"462 444 OFFCURVE",
"435 373 CURVE",
"449 383 LINE",
"424 447 OFFCURVE",
"384 473 OFFCURVE",
"309 473 CURVE SMOOTH",
"274 473 LINE SMOOTH",
"212 473 OFFCURVE",
"174 454 OFFCURVE",
"145 407 CURVE",
"145 446 LINE SMOOTH",
"145 463 OFFCURVE",
"136 472 OFFCURVE",
"119 472 CURVE SMOOTH",
"102 472 OFFCURVE",
"93 463 OFFCURVE",
"93 446 CURVE SMOOTH",
"93 25 LINE SMOOTH",
"93 8 OFFCURVE",
"102 -1 OFFCURVE",
"119 -1 CURVE SMOOTH",
"137 -1 OFFCURVE",
"145 8 OFFCURVE"
);
}
);
width = 856;
}
);
leftKerningGroup = n;
leftMetricsKey = n;
rightKerningGroup = n;
rightMetricsKey = n;
unicode = 006D;
},
{
color = 4;
glyphname = n;
lastChange = "2016-07-31 01:33:46 +0000";
layers = (
{
anchors = (
{
name = bottom;
position = "{337, 0}";
},
{
name = top;
position = "{330, 472}";
}
);
layerId = "D7F5B317-FDDE-425C-99B8-2570E6EC45B4";
paths = (
{
closed = 1;
nodes = (
"525 26 CURVE SMOOTH",
"525 292 LINE SMOOTH",
"525 416 OFFCURVE",
"470 472 OFFCURVE",
"345 472 CURVE SMOOTH",
"317 472 LINE SMOOTH",
"199 472 OFFCURVE",
"129 419 OFFCURVE",
"118 319 CURVE SMOOTH",
"118 304 OFFCURVE",
"119 296 OFFCURVE",
"120 296 CURVE SMOOTH",
"137 296 OFFCURVE",
"145 304 OFFCURVE",
"146 321 CURVE SMOOTH",
"152 387 OFFCURVE",
"213 420 OFFCURVE",
"317 420 CURVE SMOOTH",
"345 420 LINE SMOOTH",
"441 420 OFFCURVE",
"473 388 OFFCURVE",
"473 292 CURVE SMOOTH",
"473 26 LINE SMOOTH",
"473 9 OFFCURVE",
"482 0 OFFCURVE",
"499 0 CURVE SMOOTH",
"516 0 OFFCURVE",
"525 9 OFFCURVE"
);
},
{
closed = 1;
nodes = (
"145 26 CURVE SMOOTH",
"145 446 LINE SMOOTH",
"145 463 OFFCURVE",
"136 472 OFFCURVE",
"119 472 CURVE SMOOTH",
"102 472 OFFCURVE",
"93 463 OFFCURVE",
"93 446 CURVE SMOOTH",
"93 26 LINE SMOOTH",
"93 9 OFFCURVE",
"102 0 OFFCURVE",
"119 0 CURVE SMOOTH",
"136 0 OFFCURVE",
"145 9 OFFCURVE"
);
}
);
width = 609;
}
);
leftKerningGroup = n;
rightKerningGroup = n;
unicode = 006E;
},
{
color = 4;
glyphname = eng;
lastChange = "2016-07-31 01:33:46 +0000";
layers = (
{
components = (
{
name = n;
}
);
layerId = "D7F5B317-FDDE-425C-99B8-2570E6EC45B4";
paths = (
{
closed = 1;
nodes = (
"397 -202 LINE SMOOTH",
"485 -202 OFFCURVE",
"525 -162 OFFCURVE",
"525 -73 CURVE SMOOTH",
"525 170 LINE SMOOTH",
"525 187 OFFCURVE",
"516 196 OFFCURVE",
"499 196 CURVE SMOOTH",
"482 196 OFFCURVE",
"473 187 OFFCURVE",
"473 170 CURVE SMOOTH",
"473 -73 LINE SMOOTH",
"473 -133 OFFCURVE",
"456 -150 OFFCURVE",
"397 -150 CURVE SMOOTH",
"301 -150 LINE SMOOTH",
"248 -150 OFFCURVE",
"229 -135 OFFCURVE",
"226 -85 CURVE SMOOTH",
"224 -68 OFFCURVE",
"217 -59 OFFCURVE",
"200 -59 CURVE SMOOTH",
"182 -59 OFFCURVE",
"173 -69 OFFCURVE",
"174 -86 CURVE SMOOTH",
"178 -166 OFFCURVE",
"218 -202 OFFCURVE",
"301 -202 CURVE SMOOTH"
);
}
);
width = 609;
}
);
leftKerningGroup = n;
rightKerningGroup = j;
unicode = 014B;
},
{
color = 4;
glyphname = o;
lastChange = "2016-07-31 01:33:46 +0000";
layers = (
{
anchors = (
{
name = bottom;
position = "{301, 0}";
},
{
name = center;
position = "{301, 236}";
},
{
name = ogonek;
position = "{464, 41}";
},
{
name = top;
position = "{301, 472}";
},
{
name = topright;
position = "{459, 438}";
}
);
layerId = "D7F5B317-FDDE-425C-99B8-2570E6EC45B4";
paths = (
{
closed = 1;
nodes = (
"342 0 LINE SMOOTH",
"467 0 OFFCURVE",
"522 55 OFFCURVE",
"522 180 CURVE SMOOTH",
"522 292 LINE SMOOTH",
"522 417 OFFCURVE",
"467 472 OFFCURVE",
"342 472 CURVE SMOOTH",
"260 472 LINE SMOOTH",
"135 473 OFFCURVE",
"80 418 OFFCURVE",
"80 292 CURVE SMOOTH",
"80 179 LINE SMOOTH",
"80 55 OFFCURVE",
"135 0 OFFCURVE",
"260 0 CURVE SMOOTH"
);
},
{
closed = 1;
nodes = (
"132 179 CURVE SMOOTH",
"132 292 LINE SMOOTH",
"132 388 OFFCURVE",
"165 421 OFFCURVE",
"260 420 CURVE SMOOTH",
"342 420 LINE SMOOTH",
"437 420 OFFCURVE",
"470 387 OFFCURVE",
"470 292 CURVE SMOOTH",
"470 180 LINE SMOOTH",
"470 85 OFFCURVE",
"437 52 OFFCURVE",
"342 52 CURVE SMOOTH",
"260 52 LINE SMOOTH",
"165 52 OFFCURVE",
"132 85 OFFCURVE"
);
}
);
width = 602;
}
);
leftKerningGroup = o;
rightKerningGroup = o;
unicode = 006F;
},
{
color = 4;
glyphname = oslash;
lastChange = "2016-07-31 01:33:47 +0000";
layers = (
{
anchors = (
{
name = top;
position = "{301, 472}";
}
);
components = (
{
name = o;
}
);
layerId = "D7F5B317-FDDE-425C-99B8-2570E6EC45B4";
paths = (
{
closed = 1;
nodes = (
"133 -69 OFFCURVE",
"143 -66 OFFCURVE",
"151 -54 CURVE SMOOTH",
"197 22 LINE",
"204 33 LINE",
"439 415 LINE",
"446 425 LINE",
"483 485 LINE SMOOTH",
"493 501 OFFCURVE",
"489 514 OFFCURVE",
"471 521 CURVE SMOOTH",
"459 527 OFFCURVE",
"449 524 OFFCURVE",
"441 512 CURVE SMOOTH",
"402 447 LINE",
"397 438 LINE",
"158 49 LINE",
"151 41 LINE",
"109 -27 LINE SMOOTH",
"99 -43 OFFCURVE",
"103 -57 OFFCURVE",
"120 -63 CURVE SMOOTH"
);
}
);
width = 602;
}
);
leftKerningGroup = o;
rightKerningGroup = o;
unicode = 00F8;
},
{
color = 4;
glyphname = oe;
lastChange = "2016-07-31 01:33:47 +0000";
layers = (
{
anchors = (
{
name = bottom;
position = "{466, 0}";
},
{
name = top;
position = "{466, 472}";
}
);
layerId = "D7F5B317-FDDE-425C-99B8-2570E6EC45B4";
paths = (
{
closed = 1;
nodes = (
"312 -4 LINE SMOOTH",
"388 -4 OFFCURVE",
"438 17 OFFCURVE",
"466 69 CURVE",
"493 17 OFFCURVE",
"542 -4 OFFCURVE",
"615 -4 CURVE SMOOTH",
"676 -4 LINE SMOOTH",
"797 -4 OFFCURVE",
"852 39 OFFCURVE",
"852 137 CURVE SMOOTH",
"852 152 OFFCURVE",
"841 163 OFFCURVE",
"826 163 CURVE SMOOTH",
"811 163 OFFCURVE",
"800 152 OFFCURVE",
"800 137 CURVE SMOOTH",
"800 71 OFFCURVE",
"770 48 OFFCURVE",
"676 48 CURVE SMOOTH",
"615 48 LINE SMOOTH",
"524 48 OFFCURVE",
"492 81 OFFCURVE",
"492 178 CURVE SMOOTH",
"492 236 LINE",
"826 236 LINE SMOOTH",
"842 236 OFFCURVE",
"852 245 OFFCURVE",
"852 262 CURVE SMOOTH",
"852 404 OFFCURVE",
"798 467 OFFCURVE",
"676 467 CURVE SMOOTH",
"616 467 LINE SMOOTH",
"542 468 OFFCURVE",
"492 447 OFFCURVE",
"466 395 CURVE",
"438 446 OFFCURVE",
"388 467 OFFCURVE",
"312 467 CURVE SMOOTH",
"260 467 LINE SMOOTH",
"135 468 OFFCURVE",
"80 413 OFFCURVE",
"80 287 CURVE SMOOTH",
"80 175 LINE SMOOTH",
"80 51 OFFCURVE",
"135 -4 OFFCURVE",
"260 -4 CURVE SMOOTH"
);
},
{
closed = 1;
nodes = (
"165 48 OFFCURVE",
"132 81 OFFCURVE",
"132 175 CURVE SMOOTH",
"132 287 LINE SMOOTH",
"132 383 OFFCURVE",
"165 416 OFFCURVE",
"260 415 CURVE SMOOTH",
"312 415 LINE SMOOTH",
"407 415 OFFCURVE",
"440 382 OFFCURVE",
"440 287 CURVE SMOOTH",
"440 176 LINE SMOOTH",
"440 81 OFFCURVE",
"407 48 OFFCURVE",
"312 48 CURVE SMOOTH",
"260 48 LINE SMOOTH"
);
},
{
closed = 1;
nodes = (
"493 382 OFFCURVE",
"522 416 OFFCURVE",
"616 415 CURVE SMOOTH",
"676 415 LINE SMOOTH",
"760 415 OFFCURVE",
"794 382 OFFCURVE",
"800 288 CURVE",
"492 288 LINE"
);
}
);
width = 932;
}
);
leftKerningGroup = o;
leftMetricsKey = o;
rightKerningGroup = e;
rightMetricsKey = e;
unicode = 0153;
},
{
color = 4;
glyphname = p;
lastChange = "2016-07-31 01:33:47 +0000";
layers = (
{
anchors = (
{
name = bottom;
position = "{313, 0}";
},
{
name = bottomleft;
position = "{119, -200}";
},
{
name = center;
position = "{334, 239}";
},
{
name = top;
position = "{333, 472}";
}
);
layerId = "D7F5B317-FDDE-425C-99B8-2570E6EC45B4";
paths = (
{
closed = 1;
nodes = (
"355 0 LINE SMOOTH",
"480 0 OFFCURVE",
"535 55 OFFCURVE",
"535 180 CURVE SMOOTH",
"535 292 LINE SMOOTH",
"535 417 OFFCURVE",
"480 472 OFFCURVE",
"355 472 CURVE SMOOTH",
"317 472 LINE SMOOTH",
"191 472 OFFCURVE",
"130 420 OFFCURVE",
"118 323 CURVE SMOOTH",
"117 306 OFFCURVE",
"110 296 OFFCURVE",
"120 296 CURVE SMOOTH",
"137 296 OFFCURVE",
"145 304 OFFCURVE",
"146 320 CURVE SMOOTH",
"152 387 OFFCURVE",
"213 420 OFFCURVE",
"317 420 CURVE SMOOTH",
"355 420 LINE SMOOTH",
"451 420 OFFCURVE",
"483 387 OFFCURVE",
"483 292 CURVE SMOOTH",
"483 180 LINE SMOOTH",
"483 85 OFFCURVE",
"451 52 OFFCURVE",
"355 52 CURVE SMOOTH",
"145 52 LINE SMOOTH",
"128 52 OFFCURVE",
"119 43 OFFCURVE",
"119 26 CURVE SMOOTH",
"119 9 OFFCURVE",
"128 0 OFFCURVE",
"145 0 CURVE SMOOTH"
);
},
{
closed = 1;
nodes = (
"145 -174 CURVE SMOOTH",
"145 446 LINE SMOOTH",
"145 463 OFFCURVE",
"136 472 OFFCURVE",
"119 472 CURVE SMOOTH",
"102 472 OFFCURVE",
"93 463 OFFCURVE",
"93 446 CURVE SMOOTH",
"93 -174 LINE SMOOTH",
"93 -191 OFFCURVE",
"102 -200 OFFCURVE",
"119 -200 CURVE SMOOTH",
"136 -200 OFFCURVE",
"145 -191 OFFCURVE"
);
}
);
width = 615;
}
);
leftKerningGroup = n;
leftMetricsKey = n;
rightKerningGroup = o;
rightMetricsKey = o;
unicode = 0070;
},
{
color = 4;
glyphname = thorn;
lastChange = "2016-07-31 01:33:47 +0000";
layers = (
{
layerId = "D7F5B317-FDDE-425C-99B8-2570E6EC45B4";
paths = (
{
closed = 1;
nodes = (
"137 -200 OFFCURVE",
"145 -192 OFFCURVE",
"145 -174 CURVE SMOOTH",
"145 1 LINE",
"355 1 LINE SMOOTH",
"480 1 OFFCURVE",
"535 56 OFFCURVE",
"535 181 CURVE SMOOTH",
"535 292 LINE SMOOTH",
"535 417 OFFCURVE",
"480 472 OFFCURVE",
"355 472 CURVE SMOOTH",
"317 472 LINE SMOOTH",
"241 472 OFFCURVE",
"183 447 OFFCURVE",
"145 398 CURVE",
"145 628 LINE SMOOTH",
"145 646 OFFCURVE",
"137 654 OFFCURVE",
"119 654 CURVE SMOOTH",
"101 654 OFFCURVE",
"93 646 OFFCURVE",
"93 628 CURVE SMOOTH",
"93 -174 LINE SMOOTH",
"93 -192 OFFCURVE",
"101 -200 OFFCURVE",
"119 -200 CURVE SMOOTH"
);
},
{
closed = 1;
nodes = (
"145 296 LINE SMOOTH",
"145 379 OFFCURVE",
"201 420 OFFCURVE",
"317 420 CURVE SMOOTH",
"355 420 LINE SMOOTH",
"451 420 OFFCURVE",
"483 387 OFFCURVE",
"483 292 CURVE SMOOTH",
"483 181 LINE SMOOTH",
"483 86 OFFCURVE",
"451 53 OFFCURVE",
"355 53 CURVE SMOOTH",
"145 53 LINE"
);
}
);
width = 615;
}
);
leftKerningGroup = h;
leftMetricsKey = h;
rightKerningGroup = o;
rightMetricsKey = o;
unicode = 00FE;
},
{
color = 4;
glyphname = q;
lastChange = "2016-07-31 01:33:47 +0000";
layers = (
{
anchors = (
{
name = bottom;
position = "{298, 0}";
},
{
name = top;
position = "{298, 472}";
}
);
layerId = "D7F5B317-FDDE-425C-99B8-2570E6EC45B4";
paths = (
{
closed = 1;
nodes = (
"80 292 CURVE SMOOTH",
"80 180 LINE SMOOTH",
"80 56 OFFCURVE",
"136 0 OFFCURVE",
"260 0 CURVE SMOOTH",
"470 0 LINE SMOOTH",
"487 0 OFFCURVE",
"496 9 OFFCURVE",
"496 26 CURVE SMOOTH",
"496 43 OFFCURVE",
"487 52 OFFCURVE",
"470 52 CURVE SMOOTH",
"260 52 LINE SMOOTH",
"164 52 OFFCURVE",
"132 84 OFFCURVE",
"132 180 CURVE SMOOTH",
"132 292 LINE SMOOTH",
"132 388 OFFCURVE",
"164 420 OFFCURVE",
"260 420 CURVE SMOOTH",
"298 420 LINE SMOOTH",
"402 420 OFFCURVE",
"470 387 OFFCURVE",
"470 321 CURVE SMOOTH",
"470 304 OFFCURVE",
"478 296 OFFCURVE",
"494.995 296 CURVE SMOOTH",
"513 296 OFFCURVE",
"495 302 OFFCURVE",
"494 319 CURVE SMOOTH",
"487 417 OFFCURVE",
"431 472 OFFCURVE",
"298 472 CURVE SMOOTH",
"260 472 LINE SMOOTH",
"135 472 OFFCURVE",
"80 417 OFFCURVE"
);
},
{
closed = 1;
nodes = (
"470 446 CURVE SMOOTH",
"470 -174 LINE SMOOTH",
"470 -191 OFFCURVE",
"479 -200 OFFCURVE",
"496 -200 CURVE SMOOTH",
"513 -200 OFFCURVE",
"522 -191 OFFCURVE",
"522 -174 CURVE SMOOTH",
"522 446 LINE SMOOTH",
"522 463 OFFCURVE",
"513 472 OFFCURVE",
"496 472 CURVE SMOOTH",
"479 472 OFFCURVE",
"470 463 OFFCURVE"
);
}
);
width = 606;
}
);
leftKerningGroup = o;
leftMetricsKey = o;
rightKerningGroup = q;
rightMetricsKey = n;
unicode = 0071;
},
{
color = 4;
glyphname = r;
lastChange = "2016-07-31 01:33:47 +0000";
layers = (
{
anchors = (
{
name = bottom;
position = "{120, -1}";
},
{
name = top;
position = "{226, 472}";
}
);
layerId = "D7F5B317-FDDE-425C-99B8-2570E6EC45B4";
paths = (
{
closed = 1;
nodes = (
"146 262 CURVE SMOOTH",
"151 363 OFFCURVE",
"218 420 OFFCURVE",
"338 420 CURVE SMOOTH",
"355 420 OFFCURVE",
"364 429 OFFCURVE",
"364 446 CURVE SMOOTH",
"364 463 OFFCURVE",
"356 472 OFFCURVE",
"338 472 CURVE SMOOTH",
"207 472 OFFCURVE",
"127 394 OFFCURVE",
"117 259 CURVE SMOOTH",
"117 244 OFFCURVE",
"118 236 OFFCURVE",
"119 236 CURVE SMOOTH",
"136 236 OFFCURVE",
"145 245 OFFCURVE"
);
},
{
closed = 1;
nodes = (
"145 26 CURVE SMOOTH",
"145 446 LINE SMOOTH",
"145 463 OFFCURVE",
"136 472 OFFCURVE",
"119 472 CURVE SMOOTH",
"102 472 OFFCURVE",
"93 463 OFFCURVE",
"93 446 CURVE SMOOTH",
"93 26 LINE SMOOTH",
"93 9 OFFCURVE",
"102 0 OFFCURVE",
"119 0 CURVE SMOOTH",
"136 0 OFFCURVE",
"145 9 OFFCURVE"
);
}
);
width = 376;
}
);
leftKerningGroup = n;
leftMetricsKey = n;
rightKerningGroup = r;
unicode = 0072;
},
{
color = 4;
glyphname = s;
lastChange = "2016-07-31 01:33:47 +0000";
layers = (
{
anchors = (
{
name = bottom;
position = "{278, 0}";
},
{
name = top;
position = "{278, 472}";
}
);
layerId = "D7F5B317-FDDE-425C-99B8-2570E6EC45B4";
paths = (
{
closed = 1;
nodes = (
"360 1 LINE SMOOTH",
"452 1 OFFCURVE",
"494 43 OFFCURVE",
"494 135 CURVE SMOOTH",
"494 226 OFFCURVE",
"452 269 OFFCURVE",
"360 269 CURVE SMOOTH",
"199 269 LINE SMOOTH",
"140 269 OFFCURVE",
"122 287 OFFCURVE",
"122 344 CURVE SMOOTH",
"122 403 OFFCURVE",
"140 421 OFFCURVE",
"199 421 CURVE SMOOTH",
"355 421 LINE SMOOTH",
"403 421 OFFCURVE",
"423 408 OFFCURVE",
"428 371 CURVE SMOOTH",
"432 354 OFFCURVE",
"439 346 OFFCURVE",
"456 346 CURVE SMOOTH",
"473 346 OFFCURVE",
"483 356 OFFCURVE",
"481 373 CURVE SMOOTH",
"473 440 OFFCURVE",
"432 473 OFFCURVE",
"355 473 CURVE SMOOTH",
"199 473 LINE SMOOTH",
"111 473 OFFCURVE",
"70 432 OFFCURVE",
"70 344 CURVE SMOOTH",
"70 257 OFFCURVE",
"112 217 OFFCURVE",
"199 217 CURVE SMOOTH",
"360 217 LINE SMOOTH",
"423 217 OFFCURVE",
"442 197 OFFCURVE",
"442 135 CURVE SMOOTH",
"442 72 OFFCURVE",
"423 53 OFFCURVE",
"360 53 CURVE SMOOTH",
"196 53 LINE SMOOTH",
"144 53 OFFCURVE",
"122 67 OFFCURVE",
"116 109 CURVE SMOOTH",
"113 126 OFFCURVE",
"106 135 OFFCURVE",
"89 135 CURVE SMOOTH",
"72 135 OFFCURVE",
"62 125 OFFCURVE",
"64 107 CURVE SMOOTH",
"72 35 OFFCURVE",
"114 1 OFFCURVE",
"196 1 CURVE SMOOTH"
);
}
);
width = 558;
}
);
leftKerningGroup = s;
rightKerningGroup = s;
unicode = 0073;
},
{
color = 4;
glyphname = germandbls;
lastChange = "2016-07-31 01:33:47 +0000";
layers = (
{
layerId = "D7F5B317-FDDE-425C-99B8-2570E6EC45B4";
paths = (
{
closed = 1;
nodes = (
"137 1 OFFCURVE",
"145 9 OFFCURVE",
"145 27 CURVE SMOOTH",
"145 524 LINE SMOOTH",
"145 612 OFFCURVE",
"175 641 OFFCURVE",
"262 641 CURVE SMOOTH",
"349 641 OFFCURVE",
"378 612 OFFCURVE",
"378 525 CURVE SMOOTH",
"378 448 OFFCURVE",
"355 416 OFFCURVE",
"288 411 CURVE SMOOTH",
"271 409 OFFCURVE",
"262 400 OFFCURVE",
"262 384 CURVE SMOOTH",
"262 366 OFFCURVE",
"271 357 OFFCURVE",
"288 357 CURVE SMOOTH",
"312 357 LINE SMOOTH",
"407 357 OFFCURVE",
"438 326 OFFCURVE",
"438 231 CURVE SMOOTH",
"438 179 LINE SMOOTH",
"438 84 OFFCURVE",
"407 53 OFFCURVE",
"312 53 CURVE SMOOTH",
"251 53 LINE SMOOTH",
"234 53 OFFCURVE",
"225 44 OFFCURVE",
"225 27 CURVE SMOOTH",
"225 9 OFFCURVE",
"234 1 OFFCURVE",
"251 1 CURVE SMOOTH",
"312 1 LINE SMOOTH",
"436 1 OFFCURVE",
"490 55 OFFCURVE",
"490 179 CURVE SMOOTH",
"490 231 LINE SMOOTH",
"490 325 OFFCURVE",
"453 375 OFFCURVE",
"364 394 CURVE",
"411 422 OFFCURVE",
"430 468 OFFCURVE",
"430 525 CURVE SMOOTH",
"430 641 OFFCURVE",
"378 693 OFFCURVE",
"262 693 CURVE SMOOTH",
"146 693 OFFCURVE",
"93 641 OFFCURVE",
"93 524 CURVE SMOOTH",
"93 27 LINE SMOOTH",
"93 9 OFFCURVE",
"102 1 OFFCURVE",
"119 1 CURVE SMOOTH"
);
}
);
width = 534;
}
);
leftKerningGroup = h;
leftMetricsKey = n;
rightKerningGroup = germandbls;
unicode = 00DF;
},
{
color = 4;
glyphname = t;
lastChange = "2016-07-31 01:33:47 +0000";
layers = (
{
anchors = (
{
name = bottom;
position = "{192, 0}";
},
{
name = center;
position = "{172, 311}";
},
{
name = top;
position = "{135, 606}";
},
{
name = topright;
position = "{212, 472}";
}
);
layerId = "D7F5B317-FDDE-425C-99B8-2570E6EC45B4";
paths = (
{
closed = 1;
nodes = (
"313 26 CURVE SMOOTH",
"313 43 OFFCURVE",
"305 52 OFFCURVE",
"286 52 CURVE SMOOTH",
"192 52 OFFCURVE",
"161 83 OFFCURVE",
"161 176 CURVE",
"161 580 LINE SMOOTH",
"161 597 OFFCURVE",
"152 606 OFFCURVE",
"135 606 CURVE SMOOTH",
"118 606 OFFCURVE",
"109 597 OFFCURVE",
"109 580 CURVE SMOOTH",
"109 176 LINE SMOOTH",
"109 54 OFFCURVE",
"163 0 OFFCURVE",
"286 0 CURVE SMOOTH",
"304 0 OFFCURVE",
"313 9 OFFCURVE"
);
},
{
closed = 1;
nodes = (
"287 420 LINE SMOOTH",
"304 420 OFFCURVE",
"313 429 OFFCURVE",
"313 446 CURVE SMOOTH",
"313 463 OFFCURVE",
"304 472 OFFCURVE",
"287 472 CURVE SMOOTH",
"49 472 LINE SMOOTH",
"32 472 OFFCURVE",
"23 463 OFFCURVE",
"23 446 CURVE SMOOTH",
"23 429 OFFCURVE",
"32 420 OFFCURVE",
"49 420 CURVE SMOOTH"
);
}
);
width = 357;
}
);
leftKerningGroup = t;
rightKerningGroup = t;
unicode = 0074;
},
{
color = 4;
glyphname = tbar;
lastChange = "2016-07-31 01:33:47 +0000";
layers = (
{
components = (
{
name = t;
}
);
layerId = "D7F5B317-FDDE-425C-99B8-2570E6EC45B4";
paths = (
{
closed = 1;
nodes = (
"288 287 LINE SMOOTH",
"304 287 OFFCURVE",
"313 295 OFFCURVE",
"313 311 CURVE SMOOTH",
"313 327 OFFCURVE",
"304 335 OFFCURVE",
"288 335 CURVE SMOOTH",
"48 335 LINE SMOOTH",
"32 335 OFFCURVE",
"23 327 OFFCURVE",
"23 311 CURVE SMOOTH",
"23 295 OFFCURVE",
"32 287 OFFCURVE",
"48 287 CURVE SMOOTH"
);
}
);
width = 347;
}
);
leftKerningGroup = t;
rightKerningGroup = t;
unicode = 0167;
},
{
color = 4;
glyphname = v;
lastChange = "2016-07-31 01:33:47 +0000";
layers = (
{
anchors = (
{
name = bottom;
position = "{246, 0}";
},
{
name = top;
position = "{250, 472}";
}
);
layerId = "D7F5B317-FDDE-425C-99B8-2570E6EC45B4";
paths = (
{
closed = 1;
nodes = (
"275 20 CURVE SMOOTH",
"473 435 LINE SMOOTH",
"480 450 OFFCURVE",
"475 463 OFFCURVE",
"460 469 CURVE SMOOTH",
"444 476 OFFCURVE",
"432 471 OFFCURVE",
"425 456 CURVE SMOOTH",
"228 41 LINE",
"260 41 LINE",
"74 456 LINE SMOOTH",
"68 471 OFFCURVE",
"55 476 OFFCURVE",
"40 469 CURVE SMOOTH",
"24 463 OFFCURVE",
"20 451 OFFCURVE",
"26 436 CURVE SMOOTH",
"212 20 LINE SMOOTH",
"218 6 OFFCURVE",
"227 0 OFFCURVE",
"243 0 CURVE SMOOTH",
"257 0 OFFCURVE",
"267 4 OFFCURVE"
);
}
);
width = 500;
}
);
leftKerningGroup = v;
rightKerningGroup = v;
unicode = 0076;
},
{
color = 4;
glyphname = w;
lastChange = "2016-07-31 01:33:47 +0000";
layers = (
{
anchors = (
{
name = bottom;
position = "{350, 0}";
},
{
name = top;
position = "{351, 472}";
}
);
layerId = "D7F5B317-FDDE-425C-99B8-2570E6EC45B4";
paths = (
{
closed = 1;
nodes = (
"489 0 CURVE SMOOTH",
"505 0 OFFCURVE",
"515 6 OFFCURVE",
"520 21 CURVE SMOOTH",
"674 436 LINE SMOOTH",
"679 452 OFFCURVE",
"674 464 OFFCURVE",
"658 470 CURVE SMOOTH",
"642 476 OFFCURVE",
"631 470 OFFCURVE",
"625 454 CURVE SMOOTH",
"480 52 LINE",
"502 53 LINE",
"379 445 LINE SMOOTH",
"375 459 OFFCURVE",
"366 467 OFFCURVE",
"351 467 CURVE SMOOTH",
"336 467 OFFCURVE",
"326 460 OFFCURVE",
"321 446 CURVE SMOOTH",
"191 53 LINE",
"211 53 LINE",
"74 453 LINE SMOOTH",
"69 470 OFFCURVE",
"58 475 OFFCURVE",
"42 470 CURVE SMOOTH",
"26 465 OFFCURVE",
"20 453 OFFCURVE",
"25 437 CURVE SMOOTH",
"167 21 LINE SMOOTH",
"172 6 OFFCURVE",
"180 0 OFFCURVE",
"197 0 CURVE SMOOTH",
"210 0 OFFCURVE",
"222 4 OFFCURVE",
"228 21 CURVE",
"363 415 LINE",
"343 385 LINE",
"457 21 LINE SMOOTH",
"462 6 OFFCURVE",
"471 0 OFFCURVE"
);
}
);
width = 700;
}
);
leftKerningGroup = v;
leftMetricsKey = v;
rightKerningGroup = v;
rightMetricsKey = v;
unicode = 0077;
},
{
color = 4;
glyphname = x;
lastChange = "2016-07-31 01:33:47 +0000";
layers = (
{
anchors = (
{
name = bottom;
position = "{246, 0}";
},
{
name = top;
position = "{247, 472}";
}
);
layerId = "D7F5B317-FDDE-425C-99B8-2570E6EC45B4";
paths = (
{
closed = 1;
nodes = (
"433 43 CURVE SMOOTH",
"108 461 LINE SMOOTH",
"97 474 OFFCURVE",
"85 476 OFFCURVE",
"71 465 CURVE SMOOTH",
"58 455 OFFCURVE",
"56 442 OFFCURVE",
"67 429 CURVE SMOOTH",
"392 11 LINE SMOOTH",
"402 -2 OFFCURVE",
"415 -4 OFFCURVE",
"428 7 CURVE SMOOTH",
"442 17 OFFCURVE",
"443 30 OFFCURVE"
);
},
{
closed = 1;
nodes = (
"95 12 CURVE SMOOTH",
"255 214 LINE SMOOTH",
"265 227 OFFCURVE",
"263 240 OFFCURVE",
"250 250 CURVE SMOOTH",
"237 260 OFFCURVE",
"224 259 OFFCURVE",
"214 246 CURVE SMOOTH",
"54 44 LINE SMOOTH",
"43 30 OFFCURVE",
"45 17 OFFCURVE",
"58 7 CURVE SMOOTH",
"71 -4 OFFCURVE",
"85 -1 OFFCURVE"
);
},
{
closed = 1;
nodes = (
"274 229 CURVE SMOOTH",
"436 429 LINE SMOOTH",
"446 442 OFFCURVE",
"445 455 OFFCURVE",
"432 465 CURVE SMOOTH",
"419 476 OFFCURVE",
"406 474 OFFCURVE",
"395 461 CURVE SMOOTH",
"234 261 LINE SMOOTH",
"223 248 OFFCURVE",
"224 236 OFFCURVE",
"238 225 CURVE SMOOTH",
"251 214 OFFCURVE",
"264 216 OFFCURVE"
);
}
);
width = 494;
}
);
leftKerningGroup = x;
rightKerningGroup = x;
unicode = 0078;
},
{
color = 4;
glyphname = y;
lastChange = "2016-07-31 01:33:47 +0000";
layers = (
{
anchors = (
{
name = bottom;
position = "{602, 0}";
},
{
name = top;
position = "{298, 472}";
}
);
layerId = "D7F5B317-FDDE-425C-99B8-2570E6EC45B4";
paths = (
{
closed = 1;
nodes = (
"385 -200 LINE SMOOTH",
"472 -200 OFFCURVE",
"513 -160 OFFCURVE",
"513 -71 CURVE SMOOTH",
"513 447 LINE SMOOTH",
"513 464 OFFCURVE",
"504 473 OFFCURVE",
"487 473 CURVE SMOOTH",
"469 473 OFFCURVE",
"461 464 OFFCURVE",
"461 447 CURVE SMOOTH",
"461 175 LINE SMOOTH",
"461 92 OFFCURVE",
"405 51 OFFCURVE",
"289 51 CURVE SMOOTH",
"261 51 LINE SMOOTH",
"167 51 OFFCURVE",
"136 82 OFFCURVE",
"136 175 CURVE SMOOTH",
"136 447 LINE SMOOTH",
"136 464 OFFCURVE",
"127 473 OFFCURVE",
"110 473 CURVE SMOOTH",
"93 473 OFFCURVE",
"84 464 OFFCURVE",
"84 447 CURVE SMOOTH",
"84 175 LINE SMOOTH",
"84 53 OFFCURVE",
"138 -1 OFFCURVE",
"261 -1 CURVE SMOOTH",
"289 -1 LINE SMOOTH",
"365 -1 OFFCURVE",
"423 17 OFFCURVE",
"461 67 CURVE",
"461 -71 LINE SMOOTH",
"461 -131 OFFCURVE",
"443 -148 OFFCURVE",
"385 -148 CURVE SMOOTH",
"212 -148 LINE SMOOTH",
"154 -148 OFFCURVE",
"136 -131 OFFCURVE",
"136 -71 CURVE SMOOTH",
"136 -54 OFFCURVE",
"127 -45 OFFCURVE",
"110 -45 CURVE SMOOTH",
"93 -45 OFFCURVE",
"84 -54 OFFCURVE",
"84 -71 CURVE SMOOTH",
"84 -160 OFFCURVE",
"124 -200 OFFCURVE",
"212 -200 CURVE SMOOTH"
);
}
);
width = 606;
}
);
leftKerningGroup = u;
leftMetricsKey = u;
rightKerningGroup = u;
rightMetricsKey = u;
unicode = 0079;
},
{
color = 4;
glyphname = z;
lastChange = "2016-07-31 01:33:47 +0000";
layers = (
{
anchors = (
{
name = bottom;
position = "{262, 0}";
},
{
name = top;
position = "{265, 472}";
}
);
layerId = "D7F5B317-FDDE-425C-99B8-2570E6EC45B4";
paths = (
{
closed = 1;
nodes = (
"354 0 LINE SMOOTH",
"429 0 OFFCURVE",
"471 34 OFFCURVE",
"480 101 CURVE SMOOTH",
"482 118 OFFCURVE",
"472 128 OFFCURVE",
"455 128 CURVE SMOOTH",
"438 128 OFFCURVE",
"431 119 OFFCURVE",
"428 103 CURVE SMOOTH",
"422 66 OFFCURVE",
"400 52 OFFCURVE",
"354 52 CURVE SMOOTH",
"111 52 LINE",
"130 44 LINE",
"431 418 LINE SMOOTH",
"439 428 OFFCURVE",
"443 436 OFFCURVE",
"443 446 CURVE SMOOTH",
"443 463 OFFCURVE",
"433 472 OFFCURVE",
"417 472 CURVE SMOOTH",
"172 472 LINE SMOOTH",
"93 472 OFFCURVE",
"53 440 OFFCURVE",
"45 371 CURVE SMOOTH",
"43 354 OFFCURVE",
"53 344 OFFCURVE",
"71 344 CURVE SMOOTH",
"87 344 OFFCURVE",
"95 353 OFFCURVE",
"97 369 CURVE SMOOTH",
"103 408 OFFCURVE",
"123 420 OFFCURVE",
"172 420 CURVE SMOOTH",
"399 420 LINE",
"378 432 LINE",
"72 53 LINE SMOOTH",
"64 43 OFFCURVE",
"61 36 OFFCURVE",
"61 26 CURVE SMOOTH",
"61 9 OFFCURVE",
"70 0 OFFCURVE",
"87 0 CURVE SMOOTH"
);
}
);
width = 515;
}
);
leftKerningGroup = z;
rightKerningGroup = z;
unicode = 007A;
},
{
color = 4;
glyphname = a.ss01;
lastChange = "2016-07-31 01:33:47 +0000";
layers = (
{
layerId = "D7F5B317-FDDE-425C-99B8-2570E6EC45B4";
paths = (
{
closed = 1;
nodes = (
"298 0 LINE SMOOTH",
"420 0 OFFCURVE",
"492 53 OFFCURVE",
"502 152 CURVE",
"470 152 LINE",
"470 84 OFFCURVE",
"402 52 OFFCURVE",
"298 52 CURVE SMOOTH",
"257 52 LINE SMOOTH",
"163 52 OFFCURVE",
"132 83 OFFCURVE",
"132 176 CURVE SMOOTH",
"132 292 LINE SMOOTH",
"132 392 OFFCURVE",
"161 421 OFFCURVE",
"256 420 CURVE SMOOTH",
"346 420 LINE SMOOTH",
"432 420 OFFCURVE",
"467 396 OFFCURVE",
"470 317 CURVE",
"497 317 LINE",
"492 427 OFFCURVE",
"446 472 OFFCURVE",
"346 472 CURVE SMOOTH",
"256 472 LINE SMOOTH",
"131 473 OFFCURVE",
"80 421 OFFCURVE",
"80 292 CURVE SMOOTH",
"80 176 LINE SMOOTH",
"80 54 OFFCURVE",
"134 0 OFFCURVE",
"257 0 CURVE SMOOTH"
);
},
{
closed = 1;
nodes = (
"577 0 OFFCURVE",
"587 10 OFFCURVE",
"587 27 CURVE SMOOTH",
"587 44 OFFCURVE",
"578 50 OFFCURVE",
"562 54 CURVE SMOOTH",
"532 59 OFFCURVE",
"522 76 OFFCURVE",
"522 117 CURVE SMOOTH",
"522 445 LINE SMOOTH",
"522 462 OFFCURVE",
"513 471 OFFCURVE",
"496 471 CURVE SMOOTH",
"479 471 OFFCURVE",
"470 462 OFFCURVE",
"470 445 CURVE SMOOTH",
"470 117 LINE SMOOTH",
"470 47 OFFCURVE",
"499 10 OFFCURVE",
"560 2 CURVE SMOOTH"
);
}
);
width = 620;
}
);
leftKerningGroup = o;
leftMetricsKey = o;
rightKerningGroup = l;
rightMetricsKey = l;
},
{
color = 4;
glyphname = f_f;
lastChange = "2016-07-31 01:33:47 +0000";
layers = (
{
components = (
{
name = f;
transform = "{1, 0, 0, 1, 299, 0}";
}
);
layerId = "D7F5B317-FDDE-425C-99B8-2570E6EC45B4";
paths = (
{
closed = 1;
nodes = (
"145 0 OFFCURVE",
"154 9 OFFCURVE",
"154 26 CURVE SMOOTH",
"154 516 LINE SMOOTH",
"154 610 OFFCURVE",
"186 641 OFFCURVE",
"279 641 CURVE SMOOTH",
"295 641 OFFCURVE",
"304 650 OFFCURVE",
"304 667 CURVE SMOOTH",
"304 685 OFFCURVE",
"295 693 OFFCURVE",
"279 693 CURVE SMOOTH",
"156 693 OFFCURVE",
"102 639 OFFCURVE",
"102 516 CURVE SMOOTH",
"102 26 LINE SMOOTH",
"102 9 OFFCURVE",
"111 0 OFFCURVE",
"128 0 CURVE SMOOTH"
);
},
{
closed = 1;
nodes = (
"401 420 LINE SMOOTH",
"418 420 OFFCURVE",
"427 429 OFFCURVE",
"427 446 CURVE SMOOTH",
"427 463 OFFCURVE",
"418 472 OFFCURVE",
"401 472 CURVE SMOOTH",
"59 472 LINE SMOOTH",
"42 472 OFFCURVE",
"33 463 OFFCURVE",
"33 446 CURVE SMOOTH",
"33 429 OFFCURVE",
"42 420 OFFCURVE",
"59 420 CURVE SMOOTH"
);
}
);
width = 626;
}
);
leftKerningGroup = f;
leftMetricsKey = f;
rightKerningGroup = f;
rightMetricsKey = f;
},
{
color = 4;
glyphname = f_f_i;
lastChange = "2016-07-31 01:33:47 +0000";
layers = (
{
components = (
{
name = fi;
transform = "{1, 0, 0, 1, 298, 0}";
}
);
layerId = "D7F5B317-FDDE-425C-99B8-2570E6EC45B4";
paths = (
{
closed = 1;
nodes = (
"145 0 OFFCURVE",
"154 9 OFFCURVE",
"154 26 CURVE SMOOTH",
"154 516 LINE SMOOTH",
"154 610 OFFCURVE",
"186 641 OFFCURVE",
"279 641 CURVE SMOOTH",
"295 641 OFFCURVE",
"304 650 OFFCURVE",
"304 667 CURVE SMOOTH",
"304 685 OFFCURVE",
"295 693 OFFCURVE",
"279 693 CURVE SMOOTH",
"156 693 OFFCURVE",
"102 639 OFFCURVE",
"102 516 CURVE SMOOTH",
"102 26 LINE SMOOTH",
"102 9 OFFCURVE",
"111 0 OFFCURVE",
"128 0 CURVE SMOOTH"
);
},
{
closed = 1;
nodes = (
"401 420 LINE SMOOTH",
"418 420 OFFCURVE",
"427 429 OFFCURVE",
"427 446 CURVE SMOOTH",
"427 463 OFFCURVE",
"418 472 OFFCURVE",
"401 472 CURVE SMOOTH",
"59 472 LINE SMOOTH",
"42 472 OFFCURVE",
"33 463 OFFCURVE",
"33 446 CURVE SMOOTH",
"33 429 OFFCURVE",
"42 420 OFFCURVE",
"59 420 CURVE SMOOTH"
);
}
);
width = 842;
}
);
leftKerningGroup = f;
leftMetricsKey = f;
rightKerningGroup = dotless;
rightMetricsKey = i;
},
{
color = 4;
glyphname = f_f_l;
lastChange = "2016-07-31 01:37:05 +0000";
layers = (
{
components = (
{
name = fl;
transform = "{1, 0, 0, 1, 295, 0}";
}
);
layerId = "D7F5B317-FDDE-425C-99B8-2570E6EC45B4";
paths = (
{
closed = 1;
nodes = (
"145 0 OFFCURVE",
"154 9 OFFCURVE",
"154 26 CURVE SMOOTH",
"154 516 LINE SMOOTH",
"154 610 OFFCURVE",
"186 641 OFFCURVE",
"279 641 CURVE SMOOTH",
"295 641 OFFCURVE",
"304 650 OFFCURVE",
"304 667 CURVE SMOOTH",
"304 685 OFFCURVE",
"295 693 OFFCURVE",
"279 693 CURVE SMOOTH",
"156 693 OFFCURVE",
"102 639 OFFCURVE",
"102 516 CURVE SMOOTH",
"102 26 LINE SMOOTH",
"102 9 OFFCURVE",
"111 0 OFFCURVE",
"128 0 CURVE SMOOTH"
);
},
{
closed = 1;
nodes = (
"391 420 LINE SMOOTH",
"408 420 OFFCURVE",
"417 429 OFFCURVE",
"417 446 CURVE SMOOTH",
"417 463 OFFCURVE",
"408 472 OFFCURVE",
"391 472 CURVE SMOOTH",
"59 472 LINE SMOOTH",
"42 472 OFFCURVE",
"33 463 OFFCURVE",
"33 446 CURVE SMOOTH",
"33 429 OFFCURVE",
"42 420 OFFCURVE",
"59 420 CURVE SMOOTH"
);
}
);
width = 876;
}
);
leftKerningGroup = f;
leftMetricsKey = f;
rightKerningGroup = l;
rightMetricsKey = l;
},
{
color = 4;
glyphname = fi;
lastChange = "2016-07-31 01:33:47 +0000";
layers = (
{
components = (
{
alignment = -1;
name = idotless;
transform = "{1, 0, 0, 1, 307, 0}";
},
{
alignment = -1;
name = dotaccentcomb;
transform = "{0.9506, 0, 0, 0.9506, 320, 70}";
}
);
layerId = "D7F5B317-FDDE-425C-99B8-2570E6EC45B4";
paths = (
{
closed = 1;
nodes = (
"145 0 OFFCURVE",
"154 9 OFFCURVE",
"154 26 CURVE SMOOTH",
"154 420 LINE",
"427 420 LINE SMOOTH",
"444 420 OFFCURVE",
"453 429 OFFCURVE",
"453 446 CURVE SMOOTH",
"453 463 OFFCURVE",
"444 472 OFFCURVE",
"427 472 CURVE SMOOTH",
"154 472 LINE",
"154 517 LINE SMOOTH",
"154 610 OFFCURVE",
"185 641 OFFCURVE",
"279 641 CURVE",
"404 608 LINE",
"416 693 LINE",
"279 693 LINE SMOOTH",
"156 693 OFFCURVE",
"102 639 OFFCURVE",
"102 517 CURVE SMOOTH",
"102 472 LINE",
"59 472 LINE SMOOTH",
"42 472 OFFCURVE",
"33 463 OFFCURVE",
"33 446 CURVE SMOOTH",
"33 429 OFFCURVE",
"42 420 OFFCURVE",
"59 420 CURVE SMOOTH",
"102 420 LINE",
"102 26 LINE SMOOTH",
"102 9 OFFCURVE",
"111 0 OFFCURVE",
"128 0 CURVE SMOOTH"
);
}
);
width = 543;
}
);
leftKerningGroup = f;
leftMetricsKey = f;
rightMetricsKey = i;
unicode = FB01;
},
{
color = 4;
glyphname = fl;
lastChange = "2016-07-31 01:37:05 +0000";
layers = (
{
layerId = "D7F5B317-FDDE-425C-99B8-2570E6EC45B4";
paths = (
{
closed = 1;
nodes = (
"539 -1 OFFCURVE",
"548 9 OFFCURVE",
"548 25 CURVE SMOOTH",
"548 43 OFFCURVE",
"540 51 OFFCURVE",
"522 52 CURVE SMOOTH",
"468 54 OFFCURVE",
"452 72 OFFCURVE",
"452 123 CURVE SMOOTH",
"452 667 LINE SMOOTH",
"452 684 OFFCURVE",
"443 693 OFFCURVE",
"426 693 CURVE SMOOTH",
"279 693 LINE SMOOTH",
"156 693 OFFCURVE",
"102 639 OFFCURVE",
"102 516 CURVE SMOOTH",
"102 26 LINE SMOOTH",
"102 9 OFFCURVE",
"111 0 OFFCURVE",
"128 0 CURVE SMOOTH",
"145 0 OFFCURVE",
"154 9 OFFCURVE",
"154 26 CURVE SMOOTH",
"154 516 LINE SMOOTH",
"154 610 OFFCURVE",
"185 641 OFFCURVE",
"279 641 CURVE SMOOTH",
"400 641 LINE",
"400 123 LINE SMOOTH",
"400 42 OFFCURVE",
"439 3 OFFCURVE",
"522 0 CURVE SMOOTH"
);
},
{
closed = 1;
nodes = (
"277 420 LINE SMOOTH",
"294 420 OFFCURVE",
"303 429 OFFCURVE",
"303 446 CURVE SMOOTH",
"303 463 OFFCURVE",
"294 472 OFFCURVE",
"277 472 CURVE SMOOTH",
"59 472 LINE SMOOTH",
"42 472 OFFCURVE",
"33 463 OFFCURVE",
"33 446 CURVE SMOOTH",
"33 429 OFFCURVE",
"42 420 OFFCURVE",
"59 420 CURVE SMOOTH"
);
}
);
width = 581;
}
);
leftKerningGroup = f;
leftMetricsKey = f;
rightKerningGroup = l;
rightMetricsKey = l;
unicode = FB02;
},
{
color = 4;
glyphname = I_J.loclNLD;
lastChange = "2016-07-31 01:37:05 +0000";
layers = (
{
layerId = "D7F5B317-FDDE-425C-99B8-2570E6EC45B4";
paths = (
{
closed = 1;
nodes = (
"135 249 OFFCURVE",
"145 259 OFFCURVE",
"145 275 CURVE SMOOTH",
"145 618 LINE SMOOTH",
"145 634 OFFCURVE",
"135 644 OFFCURVE",
"119 644 CURVE SMOOTH",
"103 644 OFFCURVE",
"93 634 OFFCURVE",
"93 618 CURVE SMOOTH",
"93 275 LINE SMOOTH",
"93 259 OFFCURVE",
"103 249 OFFCURVE",
"119 249 CURVE SMOOTH"
);
},
{
closed = 1;
nodes = (
"320 0 LINE SMOOTH",
"452 0 OFFCURVE",
"508 56 OFFCURVE",
"508 188 CURVE SMOOTH",
"508 618 LINE SMOOTH",
"508 635 OFFCURVE",
"499 644 OFFCURVE",
"482 644 CURVE SMOOTH",
"465 644 OFFCURVE",
"456 635 OFFCURVE",
"456 618 CURVE SMOOTH",
"456 188 LINE SMOOTH",
"456 85 OFFCURVE",
"423 52 OFFCURVE",
"320 52 CURVE SMOOTH",
"280 52 LINE SMOOTH",
"186 52 OFFCURVE",
"150 79 OFFCURVE",
"145 162 CURVE SMOOTH",
"143 179 OFFCURVE",
"135 188 OFFCURVE",
"118 188 CURVE SMOOTH",
"101 188 OFFCURVE",
"91 178 OFFCURVE",
"93 161 CURVE SMOOTH",
"100 48 OFFCURVE",
"157 0 OFFCURVE",
"280 0 CURVE SMOOTH"
);
}
);
width = 592;
}
);
leftKerningGroup = H;
leftMetricsKey = H;
rightKerningGroup = U;
rightMetricsKey = J;
},
{
color = 4;
glyphname = ordfeminine;
lastChange = "2016-07-31 01:33:47 +0000";
layers = (
{
layerId = "D7F5B317-FDDE-425C-99B8-2570E6EC45B4";
paths = (
{
closed = 1;
nodes = (
"367 314 OFFCURVE",
"376 322 OFFCURVE",
"376 339 CURVE SMOOTH",
"376 521 LINE SMOOTH",
"376 609 OFFCURVE",
"335 650 OFFCURVE",
"247 650 CURVE SMOOTH",
"191 650 LINE SMOOTH",
"113 650 OFFCURVE",
"72 627 OFFCURVE",
"62 576 CURVE SMOOTH",
"58 559 OFFCURVE",
"69 550 OFFCURVE",
"85 550 CURVE SMOOTH",
"100 550 OFFCURVE",
"105 556 OFFCURVE",
"112 572 CURVE SMOOTH",
"120 593 OFFCURVE",
"141 600 OFFCURVE",
"191 600 CURVE SMOOTH",
"247 600 LINE SMOOTH",
"307 600 OFFCURVE",
"326 581 OFFCURVE",
"326 521 CURVE SMOOTH",
"326 339 LINE SMOOTH",
"326 322 OFFCURVE",
"335 314 OFFCURVE",
"351 314 CURVE SMOOTH"
);
},
{
closed = 1;
nodes = (
"217 314 LINE SMOOTH",
"293 314 OFFCURVE",
"338 349 OFFCURVE",
"347 415 CURVE",
"326 418 LINE",
"326 380 OFFCURVE",
"281 363 OFFCURVE",
"217 363 CURVE SMOOTH",
"162 363 LINE SMOOTH",
"115 363 OFFCURVE",
"103 377 OFFCURVE",
"103 423 CURVE SMOOTH",
"103 469 OFFCURVE",
"116 482 OFFCURVE",
"162 482 CURVE SMOOTH",
"326 482 LINE SMOOTH",
"343 482 OFFCURVE",
"351 490 OFFCURVE",
"351 507 CURVE SMOOTH",
"351 523 OFFCURVE",
"343 531 OFFCURVE",
"326 531 CURVE SMOOTH",
"162 531 LINE SMOOTH",
"88 531 OFFCURVE",
"53 497 OFFCURVE",
"53 423 CURVE SMOOTH",
"53 349 OFFCURVE",
"88 314 OFFCURVE",
"162 314 CURVE SMOOTH"
);
}
);
width = 429;
}
);
leftKerningGroup = ordfeminine;
rightKerningGroup = ordfemnne;
unicode = 00AA;
},
{
color = 4;
glyphname = ordmasculine;
lastChange = "2016-07-31 01:33:47 +0000";
layers = (
{
layerId = "D7F5B317-FDDE-425C-99B8-2570E6EC45B4";
paths = (
{
closed = 1;
nodes = (
"243 314 LINE SMOOTH",
"331 314 OFFCURVE",
"373 355 OFFCURVE",
"373 445 CURVE SMOOTH",
"373 515 LINE SMOOTH",
"373 604 OFFCURVE",
"331 645 OFFCURVE",
"243 645 CURVE SMOOTH",
"177 645 LINE SMOOTH",
"88 646 OFFCURVE",
"47 605 OFFCURVE",
"47 515 CURVE SMOOTH",
"47 444 LINE SMOOTH",
"47 355 OFFCURVE",
"88 314 OFFCURVE",
"177 314 CURVE SMOOTH"
);
},
{
closed = 1;
nodes = (
"117 366 OFFCURVE",
"99 385 OFFCURVE",
"99 444 CURVE SMOOTH",
"99 515 LINE SMOOTH",
"99 576 OFFCURVE",
"117 594 OFFCURVE",
"177 593 CURVE SMOOTH",
"243 593 LINE SMOOTH",
"302 593 OFFCURVE",
"321 575 OFFCURVE",
"321 515 CURVE SMOOTH",
"321 445 LINE SMOOTH",
"321 385 OFFCURVE",
"302 366 OFFCURVE",
"243 366 CURVE SMOOTH",
"177 366 LINE SMOOTH"
);
}
);
width = 419;
}
);
leftKerningGroup = ordfeminine;
rightKerningGroup = ordfemnne;
unicode = 00BA;
},
{
export = 0;
glyphname = "i-kayahli";
lastChange = "2016-07-31 01:33:47 +0000";
layers = (
{
layerId = "D7F5B317-FDDE-425C-99B8-2570E6EC45B4";
paths = (
{
closed = 1;
nodes = (
"431 -5 LINE SMOOTH",
"509 -5 OFFCURVE",
"531 28 OFFCURVE",
"531 124 CURVE SMOOTH",
"531 337 LINE SMOOTH",
"531 433 OFFCURVE",
"509 466 OFFCURVE",
"431 466 CURVE SMOOTH",
"177 466 LINE SMOOTH",
"100 466 OFFCURVE",
"77 433 OFFCURVE",
"77 337 CURVE SMOOTH",
"77 268 LINE",
"206 268 LINE SMOOTH",
"230 268 OFFCURVE",
"242 278 OFFCURVE",
"242 296 CURVE SMOOTH",
"242 312 OFFCURVE",
"230 320 OFFCURVE",
"206 320 CURVE SMOOTH",
"129 320 LINE",
"129 354 LINE SMOOTH",
"129 398 OFFCURVE",
"142 414 OFFCURVE",
"184 414 CURVE SMOOTH",
"424 414 LINE SMOOTH",
"467 414 OFFCURVE",
"479 398 OFFCURVE",
"479 354 CURVE",
"479 347 LINE",
"77 146 LINE",
"77 124 LINE SMOOTH",
"77 28 OFFCURVE",
"100 -5 OFFCURVE",
"177 -5 CURVE SMOOTH"
);
},
{
closed = 1;
nodes = (
"142 47 OFFCURVE",
"129 62 OFFCURVE",
"129 106 CURVE SMOOTH",
"129 116 LINE",
"479 291 LINE",
"479 106 LINE SMOOTH",
"479 62 OFFCURVE",
"467 47 OFFCURVE",
"424 47 CURVE SMOOTH",
"184 47 LINE SMOOTH"
);
}
);
width = 610;
}
);
leftKerningGroup = "i-kayahli";
rightKerningGroup = "-kayahl";
unicode = A924;
},
{
color = 4;
glyphname = zero;
lastChange = "2016-07-31 01:33:47 +0000";
layers = (
{
components = (
{
name = periodcentered;
transform = "{1, 0, 0, 1, 208, 30}";
}
);
layerId = "D7F5B317-FDDE-425C-99B8-2570E6EC45B4";
paths = (
{
closed = 1;
nodes = (
"335 -2 LINE SMOOTH",
"479 -2 OFFCURVE",
"543 61 OFFCURVE",
"543 206 CURVE SMOOTH",
"543 433 LINE SMOOTH",
"543 578 OFFCURVE",
"479 641 OFFCURVE",
"335 641 CURVE SMOOTH",
"275 641 LINE SMOOTH",
"131 641 OFFCURVE",
"67 579 OFFCURVE",
"67 434 CURVE SMOOTH",
"67 206 LINE SMOOTH",
"67 61 OFFCURVE",
"130 -2 OFFCURVE",
"275 -2 CURVE SMOOTH"
);
},
{
closed = 1;
nodes = (
"159 50 OFFCURVE",
"119 91 OFFCURVE",
"119 206 CURVE SMOOTH",
"119 434 LINE SMOOTH",
"119 549 OFFCURVE",
"159 589 OFFCURVE",
"275 589 CURVE SMOOTH",
"335 589 LINE SMOOTH",
"450 589 OFFCURVE",
"491 548 OFFCURVE",
"491 433 CURVE SMOOTH",
"491 206 LINE SMOOTH",
"491 91 OFFCURVE",
"450 50 OFFCURVE",
"335 50 CURVE SMOOTH",
"275 50 LINE SMOOTH"
);
}
);
width = 609;
}
);
leftKerningGroup = zero;
rightKerningGroup = zero;
unicode = 0030;
},
{
color = 4;
glyphname = one;
lastChange = "2016-07-31 01:33:47 +0000";
layers = (
{
layerId = "D7F5B317-FDDE-425C-99B8-2570E6EC45B4";
paths = (
{
closed = 1;
nodes = (
"245 0 OFFCURVE",
"254 9 OFFCURVE",
"254 26 CURVE SMOOTH",
"254 618 LINE SMOOTH",
"254 635 OFFCURVE",
"246 644 OFFCURVE",
"232 644 CURVE SMOOTH",
"219 644 OFFCURVE",
"209 640 OFFCURVE",
"200 631 CURVE SMOOTH",
"83 515 LINE SMOOTH",
"70 503 OFFCURVE",
"70 490 OFFCURVE",
"82 479 CURVE SMOOTH",
"93 467 OFFCURVE",
"106 468 OFFCURVE",
"117 479 CURVE SMOOTH",
"226 586 LINE",
"202 582 LINE",
"202 26 LINE SMOOTH",
"202 9 OFFCURVE",
"211 0 OFFCURVE",
"228 0 CURVE SMOOTH"
);
}
);
width = 354;
}
);
leftKerningGroup = one;
rightKerningGroup = one;
unicode = 0031;
},
{
color = 4;
glyphname = two;
lastChange = "2016-07-31 01:33:47 +0000";
layers = (
{
layerId = "D7F5B317-FDDE-425C-99B8-2570E6EC45B4";
paths = (
{
closed = 1;
nodes = (
"497 0 OFFCURVE",
"506 9 OFFCURVE",
"506 26 CURVE SMOOTH",
"506 43 OFFCURVE",
"497 52 OFFCURVE",
"480 52 CURVE SMOOTH",
"119 52 LINE",
"129 159 OFFCURVE",
"194 197 OFFCURVE",
"322 271 CURVE SMOOTH",
"420 327 OFFCURVE",
"501 371 OFFCURVE",
"501 475 CURVE SMOOTH",
"501 591 OFFCURVE",
"448 644 OFFCURVE",
"332 644 CURVE SMOOTH",
"225 644 LINE SMOOTH",
"118 644 OFFCURVE",
"65 600 OFFCURVE",
"57 503 CURVE SMOOTH",
"55 485 OFFCURVE",
"65 476 OFFCURVE",
"82 476 CURVE SMOOTH",
"99 476 OFFCURVE",
"107 485 OFFCURVE",
"109 502 CURVE SMOOTH",
"115 568 OFFCURVE",
"147 592 OFFCURVE",
"225 592 CURVE SMOOTH",
"332 592 LINE SMOOTH",
"419 592 OFFCURVE",
"449 562 OFFCURVE",
"449 475 CURVE SMOOTH",
"449 402 OFFCURVE",
"395 372 OFFCURVE",
"296 316 CURVE SMOOTH",
"150 232 OFFCURVE",
"66 178 OFFCURVE",
"66 26 CURVE SMOOTH",
"66 9 OFFCURVE",
"75 0 OFFCURVE",
"92 0 CURVE SMOOTH",
"480 0 LINE SMOOTH"
);
}
);
width = 567;
}
);
leftKerningGroup = two;
rightKerningGroup = two;
unicode = 0032;
},
{
color = 4;
glyphname = three;
lastChange = "2016-07-31 01:33:47 +0000";
layers = (
{
layerId = "D7F5B317-FDDE-425C-99B8-2570E6EC45B4";
paths = (
{
closed = 1;
nodes = (
"345 1 LINE SMOOTH",
"469 1 OFFCURVE",
"524 56 OFFCURVE",
"524 179 CURVE SMOOTH",
"524 260 OFFCURVE",
"496 311 OFFCURVE",
"436 337 CURVE",
"485 362 OFFCURVE",
"508 407 OFFCURVE",
"508 475 CURVE SMOOTH",
"508 591 OFFCURVE",
"456 644 OFFCURVE",
"339 644 CURVE SMOOTH",
"242 644 LINE SMOOTH",
"136 644 OFFCURVE",
"83 600 OFFCURVE",
"75 503 CURVE SMOOTH",
"73 485 OFFCURVE",
"83 476 OFFCURVE",
"100 476 CURVE SMOOTH",
"117 476 OFFCURVE",
"125 485 OFFCURVE",
"127 502 CURVE SMOOTH",
"132 568 OFFCURVE",
"164 592 OFFCURVE",
"242 592 CURVE SMOOTH",
"339 592 LINE SMOOTH",
"427 592 OFFCURVE",
"456 562 OFFCURVE",
"456 475 CURVE SMOOTH",
"456 396 OFFCURVE",
"432 357 OFFCURVE",
"358 357 CURVE SMOOTH",
"252 357 LINE SMOOTH",
"236 357 OFFCURVE",
"226 348 OFFCURVE",
"226 331 CURVE SMOOTH",
"226 314 OFFCURVE",
"236 305 OFFCURVE",
"252 305 CURVE SMOOTH",
"345 305 LINE SMOOTH",
"440 305 OFFCURVE",
"472 273 OFFCURVE",
"472 179 CURVE SMOOTH",
"472 85 OFFCURVE",
"440 53 OFFCURVE",
"345 53 CURVE SMOOTH",
"231 53 LINE SMOOTH",
"146 53 OFFCURVE",
"111 79 OFFCURVE",
"105 153 CURVE SMOOTH",
"104 170 OFFCURVE",
"96 179 OFFCURVE",
"79 179 CURVE SMOOTH",
"62 179 OFFCURVE",
"52 169 OFFCURVE",
"53 152 CURVE SMOOTH",
"61 47 OFFCURVE",
"117 1 OFFCURVE",
"231 1 CURVE SMOOTH"
);
}
);
width = 591;
}
);
leftKerningGroup = three;
rightKerningGroup = three;
unicode = 0033;
},
{
color = 4;
glyphname = four;
lastChange = "2016-07-31 01:33:47 +0000";
layers = (
{
layerId = "D7F5B317-FDDE-425C-99B8-2570E6EC45B4";
paths = (
{
closed = 1;
nodes = (
"424 0 OFFCURVE",
"433 9 OFFCURVE",
"433 26 CURVE SMOOTH",
"437 618 LINE SMOOTH",
"437 635 OFFCURVE",
"429 644 OFFCURVE",
"412 644 CURVE SMOOTH",
"398 644 OFFCURVE",
"388 640 OFFCURVE",
"379 628 CURVE SMOOTH",
"44 193 LINE SMOOTH",
"36 183 OFFCURVE",
"33 175 OFFCURVE",
"33 166 CURVE SMOOTH",
"33 149 OFFCURVE",
"42 140 OFFCURVE",
"59 140 CURVE SMOOTH",
"484 140 LINE SMOOTH",
"501 140 OFFCURVE",
"510 149 OFFCURVE",
"510 166 CURVE SMOOTH",
"510 182 OFFCURVE",
"501 192 OFFCURVE",
"484 192 CURVE",
"86 191 LINE",
"95 179 LINE",
"399 575 LINE",
"385 572 LINE",
"381 26 LINE SMOOTH",
"381 9 OFFCURVE",
"390 0 OFFCURVE",
"407 0 CURVE SMOOTH"
);
}
);
width = 543;
}
);
leftKerningGroup = four;
rightKerningGroup = four;
unicode = 0034;
},
{
color = 4;
glyphname = five;
lastChange = "2016-07-31 01:33:47 +0000";
layers = (
{
layerId = "D7F5B317-FDDE-425C-99B8-2570E6EC45B4";
paths = (
{
closed = 1;
nodes = (
"349 0 LINE SMOOTH",
"472 0 OFFCURVE",
"528 56 OFFCURVE",
"528 179 CURVE SMOOTH",
"528 248 LINE SMOOTH",
"528 371 OFFCURVE",
"472 427 OFFCURVE",
"349 427 CURVE SMOOTH",
"275 427 LINE SMOOTH",
"214 427 OFFCURVE",
"168 418 OFFCURVE",
"135 399 CURVE",
"135 592 LINE",
"496 592 LINE SMOOTH",
"513 592 OFFCURVE",
"522 601 OFFCURVE",
"522 618 CURVE SMOOTH",
"522 635 OFFCURVE",
"513 644 OFFCURVE",
"496 644 CURVE SMOOTH",
"109 644 LINE SMOOTH",
"92 644 OFFCURVE",
"83 635 OFFCURVE",
"83 618 CURVE SMOOTH",
"83 364 LINE SMOOTH",
"83 348 OFFCURVE",
"90 339 OFFCURVE",
"105 335 CURVE SMOOTH",
"110 333 LINE SMOOTH",
"124 329 OFFCURVE",
"134 333 OFFCURVE",
"145 343 CURVE SMOOTH",
"169 365 OFFCURVE",
"210 375 OFFCURVE",
"275 375 CURVE SMOOTH",
"349 375 LINE SMOOTH",
"443 375 OFFCURVE",
"476 343 OFFCURVE",
"476 248 CURVE SMOOTH",
"476 179 LINE SMOOTH",
"476 85 OFFCURVE",
"443 52 OFFCURVE",
"349 52 CURVE SMOOTH",
"245 52 LINE SMOOTH",
"159 52 OFFCURVE",
"125 78 OFFCURVE",
"119 152 CURVE SMOOTH",
"117 169 OFFCURVE",
"109 178 OFFCURVE",
"92 178 CURVE SMOOTH",
"75 178 OFFCURVE",
"65 168 OFFCURVE",
"67 151 CURVE SMOOTH",
"75 47 OFFCURVE",
"130 0 OFFCURVE",
"245 0 CURVE SMOOTH"
);
}
);
width = 594;
}
);
leftKerningGroup = five;
rightKerningGroup = fve;
unicode = 0035;
},
{
color = 4;
glyphname = six;
lastChange = "2016-07-31 01:33:47 +0000";
layers = (
{
layerId = "D7F5B317-FDDE-425C-99B8-2570E6EC45B4";
paths = (
{
closed = 1;
nodes = (
"350 1 LINE SMOOTH",
"473 1 OFFCURVE",
"529 56 OFFCURVE",
"529 180 CURVE SMOOTH",
"529 247 LINE SMOOTH",
"529 370 OFFCURVE",
"473 426 OFFCURVE",
"350 426 CURVE SMOOTH",
"246 426 LINE SMOOTH",
"183 426 OFFCURVE",
"142 406 OFFCURVE",
"119 363 CURVE",
"119 475 LINE SMOOTH",
"119 562 OFFCURVE",
"148 592 OFFCURVE",
"236 592 CURVE SMOOTH",
"360 592 LINE SMOOTH",
"438 592 OFFCURVE",
"470 568 OFFCURVE",
"476 502 CURVE SMOOTH",
"477 485 OFFCURVE",
"485 476 OFFCURVE",
"502 476 CURVE SMOOTH",
"519 476 OFFCURVE",
"529 485 OFFCURVE",
"528 503 CURVE SMOOTH",
"520 600 OFFCURVE",
"467 644 OFFCURVE",
"360 644 CURVE SMOOTH",
"236 644 LINE SMOOTH",
"119 644 OFFCURVE",
"67 591 OFFCURVE",
"67 475 CURVE SMOOTH",
"67 179 LINE SMOOTH",
"67 56 OFFCURVE",
"122 1 OFFCURVE",
"246 1 CURVE SMOOTH"
);
},
{
closed = 1;
nodes = (
"151 53 OFFCURVE",
"119 85 OFFCURVE",
"119 179 CURVE SMOOTH",
"119 248 LINE SMOOTH",
"119 342 OFFCURVE",
"151 374 OFFCURVE",
"246 374 CURVE SMOOTH",
"350 374 LINE SMOOTH",
"444 374 OFFCURVE",
"477 341 OFFCURVE",
"477 247 CURVE SMOOTH",
"477 180 LINE SMOOTH",
"477 85 OFFCURVE",
"444 53 OFFCURVE",
"350 53 CURVE SMOOTH",
"246 53 LINE SMOOTH"
);
}
);
width = 595;
}
);
leftKerningGroup = six;
rightKerningGroup = sx;
unicode = 0036;
},
{
color = 4;
glyphname = seven;
lastChange = "2016-07-31 01:33:47 +0000";
layers = (
{
layerId = "D7F5B317-FDDE-425C-99B8-2570E6EC45B4";
paths = (
{
closed = 1;
nodes = (
"183 0 OFFCURVE",
"192 9 OFFCURVE",
"192 27 CURVE SMOOTH",
"195 214 OFFCURVE",
"220 275 OFFCURVE",
"315 342 CURVE SMOOTH",
"407 407 OFFCURVE",
"441 482 OFFCURVE",
"441 617 CURVE SMOOTH",
"441 635 OFFCURVE",
"432 644 OFFCURVE",
"415 644 CURVE SMOOTH",
"59 644 LINE SMOOTH",
"42 644 OFFCURVE",
"33 635 OFFCURVE",
"33 618 CURVE SMOOTH",
"33 601 OFFCURVE",
"42 592 OFFCURVE",
"59 592 CURVE SMOOTH",
"389 592 LINE",
"385 489 OFFCURVE",
"357 435 OFFCURVE",
"285 384 CURVE SMOOTH",
"168 302 OFFCURVE",
"143 215 OFFCURVE",
"140 27 CURVE SMOOTH",
"140 9 OFFCURVE",
"149 0 OFFCURVE",
"166 0 CURVE SMOOTH"
);
}
);
width = 475;
}
);
leftKerningGroup = seven;
rightKerningGroup = seven;
unicode = 0037;
},
{
color = 4;
glyphname = eight;
lastChange = "2016-07-31 01:33:47 +0000";
layers = (
{
layerId = "D7F5B317-FDDE-425C-99B8-2570E6EC45B4";
paths = (
{
closed = 1;
nodes = (
"501 361 OFFCURVE",
"523 407 OFFCURVE",
"523 475 CURVE SMOOTH",
"523 591 OFFCURVE",
"470 644 OFFCURVE",
"354 644 CURVE SMOOTH",
"257 644 LINE SMOOTH",
"140 644 OFFCURVE",
"88 591 OFFCURVE",
"88 475 CURVE SMOOTH",
"88 409 OFFCURVE",
"109 363 OFFCURVE",
"155 335 CURVE",
"94 310 OFFCURVE",
"67 258 OFFCURVE",
"67 178 CURVE SMOOTH",
"67 55 OFFCURVE",
"122 0 OFFCURVE",
"246 0 CURVE SMOOTH",
"360 0 LINE SMOOTH",
"483 0 OFFCURVE",
"539 55 OFFCURVE",
"539 178 CURVE SMOOTH",
"539 257 OFFCURVE",
"512 308 OFFCURVE",
"454 334 CURVE"
);
},
{
closed = 1;
nodes = (
"354 592 LINE SMOOTH",
"441 592 OFFCURVE",
"471 562 OFFCURVE",
"471 475 CURVE SMOOTH",
"471 395 OFFCURVE",
"447 357 OFFCURVE",
"369 356 CURVE",
"254 356 LINE",
"170 356 OFFCURVE",
"140 386 OFFCURVE",
"140 475 CURVE SMOOTH",
"140 562 OFFCURVE",
"169 592 OFFCURVE",
"257 592 CURVE SMOOTH"
);
},
{
closed = 1;
nodes = (
"246 52 LINE SMOOTH",
"151 52 OFFCURVE",
"119 84 OFFCURVE",
"119 178 CURVE SMOOTH",
"119 272 OFFCURVE",
"151 304 OFFCURVE",
"246 304 CURVE",
"360 304 LINE",
"455 304 OFFCURVE",
"487 272 OFFCURVE",
"487 178 CURVE SMOOTH",
"487 84 OFFCURVE",
"455 52 OFFCURVE",
"360 52 CURVE SMOOTH"
);
}
);
width = 605;
}
);
leftKerningGroup = eight;
rightKerningGroup = eght;
unicode = 0038;
},
{
color = 4;
glyphname = onesuperior;
lastChange = "2016-07-31 01:37:05 +0000";
layers = (
{
layerId = "D7F5B317-FDDE-425C-99B8-2570E6EC45B4";
paths = (
{
closed = 1;
nodes = (
"205 314 OFFCURVE",
"214 324 OFFCURVE",
"214 340 CURVE SMOOTH",
"214 621 LINE SMOOTH",
"214 636 OFFCURVE",
"206 644 OFFCURVE",
"191 644 CURVE SMOOTH",
"177 644 OFFCURVE",
"169 641 OFFCURVE",
"158 630 CURVE SMOOTH",
"81 556 LINE SMOOTH",
"70 544 OFFCURVE",
"70 531 OFFCURVE",
"81 519 CURVE SMOOTH",
"93 507 OFFCURVE",
"106 506 OFFCURVE",
"118 519 CURVE SMOOTH",
"181 582 LINE",
"162 579 LINE",
"162 340 LINE SMOOTH",
"162 324 OFFCURVE",
"171 314 OFFCURVE",
"188 314 CURVE SMOOTH"
);
}
);
width = 274;
}
);
leftKerningGroup = onesuperior;
leftMetricsKey = one;
rightKerningGroup = onesuperor;
rightMetricsKey = "=one-40";
unicode = 00B9;
},
{
color = 4;
glyphname = twosuperior;
lastChange = "2016-07-31 01:37:05 +0000";
layers = (
{
layerId = "D7F5B317-FDDE-425C-99B8-2570E6EC45B4";
paths = (
{
closed = 1;
nodes = (
"287 314 OFFCURVE",
"296 323 OFFCURVE",
"296 339 CURVE SMOOTH",
"296 356 OFFCURVE",
"287 365 OFFCURVE",
"271 365 CURVE SMOOTH",
"116 365 LINE",
"124 400 OFFCURVE",
"152 415 OFFCURVE",
"194 440 CURVE SMOOTH",
"243 468 OFFCURVE",
"290 491 OFFCURVE",
"290 551 CURVE",
"290 612 OFFCURVE",
"260 642 OFFCURVE",
"198 642 CURVE SMOOTH",
"148 642 LINE SMOOTH",
"95 642 OFFCURVE",
"65 620 OFFCURVE",
"57 575 CURVE SMOOTH",
"54 559 OFFCURVE",
"64 549 OFFCURVE",
"81 549 CURVE SMOOTH",
"96 549 OFFCURVE",
"101 556 OFFCURVE",
"109 572 CURVE SMOOTH",
"113 587 OFFCURVE",
"124 592 OFFCURVE",
"148 592 CURVE SMOOTH",
"198 592 LINE SMOOTH",
"231 592 OFFCURVE",
"239 584 OFFCURVE",
"239 551 CURVE SMOOTH",
"239 523 OFFCURVE",
"218 513 OFFCURVE",
"169 483 CURVE SMOOTH",
"118 454 OFFCURVE",
"62 424 OFFCURVE",
"62 339 CURVE SMOOTH",
"62 323 OFFCURVE",
"72 314 OFFCURVE",
"88 314 CURVE SMOOTH",
"271 314 LINE SMOOTH"
);
}
);
width = 357;
}
);
leftKerningGroup = twosuperior;
leftMetricsKey = two;
rightKerningGroup = twosuperor;
rightMetricsKey = two;
unicode = 00B2;
},
{
color = 4;
glyphname = threesuperior;
lastChange = "2016-07-31 01:37:05 +0000";
layers = (
{
layerId = "D7F5B317-FDDE-425C-99B8-2570E6EC45B4";
paths = (
{
closed = 1;
nodes = (
"201 315 LINE SMOOTH",
"267 315 OFFCURVE",
"299 346 OFFCURVE",
"299 411 CURVE SMOOTH",
"299 477 OFFCURVE",
"268 508 OFFCURVE",
"201 508 CURVE SMOOTH",
"170 508 LINE SMOOTH",
"154 508 OFFCURVE",
"145 500 OFFCURVE",
"145 483 CURVE SMOOTH",
"145 466 OFFCURVE",
"154 458 OFFCURVE",
"170 458 CURVE SMOOTH",
"201 458 LINE SMOOTH",
"239 458 OFFCURVE",
"248 449 OFFCURVE",
"248 411 CURVE SMOOTH",
"248 375 OFFCURVE",
"239 365 OFFCURVE",
"201 365 CURVE SMOOTH",
"148 365 LINE SMOOTH",
"121 365 OFFCURVE",
"108 371 OFFCURVE",
"104 388 CURVE SMOOTH",
"97 405 OFFCURVE",
"93 411 OFFCURVE",
"77 411 CURVE SMOOTH",
"60 411 OFFCURVE",
"50 402 OFFCURVE",
"53 385 CURVE SMOOTH",
"61 337 OFFCURVE",
"92 315 OFFCURVE",
"148 315 CURVE SMOOTH"
);
},
{
closed = 1;
nodes = (
"261 482 OFFCURVE",
"292 508 OFFCURVE",
"292 553 CURVE SMOOTH",
"292 612 OFFCURVE",
"261 643 OFFCURVE",
"199 643 CURVE SMOOTH",
"150 643 LINE SMOOTH",
"96 643 OFFCURVE",
"66 621 OFFCURVE",
"59 577 CURVE SMOOTH",
"56 560 OFFCURVE",
"65 550 OFFCURVE",
"83 550 CURVE SMOOTH",
"99 550 OFFCURVE",
"104 559 OFFCURVE",
"110 573 CURVE",
"114 588 OFFCURVE",
"125 592 OFFCURVE",
"150 592 CURVE SMOOTH",
"199 592 LINE SMOOTH",
"233 592 OFFCURVE",
"241 584 OFFCURVE",
"241 550 CURVE SMOOTH",
"241 525 OFFCURVE",
"231 508 OFFCURVE",
"198 508 CURVE",
"198 478 LINE"
);
}
);
width = 326;
}
);
leftKerningGroup = threesuperior;
leftMetricsKey = three;
rightKerningGroup = threesuperor;
rightMetricsKey = "=three-40";
unicode = 00B3;
},
{
color = 4;
glyphname = foursuperior;
lastChange = "2016-07-31 01:37:05 +0000";
layers = (
{
layerId = "D7F5B317-FDDE-425C-99B8-2570E6EC45B4";
paths = (
{
closed = 1;
nodes = (
"243 314 OFFCURVE",
"252 323 OFFCURVE",
"252 339 CURVE SMOOTH",
"254 618 LINE SMOOTH",
"254 635 OFFCURVE",
"246 644 OFFCURVE",
"230 644 CURVE SMOOTH",
"216 644 OFFCURVE",
"208 639 OFFCURVE",
"199 628 CURVE SMOOTH",
"44 431 LINE SMOOTH",
"36 422 OFFCURVE",
"33 414 OFFCURVE",
"33 404 CURVE SMOOTH",
"33 387 OFFCURVE",
"42 378 OFFCURVE",
"59 378 CURVE SMOOTH",
"282 378 LINE SMOOTH",
"299 378 OFFCURVE",
"307 387 OFFCURVE",
"307 404 CURVE SMOOTH",
"307 421 OFFCURVE",
"299 429 OFFCURVE",
"282 429 CURVE",
"75 429 LINE",
"82 405 LINE",
"226 587 LINE",
"203 584 LINE",
"201 339 LINE SMOOTH",
"201 323 OFFCURVE",
"210 314 OFFCURVE",
"226 314 CURVE SMOOTH"
);
}
);
width = 340;
}
);
leftKerningGroup = foursuperior;
leftMetricsKey = four;
rightKerningGroup = foursuperor;
rightMetricsKey = four;
unicode = 2074;
},
{
color = 4;
glyphname = fraction;
lastChange = "2016-07-31 01:33:47 +0000";
layers = (
{
layerId = "D7F5B317-FDDE-425C-99B8-2570E6EC45B4";
paths = (
{
closed = 1;
nodes = (
"-129 -4 OFFCURVE",
"-121 0 OFFCURVE",
"-116 7 CURVE SMOOTH",
"345 617 LINE SMOOTH",
"347 622 OFFCURVE",
"350 627 OFFCURVE",
"350 633 CURVE SMOOTH",
"350 648 OFFCURVE",
"338 659 OFFCURVE",
"324 659 CURVE SMOOTH",
"315 659 OFFCURVE",
"308 655 OFFCURVE",
"303 648 CURVE SMOOTH",
"-158 38 LINE SMOOTH",
"-161 33 OFFCURVE",
"-163 28 OFFCURVE",
"-163 22 CURVE SMOOTH",
"-163 7 OFFCURVE",
"-152 -4 OFFCURVE",
"-137 -4 CURVE SMOOTH"
);
}
);
width = 250;
}
);
leftKerningGroup = fraction;
rightKerningGroup = fracton;
unicode = 2044;
},
{
export = 0;
glyphname = "zero-kayahli";
lastChange = "2016-07-31 01:33:47 +0000";
layers = (
{
layerId = "D7F5B317-FDDE-425C-99B8-2570E6EC45B4";
paths = (
{
closed = 1;
nodes = (
"433 -5 LINE SMOOTH",
"510 -5 OFFCURVE",
"533 29 OFFCURVE",
"533 124 CURVE SMOOTH",
"533 337 LINE SMOOTH",
"533 432 OFFCURVE",
"510 466 OFFCURVE",
"433 466 CURVE SMOOTH",
"179 466 LINE SMOOTH",
"102 466 OFFCURVE",
"79 432 OFFCURVE",
"79 337 CURVE SMOOTH",
"79 124 LINE SMOOTH",
"79 29 OFFCURVE",
"102 -5 OFFCURVE",
"179 -5 CURVE SMOOTH"
);
},
{
closed = 1;
nodes = (
"143 47 OFFCURVE",
"131 63 OFFCURVE",
"131 108 CURVE SMOOTH",
"131 352 LINE SMOOTH",
"131 397 OFFCURVE",
"143 413 OFFCURVE",
"186 413 CURVE SMOOTH",
"426 413 LINE SMOOTH",
"468 413 OFFCURVE",
"481 397 OFFCURVE",
"481 352 CURVE SMOOTH",
"481 108 LINE SMOOTH",
"481 63 OFFCURVE",
"468 47 OFFCURVE",
"426 47 CURVE SMOOTH",
"186 47 LINE SMOOTH"
);
}
);
width = 611;
}
);
leftKerningGroup = "zero-kayahli";
rightKerningGroup = "zero-kayahl";
unicode = A900;
},
{
color = 4;
glyphname = asterisk;
lastChange = "2016-07-31 01:33:47 +0000";
layers = (
{
layerId = "D7F5B317-FDDE-425C-99B8-2570E6EC45B4";
paths = (
{
closed = 1;
nodes = (
"210 352 OFFCURVE",
"218 360 OFFCURVE",
"218 376 CURVE SMOOTH",
"218 611 LINE SMOOTH",
"218 627 OFFCURVE",
"210 636 OFFCURVE",
"194 636 CURVE SMOOTH",
"178 636 OFFCURVE",
"170 627 OFFCURVE",
"170 611 CURVE SMOOTH",
"170 376 LINE SMOOTH",
"170 360 OFFCURVE",
"178 352 OFFCURVE",
"194 352 CURVE SMOOTH"
);
},
{
closed = 1;
nodes = (
"308 531 LINE SMOOTH",
"322 539 OFFCURVE",
"325 551 OFFCURVE",
"317 565 CURVE SMOOTH",
"309 578 OFFCURVE",
"298 582 OFFCURVE",
"284 574 CURVE SMOOTH",
"80 456 LINE SMOOTH",
"66 448 OFFCURVE",
"63 436 OFFCURVE",
"71 423 CURVE SMOOTH",
"79 409 OFFCURVE",
"91 406 OFFCURVE",
"104 414 CURVE SMOOTH"
);
},
{
closed = 1;
nodes = (
"298 406 OFFCURVE",
"309 409 OFFCURVE",
"317 423 CURVE SMOOTH",
"325 436 OFFCURVE",
"322 448 OFFCURVE",
"308 456 CURVE SMOOTH",
"104 574 LINE SMOOTH",
"91 582 OFFCURVE",
"79 578 OFFCURVE",
"71 565 CURVE SMOOTH",
"63 551 OFFCURVE",
"66 539 OFFCURVE",
"80 531 CURVE SMOOTH",
"284 414 LINE SMOOTH"
);
}
);
width = 388;
}
);
leftKerningGroup = asterisk;
rightKerningGroup = astersk;
unicode = 002A;
},
{
color = 5;
glyphname = comma;
lastChange = "2016-07-31 01:33:47 +0000";
layers = (
{
components = (
{
name = period;
transform = "{1, 0, 0, 1, -17, 0}";
}
);
layerId = "D7F5B317-FDDE-425C-99B8-2570E6EC45B4";
paths = (
{
closed = 1;
nodes = (
"67 -100 OFFCURVE",
"75 -94 OFFCURVE",
"80 -84 CURVE SMOOTH",
"128 13 LINE",
"57 56 LINE",
"33 -76 LINE SMOOTH",
"30 -92 OFFCURVE",
"43 -100 OFFCURVE",
"57 -100 CURVE SMOOTH"
);
}
);
width = 205;
}
);
leftKerningGroup = period;
rightKerningGroup = perod;
rightMetricsKey = period;
unicode = 002C;
},
{
color = 5;
glyphname = exclam;
lastChange = "2016-07-31 01:33:47 +0000";
layers = (
{
components = (
{
name = period;
}
);
layerId = "D7F5B317-FDDE-425C-99B8-2570E6EC45B4";
paths = (
{
closed = 1;
nodes = (
"129 153 OFFCURVE",
"138 161 OFFCURVE",
"138 179 CURVE SMOOTH",
"138 668 LINE SMOOTH",
"138 686 OFFCURVE",
"129 694 OFFCURVE",
"112 694 CURVE SMOOTH",
"94 694 OFFCURVE",
"86 686 OFFCURVE",
"86 668 CURVE SMOOTH",
"86 179 LINE SMOOTH",
"86 161 OFFCURVE",
"94 153 OFFCURVE",
"112 153 CURVE SMOOTH"
);
}
);
width = 222;
}
);
leftKerningGroup = exclam;
leftMetricsKey = period;
rightKerningGroup = exclam;
rightMetricsKey = period;
unicode = 0021;
},
{
color = 5;
glyphname = numbersign;
lastChange = "2016-07-31 01:33:47 +0000";
layers = (
{
layerId = "D7F5B317-FDDE-425C-99B8-2570E6EC45B4";
paths = (
{
closed = 1;
nodes = (
"120 -2 OFFCURVE",
"130 6 OFFCURVE",
"132 16 CURVE SMOOTH",
"186 209 LINE",
"315 209 LINE",
"265 29 LINE SMOOTH",
"264 27 OFFCURVE",
"264 24 OFFCURVE",
"264 22 CURVE SMOOTH",
"264 8 OFFCURVE",
"275 -2 OFFCURVE",
"289 -2 CURVE SMOOTH",
"300 -2 OFFCURVE",
"310 6 OFFCURVE",
"312 16 CURVE SMOOTH",
"366 209 LINE",
"485 209 LINE SMOOTH",
"498 209 OFFCURVE",
"509 219 OFFCURVE",
"509 233 CURVE SMOOTH",
"509 247 OFFCURVE",
"498 257 OFFCURVE",
"485 257 CURVE SMOOTH",
"379 257 LINE",
"421 409 LINE",
"541 409 LINE SMOOTH",
"554 409 OFFCURVE",
"565 419 OFFCURVE",
"565 433 CURVE SMOOTH",
"565 447 OFFCURVE",
"554 457 OFFCURVE",
"541 457 CURVE SMOOTH",
"435 457 LINE",
"482 626 LINE SMOOTH",
"483 628 OFFCURVE",
"483 631 OFFCURVE",
"483 633 CURVE SMOOTH",
"483 647 OFFCURVE",
"472 657 OFFCURVE",
"459 657 CURVE SMOOTH",
"447 657 OFFCURVE",
"438 649 OFFCURVE",
"435 639 CURVE SMOOTH",
"384 457 LINE",
"255 457 LINE",
"302 626 LINE SMOOTH",
"303 628 OFFCURVE",
"303 631 OFFCURVE",
"303 633 CURVE SMOOTH",
"303 647 OFFCURVE",
"292 657 OFFCURVE",
"279 657 CURVE SMOOTH",
"267 657 OFFCURVE",
"258 649 OFFCURVE",
"255 639 CURVE SMOOTH",
"204 457 LINE",
"114 457 LINE SMOOTH",
"100 457 OFFCURVE",
"89 447 OFFCURVE",
"89 433 CURVE SMOOTH",
"89 419 OFFCURVE",
"100 409 OFFCURVE",
"114 409 CURVE SMOOTH",
"191 409 LINE",
"149 257 LINE",
"58 257 LINE SMOOTH",
"44 257 OFFCURVE",
"33 247 OFFCURVE",
"33 233 CURVE SMOOTH",
"33 219 OFFCURVE",
"44 209 OFFCURVE",
"58 209 CURVE SMOOTH",
"135 209 LINE",
"85 29 LINE SMOOTH",
"84 27 OFFCURVE",
"84 24 OFFCURVE",
"84 22 CURVE SMOOTH",
"84 8 OFFCURVE",
"95 -2 OFFCURVE",
"109 -2 CURVE SMOOTH"
);
},
{
closed = 1;
nodes = (
"241 409 LINE",
"371 409 LINE",
"329 257 LINE",
"199 257 LINE"
);
}
);
width = 578;
}
);
leftKerningGroup = numbersign;
rightKerningGroup = numbersgn;
unicode = 0023;
},
{
color = 5;
glyphname = period;
lastChange = "2016-07-31 01:33:47 +0000";
layers = (
{
layerId = "D7F5B317-FDDE-425C-99B8-2570E6EC45B4";
paths = (
{
closed = 1;
nodes = (
"121 0 LINE SMOOTH",
"139 0 OFFCURVE",
"149 10 OFFCURVE",
"149 29 CURVE SMOOTH",
"149 48 LINE SMOOTH",
"149 67 OFFCURVE",
"139 77 OFFCURVE",
"121 77 CURVE SMOOTH",
"102 77 LINE SMOOTH",
"84 77 OFFCURVE",
"73 67 OFFCURVE",
"73 48 CURVE SMOOTH",
"73 29 LINE SMOOTH",
"73 10 OFFCURVE",
"84 0 OFFCURVE",
"102 0 CURVE SMOOTH"
);
}
);
width = 222;
}
);
leftKerningGroup = period;
rightKerningGroup = perod;
unicode = 002E;
},
{
color = 5;
glyphname = question;
lastChange = "2016-07-31 01:37:05 +0000";
layers = (
{
components = (
{
name = period;
transform = "{1, 0, 0, 1, 112, 0}";
}
);
layerId = "D7F5B317-FDDE-425C-99B8-2570E6EC45B4";
paths = (
{
closed = 1;
nodes = (
"239 139 OFFCURVE",
"248 148 OFFCURVE",
"248 165 CURVE SMOOTH",
"248 245 OFFCURVE",
"280 266 OFFCURVE",
"324 295 CURVE SMOOTH",
"369 324 OFFCURVE",
"425 360 OFFCURVE",
"425 469 CURVE SMOOTH",
"425 586 OFFCURVE",
"373 638 OFFCURVE",
"256 638 CURVE SMOOTH",
"189 638 LINE SMOOTH",
"73 638 OFFCURVE",
"20 585 OFFCURVE",
"20 469 CURVE SMOOTH",
"20 452 OFFCURVE",
"29 443 OFFCURVE",
"46 443 CURVE SMOOTH",
"63 443 OFFCURVE",
"72 452 OFFCURVE",
"72 469 CURVE SMOOTH",
"72 556 OFFCURVE",
"102 586 OFFCURVE",
"189 586 CURVE SMOOTH",
"256 586 LINE SMOOTH",
"343 586 OFFCURVE",
"373 556 OFFCURVE",
"373 469 CURVE SMOOTH",
"373 389 OFFCURVE",
"341 368 OFFCURVE",
"297 339 CURVE SMOOTH",
"252 310 OFFCURVE",
"196 274 OFFCURVE",
"196 165 CURVE SMOOTH",
"196 148 OFFCURVE",
"205 139 OFFCURVE",
"222 139 CURVE SMOOTH"
);
}
);
width = 486;
}
);
leftKerningGroup = quesion;
rightKerningGroup = queston;
rightMetricsKey = two;
unicode = 003F;
},
{
color = 5;
glyphname = quotesingle;
lastChange = "2016-07-31 01:33:47 +0000";
layers = (
{
layerId = "D7F5B317-FDDE-425C-99B8-2570E6EC45B4";
paths = (
{
closed = 1;
nodes = (
"111 460 OFFCURVE",
"122 470 OFFCURVE",
"122 484 CURVE SMOOTH",
"122 688 LINE SMOOTH",
"122 702 OFFCURVE",
"111 712 OFFCURVE",
"98 712 CURVE SMOOTH",
"84 712 OFFCURVE",
"73 702 OFFCURVE",
"73 688 CURVE SMOOTH",
"73 484 LINE SMOOTH",
"73 470 OFFCURVE",
"84 460 OFFCURVE",
"98 460 CURVE SMOOTH"
);
}
);
width = 195;
}
);
leftKerningGroup = quotesingle;
leftMetricsKey = period;
rightKerningGroup = quotesngle;
rightMetricsKey = period;
unicode = 0027;
},
{
color = 5;
glyphname = slash;
lastChange = "2016-07-31 01:33:47 +0000";
layers = (
{
layerId = "D7F5B317-FDDE-425C-99B8-2570E6EC45B4";
paths = (
{
closed = 1;
nodes = (
"86 -137 OFFCURVE",
"95 -131 OFFCURVE",
"98 -117 CURVE SMOOTH",
"303 681 LINE SMOOTH",
"308 701 OFFCURVE",
"299 714 OFFCURVE",
"278 714 CURVE SMOOTH",
"264 714 OFFCURVE",
"256 708 OFFCURVE",
"253 694 CURVE SMOOTH",
"48 -104 LINE SMOOTH",
"43 -123 OFFCURVE",
"52 -137 OFFCURVE",
"73 -137 CURVE SMOOTH"
);
}
);
width = 341;
}
);
leftKerningGroup = slash;
rightKerningGroup = slash;
unicode = 002F;
},
{
color = 5;
glyphname = braceleft;
lastChange = "2016-07-31 01:33:47 +0000";
layers = (
{
layerId = "D7F5B317-FDDE-425C-99B8-2570E6EC45B4";
paths = (
{
closed = 1;
nodes = (
"305 -164 OFFCURVE",
"316 -154 OFFCURVE",
"316 -140 CURVE SMOOTH",
"316 -126 OFFCURVE",
"305 -116 OFFCURVE",
"292 -116 CURVE SMOOTH",
"203 -116 OFFCURVE",
"182 -93 OFFCURVE",
"182 4 CURVE SMOOTH",
"182 191 LINE SMOOTH",
"182 205 OFFCURVE",
"176 214 OFFCURVE",
"163 219 CURVE SMOOTH",
"103 241 LINE",
"103 251 LINE",
"163 274 LINE SMOOTH",
"176 279 OFFCURVE",
"182 288 OFFCURVE",
"182 302 CURVE SMOOTH",
"182 489 LINE SMOOTH",
"182 594 OFFCURVE",
"203 619 OFFCURVE",
"292 619 CURVE SMOOTH",
"305 619 OFFCURVE",
"316 629 OFFCURVE",
"316 643 CURVE SMOOTH",
"316 657 OFFCURVE",
"305 667 OFFCURVE",
"292 667 CURVE SMOOTH",
"174 667 OFFCURVE",
"133 621 OFFCURVE",
"133 489 CURVE SMOOTH",
"133 314 LINE",
"72 290 LINE SMOOTH",
"59 285 OFFCURVE",
"53 276 OFFCURVE",
"53 262 CURVE SMOOTH",
"53 230 LINE SMOOTH",
"53 216 OFFCURVE",
"59 207 OFFCURVE",
"73 202 CURVE SMOOTH",
"133 179 LINE",
"133 4 LINE SMOOTH",
"133 -120 OFFCURVE",
"175 -164 OFFCURVE",
"292 -164 CURVE SMOOTH"
);
}
);
width = 326;
}
);
leftKerningGroup = parenleft;
rightKerningGroup = parenleft;
unicode = 007B;
},
{
color = 5;
glyphname = bracketleft;
lastChange = "2016-07-31 01:33:47 +0000";
layers = (
{
layerId = "D7F5B317-FDDE-425C-99B8-2570E6EC45B4";
paths = (
{
closed = 1;
nodes = (
"162 -164 LINE SMOOTH",
"175 -164 OFFCURVE",
"186 -154 OFFCURVE",
"186 -140 CURVE SMOOTH",
"186 -126 OFFCURVE",
"175 -116 OFFCURVE",
"162 -116 CURVE SMOOTH",
"102 -116 LINE",
"102 619 LINE",
"162 619 LINE SMOOTH",
"175 619 OFFCURVE",
"186 629 OFFCURVE",
"186 643 CURVE SMOOTH",
"186 657 OFFCURVE",
"175 667 OFFCURVE",
"162 667 CURVE SMOOTH",
"78 667 LINE SMOOTH",
"62 667 OFFCURVE",
"53 659 OFFCURVE",
"53 643 CURVE SMOOTH",
"53 -140 LINE SMOOTH",
"53 -156 OFFCURVE",
"62 -164 OFFCURVE",
"78 -164 CURVE SMOOTH"
);
}
);
width = 196;
}
);
leftKerningGroup = parenleft;
rightKerningGroup = parenleft;
unicode = 005B;
},
{
color = 5;
glyphname = parenleft;
lastChange = "2016-07-31 01:33:47 +0000";
layers = (
{
layerId = "D7F5B317-FDDE-425C-99B8-2570E6EC45B4";
paths = (
{
closed = 1;
nodes = (
"245 -164 OFFCURVE",
"256 -154 OFFCURVE",
"256 -140 CURVE SMOOTH",
"256 -126 OFFCURVE",
"245 -116 OFFCURVE",
"232 -116 CURVE SMOOTH",
"137 -116 OFFCURVE",
"102 -72 OFFCURVE",
"102 54 CURVE SMOOTH",
"102 439 LINE SMOOTH",
"102 572 OFFCURVE",
"137 619 OFFCURVE",
"232 619 CURVE SMOOTH",
"245 619 OFFCURVE",
"256 629 OFFCURVE",
"256 643 CURVE SMOOTH",
"256 657 OFFCURVE",
"245 667 OFFCURVE",
"232 667 CURVE SMOOTH",
"107 667 OFFCURVE",
"53 598 OFFCURVE",
"53 439 CURVE SMOOTH",
"53 54 LINE SMOOTH",
"53 -98 OFFCURVE",
"107 -164 OFFCURVE",
"232 -164 CURVE SMOOTH"
);
}
);
width = 266;
}
);
leftKerningGroup = parenleft;
rightKerningGroup = parenleft;
unicode = 0028;
},
{
color = 5;
glyphname = braceleft.case;
lastChange = "2016-07-31 01:33:47 +0000";
layers = (
{
layerId = "D7F5B317-FDDE-425C-99B8-2570E6EC45B4";
paths = (
{
closed = 1;
nodes = (
"307 -64 OFFCURVE",
"316 -55 OFFCURVE",
"316 -40 CURVE SMOOTH",
"316 -25 OFFCURVE",
"307 -16 OFFCURVE",
"292 -16 CURVE SMOOTH",
"203 -16 OFFCURVE",
"182 7 OFFCURVE",
"182 104 CURVE SMOOTH",
"182 261 LINE SMOOTH",
"182 275 OFFCURVE",
"176 284 OFFCURVE",
"163 289 CURVE SMOOTH",
"103 311 LINE",
"103 321 LINE",
"163 344 LINE SMOOTH",
"176 349 OFFCURVE",
"182 358 OFFCURVE",
"182 372 CURVE SMOOTH",
"182 529 LINE SMOOTH",
"182 634 OFFCURVE",
"203 659 OFFCURVE",
"292 659 CURVE SMOOTH",
"307 659 OFFCURVE",
"316 668 OFFCURVE",
"316 683 CURVE SMOOTH",
"316 698 OFFCURVE",
"307 707 OFFCURVE",
"292 707 CURVE SMOOTH",
"174 707 OFFCURVE",
"133 661 OFFCURVE",
"133 529 CURVE SMOOTH",
"133 384 LINE",
"72 360 LINE SMOOTH",
"59 355 OFFCURVE",
"53 346 OFFCURVE",
"53 332 CURVE SMOOTH",
"53 300 LINE SMOOTH",
"53 286 OFFCURVE",
"59 277 OFFCURVE",
"73 272 CURVE SMOOTH",
"133 249 LINE",
"133 104 LINE SMOOTH",
"133 -20 OFFCURVE",
"175 -64 OFFCURVE",
"292 -64 CURVE SMOOTH"
);
}
);
width = 326;
}
);
leftKerningGroup = parenleft;
rightKerningGroup = parenleft;
},
{
color = 5;
glyphname = bracketleft.case;
lastChange = "2016-07-31 01:33:47 +0000";
layers = (
{
layerId = "D7F5B317-FDDE-425C-99B8-2570E6EC45B4";
paths = (
{
closed = 1;
nodes = (
"162 -64 LINE SMOOTH",
"175 -64 OFFCURVE",
"186 -54 OFFCURVE",
"186 -40 CURVE SMOOTH",
"186 -26 OFFCURVE",
"175 -16 OFFCURVE",
"162 -16 CURVE SMOOTH",
"102 -16 LINE",
"102 659 LINE",
"162 659 LINE SMOOTH",
"175 659 OFFCURVE",
"186 669 OFFCURVE",
"186 683 CURVE SMOOTH",
"186 697 OFFCURVE",
"175 707 OFFCURVE",
"162 707 CURVE SMOOTH",
"78 707 LINE SMOOTH",
"62 707 OFFCURVE",
"53 699 OFFCURVE",
"53 683 CURVE SMOOTH",
"53 -40 LINE SMOOTH",
"53 -56 OFFCURVE",
"62 -64 OFFCURVE",
"78 -64 CURVE SMOOTH"
);
}
);
width = 196;
}
);
leftKerningGroup = parenleft;
rightKerningGroup = parenleft;
},
{
color = 5;
glyphname = parenleft.case;
lastChange = "2016-07-31 01:33:47 +0000";
layers = (
{
layerId = "D7F5B317-FDDE-425C-99B8-2570E6EC45B4";
paths = (
{
closed = 1;
nodes = (
"245 -64 OFFCURVE",
"256 -54 OFFCURVE",
"256 -40 CURVE SMOOTH",
"256 -26 OFFCURVE",
"245 -16 OFFCURVE",
"232 -16 CURVE SMOOTH",
"137 -16 OFFCURVE",
"102 28 OFFCURVE",
"102 154 CURVE SMOOTH",
"102 479 LINE SMOOTH",
"102 612 OFFCURVE",
"137 659 OFFCURVE",
"232 659 CURVE SMOOTH",
"245 659 OFFCURVE",
"256 669 OFFCURVE",
"256 683 CURVE SMOOTH",
"256 697 OFFCURVE",
"245 707 OFFCURVE",
"232 707 CURVE SMOOTH",
"107 707 OFFCURVE",
"53 638 OFFCURVE",
"53 479 CURVE SMOOTH",
"53 154 LINE SMOOTH",
"53 2 OFFCURVE",
"107 -64 OFFCURVE",
"232 -64 CURVE SMOOTH"
);
}
);
width = 266;
}
);
leftKerningGroup = parenleft;
rightKerningGroup = parenleft;
},
{
color = 5;
glyphname = emdash;
lastChange = "2016-07-31 01:33:47 +0000";
layers = (
{
layerId = "D7F5B317-FDDE-425C-99B8-2570E6EC45B4";
paths = (
{
closed = 1;
nodes = (
"717 245 LINE SMOOTH",
"731 245 OFFCURVE",
"742 256 OFFCURVE",
"742 270 CURVE SMOOTH",
"742 283 OFFCURVE",
"731 294 OFFCURVE",
"717 294 CURVE SMOOTH",
"98 294 LINE SMOOTH",
"84 294 OFFCURVE",
"73 283 OFFCURVE",
"73 270 CURVE SMOOTH",
"73 256 OFFCURVE",
"84 245 OFFCURVE",
"98 245 CURVE SMOOTH"
);
}
);
width = 815;
}
);
leftKerningGroup = hyphen;
leftMetricsKey = period;
rightKerningGroup = hyphen;
rightMetricsKey = period;
unicode = 2014;
},
{
color = 5;
glyphname = endash;
lastChange = "2016-07-31 01:33:47 +0000";
layers = (
{
layerId = "D7F5B317-FDDE-425C-99B8-2570E6EC45B4";
paths = (
{
closed = 1;
nodes = (
"463 247 LINE SMOOTH",
"479 247 OFFCURVE",
"487 255 OFFCURVE",
"487 271 CURVE SMOOTH",
"487 287 OFFCURVE",
"479 295 OFFCURVE",
"463 295 CURVE SMOOTH",
"98 295 LINE SMOOTH",
"82 295 OFFCURVE",
"73 287 OFFCURVE",
"73 271 CURVE SMOOTH",
"73 255 OFFCURVE",
"82 247 OFFCURVE",
"98 247 CURVE SMOOTH"
);
}
);
width = 560;
}
);
leftKerningGroup = hyphen;
leftMetricsKey = period;
rightKerningGroup = hyphen;
rightMetricsKey = period;
unicode = 2013;
},
{
color = 5;
glyphname = hyphen;
lastChange = "2016-07-31 01:33:47 +0000";
layers = (
{
layerId = "D7F5B317-FDDE-425C-99B8-2570E6EC45B4";
paths = (
{
closed = 1;
nodes = (
"374 246 LINE SMOOTH",
"387 246 OFFCURVE",
"398 256 OFFCURVE",
"398 270 CURVE SMOOTH",
"398 284 OFFCURVE",
"387 294 OFFCURVE",
"374 294 CURVE SMOOTH",
"98 294 LINE SMOOTH",
"84 294 OFFCURVE",
"73 284 OFFCURVE",
"73 270 CURVE SMOOTH",
"73 256 OFFCURVE",
"84 246 OFFCURVE",
"98 246 CURVE SMOOTH"
);
}
);
width = 471;
}
);
leftKerningGroup = hyphen;
leftMetricsKey = period;
rightKerningGroup = hyphen;
rightMetricsKey = period;
unicode = 002D;
},
{
color = 5;
glyphname = guilsinglleft;
lastChange = "2016-07-31 01:33:47 +0000";
layers = (
{
layerId = "D7F5B317-FDDE-425C-99B8-2570E6EC45B4";
paths = (
{
closed = 1;
nodes = (
"309 118 OFFCURVE",
"320 128 OFFCURVE",
"320 142 CURVE SMOOTH",
"320 150 OFFCURVE",
"316 156 OFFCURVE",
"311 161 CURVE SMOOTH",
"149 294 LINE",
"311 427 LINE SMOOTH",
"316 432 OFFCURVE",
"320 438 OFFCURVE",
"320 446 CURVE SMOOTH",
"320 460 OFFCURVE",
"309 470 OFFCURVE",
"296 470 CURVE SMOOTH",
"289 470 OFFCURVE",
"284 468 OFFCURVE",
"280 465 CURVE SMOOTH",
"94 311 LINE SMOOTH",
"81 301 OFFCURVE",
"81 287 OFFCURVE",
"94 277 CURVE SMOOTH",
"280 123 LINE SMOOTH",
"284 120 OFFCURVE",
"289 118 OFFCURVE",
"296 118 CURVE SMOOTH"
);
}
);
width = 403;
}
);
leftKerningGroup = guilsinglleft;
rightKerningGroup = gulsnglleft;
unicode = 2039;
},
{
color = 5;
glyphname = quotesinglbase;
lastChange = "2016-07-31 01:37:05 +0000";
layers = (
{
components = (
{
name = period;
transform = "{1, 0, 0, 1, -20, -1}";
}
);
layerId = "D7F5B317-FDDE-425C-99B8-2570E6EC45B4";
paths = (
{
closed = 1;
nodes = (
"68 -102 OFFCURVE",
"75 -97 OFFCURVE",
"80 -85 CURVE SMOOTH",
"127 16 LINE",
"82 35 LINE",
"36 -65 LINE SMOOTH",
"27 -85 OFFCURVE",
"36 -102 OFFCURVE",
"57 -102 CURVE SMOOTH"
);
}
);
width = 202;
}
);
leftKerningGroup = period;
leftMetricsKey = comma;
rightKerningGroup = perod;
rightMetricsKey = comma;
unicode = 201A;
},
{
color = 4;
glyphname = cedi;
lastChange = "2016-07-31 01:33:47 +0000";
layers = (
{
layerId = "D7F5B317-FDDE-425C-99B8-2570E6EC45B4";
paths = (
{
closed = 1;
nodes = (
"384 0 LINE SMOOTH",
"511 0 OFFCURVE",
"568 52 OFFCURVE",
"571 176 CURVE SMOOTH",
"572 193 OFFCURVE",
"563 202 OFFCURVE",
"546 202 CURVE SMOOTH",
"529 202 OFFCURVE",
"520 193 OFFCURVE",
"519 176 CURVE SMOOTH",
"516 82 OFFCURVE",
"483 52 OFFCURVE",
"384 52 CURVE SMOOTH",
"288 52 LINE SMOOTH",
"173 52 OFFCURVE",
"132 93 OFFCURVE",
"132 208 CURVE SMOOTH",
"132 412 LINE SMOOTH",
"132 528 OFFCURVE",
"172 568 OFFCURVE",
"287 568 CURVE SMOOTH",
"384 568 LINE SMOOTH",
"483 568 OFFCURVE",
"517 538 OFFCURVE",
"519 444 CURVE SMOOTH",
"520 427 OFFCURVE",
"529 418 OFFCURVE",
"546 418 CURVE SMOOTH",
"563 418 OFFCURVE",
"572 427 OFFCURVE",
"571 444 CURVE SMOOTH",
"567 568 OFFCURVE",
"511 620 OFFCURVE",
"384 620 CURVE SMOOTH",
"287 620 LINE SMOOTH",
"144 620 OFFCURVE",
"80 558 OFFCURVE",
"80 412 CURVE SMOOTH",
"80 208 LINE SMOOTH",
"80 63 OFFCURVE",
"144 0 OFFCURVE",
"288 0 CURVE SMOOTH"
);
},
{
closed = 1;
nodes = (
"365 -60 CURVE SMOOTH",
"365 694 LINE SMOOTH",
"365 710 OFFCURVE",
"356 718 OFFCURVE",
"340 718 CURVE SMOOTH",
"324 718 OFFCURVE",
"316 710 OFFCURVE",
"316 694 CURVE SMOOTH",
"316 -60 LINE SMOOTH",
"316 -76 OFFCURVE",
"324 -84 OFFCURVE",
"340 -84 CURVE SMOOTH",
"356 -84 OFFCURVE",
"365 -76 OFFCURVE"
);
}
);
width = 651;
}
);
leftKerningGroup = O;
leftMetricsKey = O;
rightKerningGroup = C;
rightMetricsKey = O;
unicode = 20B5;
},
{
color = 5;
glyphname = cent;
lastChange = "2016-07-31 01:33:47 +0000";
layers = (
{
layerId = "D7F5B317-FDDE-425C-99B8-2570E6EC45B4";
paths = (
{
closed = 1;
nodes = (
"282 65 LINE SMOOTH",
"383 65 OFFCURVE",
"430 102 OFFCURVE",
"430 185 CURVE SMOOTH",
"430 200 OFFCURVE",
"419 211 OFFCURVE",
"404 211 CURVE SMOOTH",
"389 211 OFFCURVE",
"378 200 OFFCURVE",
"378 185 CURVE SMOOTH",
"378 134 OFFCURVE",
"356 117 OFFCURVE",
"282 117 CURVE SMOOTH",
"226 117 LINE SMOOTH",
"140 117 OFFCURVE",
"112 145 OFFCURVE",
"112 229 CURVE SMOOTH",
"112 312 LINE SMOOTH",
"112 398 OFFCURVE",
"141 426 OFFCURVE",
"226 425 CURVE SMOOTH",
"282 425 LINE SMOOTH",
"356 425 OFFCURVE",
"378 408 OFFCURVE",
"378 357 CURVE SMOOTH",
"378 342 OFFCURVE",
"389 331 OFFCURVE",
"404 331 CURVE SMOOTH",
"419 331 OFFCURVE",
"430 342 OFFCURVE",
"430 357 CURVE SMOOTH",
"430 440 OFFCURVE",
"383 477 OFFCURVE",
"282 477 CURVE SMOOTH",
"226 477 LINE SMOOTH",
"112 478 OFFCURVE",
"60 427 OFFCURVE",
"60 312 CURVE SMOOTH",
"60 229 LINE SMOOTH",
"60 115 OFFCURVE",
"111 65 OFFCURVE",
"226 65 CURVE SMOOTH"
);
},
{
closed = 1;
nodes = (
"278 0 CURVE SMOOTH",
"278 541 LINE SMOOTH",
"278 557 OFFCURVE",
"270 565 OFFCURVE",
"254 565 CURVE SMOOTH",
"238 565 OFFCURVE",
"230 557 OFFCURVE",
"230 541 CURVE SMOOTH",
"230 0 LINE SMOOTH",
"230 -16 OFFCURVE",
"238 -24 OFFCURVE",
"254 -24 CURVE SMOOTH",
"270 -24 OFFCURVE",
"278 -16 OFFCURVE"
);
}
);
width = 470;
}
);
leftKerningGroup = o;
leftMetricsKey = "=c-20";
rightKerningGroup = c;
rightMetricsKey = "=c-20";
unicode = 00A2;
},
{
color = 4;
glyphname = colonsign;
lastChange = "2016-07-31 01:33:47 +0000";
layers = (
{
components = (
{
name = C;
}
);
layerId = "D7F5B317-FDDE-425C-99B8-2570E6EC45B4";
paths = (
{
closed = 1;
nodes = (
"210 -59 CURVE SMOOTH",
"400 672 LINE SMOOTH",
"404 689 OFFCURVE",
"397 699 OFFCURVE",
"379 701 CURVE SMOOTH",
"367 702 OFFCURVE",
"359 697 OFFCURVE",
"355 684 CURVE SMOOTH",
"167 -47 LINE SMOOTH",
"163 -63 OFFCURVE",
"170 -75 OFFCURVE",
"186 -76 CURVE SMOOTH",
"199 -77 OFFCURVE",
"207 -72 OFFCURVE"
);
},
{
closed = 1;
nodes = (
"334 -59 CURVE SMOOTH",
"523 672 LINE SMOOTH",
"527 689 OFFCURVE",
"520 699 OFFCURVE",
"503 701 CURVE SMOOTH",
"490 702 OFFCURVE",
"482 697 OFFCURVE",
"479 684 CURVE SMOOTH",
"290 -47 LINE SMOOTH",
"286 -63 OFFCURVE",
"293 -75 OFFCURVE",
"310 -76 CURVE SMOOTH",
"322 -77 OFFCURVE",
"330 -72 OFFCURVE"
);
}
);
width = 675;
}
);
leftKerningGroup = O;
rightKerningGroup = C;
unicode = 20A1;
},
{
color = 5;
glyphname = currency;
lastChange = "2016-07-31 01:33:47 +0000";
layers = (
{
layerId = "D7F5B317-FDDE-425C-99B8-2570E6EC45B4";
paths = (
{
closed = 1;
nodes = (
"108 145 CURVE SMOOTH",
"160 198 LINE",
"191 175 OFFCURVE",
"229 161 OFFCURVE",
"272 161 CURVE SMOOTH",
"316 161 OFFCURVE",
"354 175 OFFCURVE",
"385 198 CURVE",
"438 145 LINE SMOOTH",
"443 140 OFFCURVE",
"449 137 OFFCURVE",
"456 137 CURVE SMOOTH",
"471 137 OFFCURVE",
"482 148 OFFCURVE",
"482 163 CURVE SMOOTH",
"482 170 OFFCURVE",
"480 177 OFFCURVE",
"475 181 CURVE SMOOTH",
"422 235 LINE",
"444 266 OFFCURVE",
"458 305 OFFCURVE",
"458 347 CURVE SMOOTH",
"458 389 OFFCURVE",
"444 428 OFFCURVE",
"422 458 CURVE",
"474 512 LINE SMOOTH",
"479 517 OFFCURVE",
"482 523 OFFCURVE",
"482 530 CURVE SMOOTH",
"482 545 OFFCURVE",
"470 556 OFFCURVE",
"456 556 CURVE SMOOTH",
"448 556 OFFCURVE",
"442 554 OFFCURVE",
"437 549 CURVE SMOOTH",
"385 495 LINE",
"353 519 OFFCURVE",
"315 532 OFFCURVE",
"272 532 CURVE SMOOTH",
"230 532 OFFCURVE",
"191 519 OFFCURVE",
"160 496 CURVE",
"108 549 LINE SMOOTH",
"103 554 OFFCURVE",
"97 557 OFFCURVE",
"90 557 CURVE SMOOTH",
"75 557 OFFCURVE",
"64 545 OFFCURVE",
"64 531 CURVE SMOOTH",
"64 523 OFFCURVE",
"66 517 OFFCURVE",
"71 512 CURVE SMOOTH",
"123 459 LINE",
"100 429 OFFCURVE",
"87 390 OFFCURVE",
"87 347 CURVE SMOOTH",
"87 304 OFFCURVE",
"100 265 OFFCURVE",
"123 234 CURVE",
"71 181 LINE SMOOTH",
"66 177 OFFCURVE",
"63 170 OFFCURVE",
"63 163 CURVE SMOOTH",
"63 148 OFFCURVE",
"75 137 OFFCURVE",
"89 137 CURVE SMOOTH",
"97 137 OFFCURVE",
"103 140 OFFCURVE"
);
},
{
closed = 1;
nodes = (
"139 347 CURVE SMOOTH",
"139 422 OFFCURVE",
"196 480 OFFCURVE",
"272 480 CURVE SMOOTH",
"348.002 480 OFFCURVE",
"406 422 OFFCURVE",
"406 347 CURVE SMOOTH",
"406 271 OFFCURVE",
"348 213 OFFCURVE",
"272 213 CURVE SMOOTH",
"196 213 OFFCURVE",
"139 271 OFFCURVE"
);
}
);
width = 539;
}
);
leftKerningGroup = currency;
rightKerningGroup = currency;
unicode = 00A4;
},
{
color = 5;
glyphname = dollar;
lastChange = "2016-07-31 01:33:47 +0000";
layers = (
{
layerId = "D7F5B317-FDDE-425C-99B8-2570E6EC45B4";
paths = (
{
closed = 1;
nodes = (
"389 0 LINE SMOOTH",
"507 0 OFFCURVE",
"560 53 OFFCURVE",
"560 171 CURVE SMOOTH",
"560 289 OFFCURVE",
"507 342 OFFCURVE",
"389 342 CURVE SMOOTH",
"266 342 LINE SMOOTH",
"183 342 OFFCURVE",
"155 376 OFFCURVE",
"155 458 CURVE SMOOTH",
"155 540 OFFCURVE",
"183 568 OFFCURVE",
"265 568 CURVE SMOOTH",
"386 568 LINE SMOOTH",
"468 568 OFFCURVE",
"496 540 OFFCURVE",
"496 459 CURVE SMOOTH",
"496 443 OFFCURVE",
"506 433 OFFCURVE",
"522 433 CURVE SMOOTH",
"538 433 OFFCURVE",
"548 443 OFFCURVE",
"548 459 CURVE SMOOTH",
"548 570 OFFCURVE",
"498 620 OFFCURVE",
"386 620 CURVE SMOOTH",
"265 620 LINE SMOOTH",
"153 620 OFFCURVE",
"103 570 OFFCURVE",
"103 458 CURVE SMOOTH",
"103 346 OFFCURVE",
"153 290 OFFCURVE",
"266 290 CURVE SMOOTH",
"389 290 LINE SMOOTH",
"478 290 OFFCURVE",
"508 260 OFFCURVE",
"508 171 CURVE SMOOTH",
"508 82 OFFCURVE",
"478 52 OFFCURVE",
"389 52 CURVE SMOOTH",
"251 52 LINE SMOOTH",
"162 52 OFFCURVE",
"132 82 OFFCURVE",
"132 171 CURVE SMOOTH",
"132 187 OFFCURVE",
"122 197 OFFCURVE",
"106 197 CURVE SMOOTH",
"90 197 OFFCURVE",
"80 187 OFFCURVE",
"80 171 CURVE SMOOTH",
"80 53 OFFCURVE",
"133 0 OFFCURVE",
"251 0 CURVE SMOOTH"
);
},
{
closed = 1;
nodes = (
"347 -60 CURVE SMOOTH",
"347 305 LINE",
"351 322 LINE",
"351 694 LINE SMOOTH",
"351 710 OFFCURVE",
"343 718 OFFCURVE",
"327 718 CURVE SMOOTH",
"311 718 OFFCURVE",
"302 710 OFFCURVE",
"302 694 CURVE SMOOTH",
"302 326 LINE",
"298 309 LINE",
"298 -60 LINE SMOOTH",
"298 -76 OFFCURVE",
"306 -84 OFFCURVE",
"322 -84 CURVE SMOOTH",
"338 -84 OFFCURVE",
"347 -76 OFFCURVE"
);
}
);
width = 640;
}
);
leftKerningGroup = S;
leftMetricsKey = S;
rightKerningGroup = S;
rightMetricsKey = S;
unicode = 0024;
},
{
color = 4;
glyphname = dong;
lastChange = "2016-07-31 01:33:47 +0000";
layers = (
{
layerId = "D7F5B317-FDDE-425C-99B8-2570E6EC45B4";
paths = (
{
closed = 1;
nodes = (
"234 116 LINE SMOOTH",
"314 116 OFFCURVE",
"362 152 OFFCURVE",
"372 220 CURVE",
"348 223 LINE",
"348 184 OFFCURVE",
"301 165 OFFCURVE",
"234 165 CURVE SMOOTH",
"212 165 LINE SMOOTH",
"148 165 OFFCURVE",
"129 185 OFFCURVE",
"129 248 CURVE SMOOTH",
"129 314 LINE SMOOTH",
"129 377 OFFCURVE",
"149 397 OFFCURVE",
"212 397 CURVE SMOOTH",
"348 397 LINE SMOOTH",
"364 397 OFFCURVE",
"373 406 OFFCURVE",
"373 422 CURVE SMOOTH",
"373 438 OFFCURVE",
"364 446 OFFCURVE",
"348 446 CURVE SMOOTH",
"212 446 LINE SMOOTH",
"122 446 OFFCURVE",
"80 404 OFFCURVE",
"80 314 CURVE SMOOTH",
"80 248 LINE SMOOTH",
"80 158 OFFCURVE",
"121 116 OFFCURVE",
"212 116 CURVE SMOOTH"
);
},
{
closed = 1;
nodes = (
"372 28 LINE SMOOTH",
"388 28 OFFCURVE",
"396 36 OFFCURVE",
"396 52 CURVE SMOOTH",
"396 68 OFFCURVE",
"388 76 OFFCURVE",
"372 76 CURVE SMOOTH",
"111 76 LINE SMOOTH",
"95 76 OFFCURVE",
"87 68 OFFCURVE",
"87 52 CURVE SMOOTH",
"87 36 OFFCURVE",
"95 28 OFFCURVE",
"111 28 CURVE SMOOTH"
);
},
{
closed = 1;
nodes = (
"397 141 CURVE SMOOTH",
"397 609 LINE SMOOTH",
"397 625 OFFCURVE",
"389 633 OFFCURVE",
"373 633 CURVE SMOOTH",
"357 633 OFFCURVE",
"348 625 OFFCURVE",
"348 609 CURVE SMOOTH",
"348 141 LINE SMOOTH",
"348 125 OFFCURVE",
"357 116 OFFCURVE",
"373 116 CURVE SMOOTH",
"389 116 OFFCURVE",
"397 125 OFFCURVE"
);
},
{
closed = 1;
nodes = (
"439 503 LINE SMOOTH",
"455 503 OFFCURVE",
"463 511 OFFCURVE",
"463 527 CURVE SMOOTH",
"463 543 OFFCURVE",
"455 551 OFFCURVE",
"439 551 CURVE SMOOTH",
"218 551 LINE SMOOTH",
"202 551 OFFCURVE",
"194 543 OFFCURVE",
"194 527 CURVE SMOOTH",
"194 511 OFFCURVE",
"202 503 OFFCURVE",
"218 503 CURVE SMOOTH"
);
}
);
width = 517;
}
);
leftKerningGroup = o;
leftMetricsKey = o;
rightKerningGroup = d;
rightMetricsKey = "=d-30";
unicode = 20AB;
},
{
color = 5;
glyphname = euro;
lastChange = "2016-07-31 01:37:05 +0000";
layers = (
{
layerId = "D7F5B317-FDDE-425C-99B8-2570E6EC45B4";
paths = (
{
closed = 1;
nodes = (
"493 356 LINE SMOOTH",
"508 356 OFFCURVE",
"518 365 OFFCURVE",
"518 380 CURVE SMOOTH",
"518 395 OFFCURVE",
"508 404 OFFCURVE",
"493 404 CURVE SMOOTH",
"74 404 LINE SMOOTH",
"59 404 OFFCURVE",
"49 395 OFFCURVE",
"49 380 CURVE SMOOTH",
"49 365 OFFCURVE",
"59 356 OFFCURVE",
"74 356 CURVE SMOOTH"
);
},
{
closed = 1;
nodes = (
"439 249 LINE SMOOTH",
"454 249 OFFCURVE",
"463 258 OFFCURVE",
"463 273 CURVE SMOOTH",
"463 288 OFFCURVE",
"454 298 OFFCURVE",
"439 298 CURVE SMOOTH",
"74 298 LINE SMOOTH",
"59 298 OFFCURVE",
"49 288 OFFCURVE",
"49 273 CURVE SMOOTH",
"49 258 OFFCURVE",
"59 249 OFFCURVE",
"74 249 CURVE SMOOTH"
);
},
{
closed = 1;
nodes = (
"460 0 LINE SMOOTH",
"534 0 OFFCURVE",
"576 22 OFFCURVE",
"604 72 CURVE SMOOTH",
"606 76 OFFCURVE",
"608 80 OFFCURVE",
"608 85 CURVE SMOOTH",
"608 100 OFFCURVE",
"596 111 OFFCURVE",
"582 111 CURVE SMOOTH",
"572 111 OFFCURVE",
"564 106 OFFCURVE",
"560 98 CURVE SMOOTH",
"543 63 OFFCURVE",
"516 52 OFFCURVE",
"460 52 CURVE SMOOTH",
"340 52 LINE SMOOTH",
"224 52 OFFCURVE",
"184 93 OFFCURVE",
"184 208 CURVE SMOOTH",
"184 435 LINE SMOOTH",
"184 552 OFFCURVE",
"224 592 OFFCURVE",
"339 591 CURVE SMOOTH",
"460 591 LINE SMOOTH",
"509 591 OFFCURVE",
"528 582 OFFCURVE",
"562 542 CURVE SMOOTH",
"567 537 OFFCURVE",
"574 533 OFFCURVE",
"582 533 CURVE SMOOTH",
"596 533 OFFCURVE",
"608 544 OFFCURVE",
"608 559 CURVE SMOOTH",
"608 565 OFFCURVE",
"605 571 OFFCURVE",
"602 575 CURVE SMOOTH",
"559 626 OFFCURVE",
"525 643 OFFCURVE",
"460 643 CURVE SMOOTH",
"339 643 LINE SMOOTH",
"195 644 OFFCURVE",
"132 581 OFFCURVE",
"132 435 CURVE SMOOTH",
"132 208 LINE SMOOTH",
"132 64 OFFCURVE",
"195 0 OFFCURVE",
"340 0 CURVE SMOOTH"
);
}
);
width = 638;
}
);
leftKerningGroup = O;
leftMetricsKey = Hbar;
rightKerningGroup = C;
rightMetricsKey = "=C-40";
unicode = 20AC;
},
{
color = 4;
glyphname = florin;
lastChange = "2016-07-31 01:33:47 +0000";
layers = (
{
layerId = "D7F5B317-FDDE-425C-99B8-2570E6EC45B4";
paths = (
{
closed = 1;
nodes = (
"145 92 CURVE SMOOTH",
"221 513 LINE SMOOTH",
"236 599 OFFCURVE",
"271 635 OFFCURVE",
"347 641 CURVE SMOOTH",
"364 643 OFFCURVE",
"372 651 OFFCURVE",
"372 668 CURVE SMOOTH",
"372 685 OFFCURVE",
"363 695 OFFCURVE",
"345 693 CURVE SMOOTH",
"243 685 OFFCURVE",
"190 634 OFFCURVE",
"170 522 CURVE SMOOTH",
"95 101 LINE SMOOTH",
"89 74 OFFCURVE",
"78 59 OFFCURVE",
"54 54 CURVE SMOOTH",
"38 49 OFFCURVE",
"30 42 OFFCURVE",
"30 26 CURVE SMOOTH",
"30 9 OFFCURVE",
"40 -2 OFFCURVE",
"57 1 CURVE SMOOTH",
"106 9 OFFCURVE",
"136 39 OFFCURVE"
);
},
{
closed = 1;
nodes = (
"316 420 LINE SMOOTH",
"333 420 OFFCURVE",
"342 429 OFFCURVE",
"342 446 CURVE SMOOTH",
"342 463 OFFCURVE",
"333 472 OFFCURVE",
"316 472 CURVE SMOOTH",
"101 472 LINE SMOOTH",
"84 472 OFFCURVE",
"75 463 OFFCURVE",
"75 446 CURVE SMOOTH",
"75 429 OFFCURVE",
"84 420 OFFCURVE",
"101 420 CURVE SMOOTH"
);
}
);
width = 362;
}
);
leftKerningGroup = florin;
rightKerningGroup = florn;
unicode = 0192;
},
{
color = 4;
glyphname = franc;
lastChange = "2016-07-31 01:33:47 +0000";
layers = (
{
layerId = "D7F5B317-FDDE-425C-99B8-2570E6EC45B4";
paths = (
{
closed = 1;
nodes = (
"136 0 OFFCURVE",
"145 9 OFFCURVE",
"145 26 CURVE SMOOTH",
"145 300 LINE",
"328 300 LINE",
"328 26 LINE SMOOTH",
"328 9 OFFCURVE",
"337 0 OFFCURVE",
"354 0 CURVE SMOOTH",
"371 0 OFFCURVE",
"380 9 OFFCURVE",
"380 26 CURVE SMOOTH",
"380 182 LINE SMOOTH",
"380 258 OFFCURVE",
"439 300 OFFCURVE",
"520 300 CURVE SMOOTH",
"537 300 OFFCURVE",
"546 309 OFFCURVE",
"546 326 CURVE SMOOTH",
"546 343 OFFCURVE",
"538 352 OFFCURVE",
"520 352 CURVE SMOOTH",
"457 352 OFFCURVE",
"410 324 OFFCURVE",
"380 274 CURVE",
"380 326 LINE SMOOTH",
"380 343 OFFCURVE",
"371 352 OFFCURVE",
"354 352 CURVE SMOOTH",
"145 352 LINE",
"145 592 LINE",
"396 592 LINE SMOOTH",
"413 592 OFFCURVE",
"422 601 OFFCURVE",
"422 618 CURVE SMOOTH",
"422 635 OFFCURVE",
"413 644 OFFCURVE",
"396 644 CURVE SMOOTH",
"119 644 LINE SMOOTH",
"102 644 OFFCURVE",
"93 635 OFFCURVE",
"93 618 CURVE SMOOTH",
"93 26 LINE SMOOTH",
"93 9 OFFCURVE",
"102 0 OFFCURVE",
"119 0 CURVE SMOOTH"
);
}
);
width = 558;
}
);
leftKerningGroup = H;
leftMetricsKey = H;
rightKerningGroup = F;
rightMetricsKey = r;
unicode = 20A3;
},
{
color = 4;
glyphname = guarani;
lastChange = "2016-07-31 01:33:47 +0000";
layers = (
{
layerId = "D7F5B317-FDDE-425C-99B8-2570E6EC45B4";
paths = (
{
closed = 1;
nodes = (
"384 0 LINE SMOOTH",
"516 0 OFFCURVE",
"572 56 OFFCURVE",
"572 188 CURVE SMOOTH",
"572 277 LINE SMOOTH",
"572 294 OFFCURVE",
"563 303 OFFCURVE",
"546 303 CURVE SMOOTH",
"453 304 LINE SMOOTH",
"436 304 OFFCURVE",
"427 295 OFFCURVE",
"427 278 CURVE SMOOTH",
"427 261 OFFCURVE",
"435 252 OFFCURVE",
"453 252 CURVE SMOOTH",
"520 251 LINE",
"520 188 LINE SMOOTH",
"520 85 OFFCURVE",
"487 52 OFFCURVE",
"384 52 CURVE SMOOTH",
"288 52 LINE SMOOTH",
"173 52 OFFCURVE",
"132 93 OFFCURVE",
"132 208 CURVE SMOOTH",
"132 412 LINE SMOOTH",
"132 528 OFFCURVE",
"172 568 OFFCURVE",
"287 568 CURVE SMOOTH",
"384 568 LINE SMOOTH",
"483 568 OFFCURVE",
"517 538 OFFCURVE",
"519 444 CURVE SMOOTH",
"520 427 OFFCURVE",
"529 418 OFFCURVE",
"546 418 CURVE SMOOTH",
"563 418 OFFCURVE",
"572 427 OFFCURVE",
"571 444 CURVE SMOOTH",
"567 568 OFFCURVE",
"511 620 OFFCURVE",
"384 620 CURVE SMOOTH",
"287 620 LINE SMOOTH",
"143 620 OFFCURVE",
"80 558 OFFCURVE",
"80 412 CURVE SMOOTH",
"80 208 LINE SMOOTH",
"80 63 OFFCURVE",
"143 0 OFFCURVE",
"288 0 CURVE SMOOTH"
);
},
{
closed = 1;
nodes = (
"366 -60 CURVE SMOOTH",
"366 694 LINE SMOOTH",
"366 710 OFFCURVE",
"358 718 OFFCURVE",
"342 718 CURVE SMOOTH",
"326 718 OFFCURVE",
"317 710 OFFCURVE",
"317 694 CURVE SMOOTH",
"317 -60 LINE SMOOTH",
"317 -76 OFFCURVE",
"326 -84 OFFCURVE",
"342 -84 CURVE SMOOTH",
"358 -84 OFFCURVE",
"366 -76 OFFCURVE"
);
}
);
width = 652;
}
);
leftKerningGroup = O;
leftMetricsKey = O;
rightKerningGroup = C;
rightMetricsKey = O;
unicode = 20B2;
},
{
color = 4;
glyphname = kip;
lastChange = "2016-07-31 01:33:47 +0000";
layers = (
{
components = (
{
name = K;
transform = "{1, 0, 0, 1, 7, 0}";
}
);
layerId = "D7F5B317-FDDE-425C-99B8-2570E6EC45B4";
paths = (
{
closed = 1;
nodes = (
"462 340 LINE SMOOTH",
"476 340 OFFCURVE",
"486 349 OFFCURVE",
"486 364 CURVE SMOOTH",
"486 379 OFFCURVE",
"476 388 OFFCURVE",
"462 388 CURVE SMOOTH",
"247 388 LINE SMOOTH",
"232 388 OFFCURVE",
"223 379 OFFCURVE",
"223 364 CURVE SMOOTH",
"223 349 OFFCURVE",
"232 340 OFFCURVE",
"247 340 CURVE SMOOTH"
);
},
{
closed = 1;
nodes = (
"117 340 LINE SMOOTH",
"131 340 OFFCURVE",
"141 349 OFFCURVE",
"141 364 CURVE SMOOTH",
"141 379 OFFCURVE",
"131 388 OFFCURVE",
"117 388 CURVE SMOOTH",
"43 388 LINE SMOOTH",
"28 388 OFFCURVE",
"19 379 OFFCURVE",
"19 364 CURVE SMOOTH",
"19 349 OFFCURVE",
"28 340 OFFCURVE",
"43 340 CURVE SMOOTH"
);
}
);
width = 557;
}
);
leftKerningGroup = Hbar;
rightKerningGroup = K;
unicode = 20AD;
},
{
color = 4;
glyphname = lira;
lastChange = "2016-07-31 01:33:47 +0000";
layers = (
{
layerId = "D7F5B317-FDDE-425C-99B8-2570E6EC45B4";
paths = (
{
closed = 1;
nodes = (
"528 0 LINE SMOOTH",
"546 0 OFFCURVE",
"554 9 OFFCURVE",
"554 26 CURVE SMOOTH",
"554 43 OFFCURVE",
"546 52 OFFCURVE",
"528 52 CURVE SMOOTH",
"149 52 LINE",
"164 73 OFFCURVE",
"170 102 OFFCURVE",
"170 139 CURVE SMOOTH",
"170 430 LINE SMOOTH",
"170 546 OFFCURVE",
"210 586 OFFCURVE",
"325 586 CURVE SMOOTH",
"346 586 LINE SMOOTH",
"449 586 OFFCURVE",
"482 553 OFFCURVE",
"482 450 CURVE SMOOTH",
"482 433 OFFCURVE",
"491 424 OFFCURVE",
"508 424 CURVE SMOOTH",
"526 424 OFFCURVE",
"534 433 OFFCURVE",
"534 450 CURVE SMOOTH",
"534 582 OFFCURVE",
"478 638 OFFCURVE",
"346 638 CURVE SMOOTH",
"325 638 LINE SMOOTH",
"182 638 OFFCURVE",
"118 576 OFFCURVE",
"118 430 CURVE SMOOTH",
"118 139 LINE SMOOTH",
"118 79 OFFCURVE",
"103 52 OFFCURVE",
"52 52 CURVE",
"52 26 LINE SMOOTH",
"52 11 OFFCURVE",
"63 0 OFFCURVE",
"78 0 CURVE SMOOTH"
);
},
{
closed = 1;
nodes = (
"354 263 LINE SMOOTH",
"369 263 OFFCURVE",
"377 271 OFFCURVE",
"377 286 CURVE SMOOTH",
"377 301 OFFCURVE",
"369 308 OFFCURVE",
"354 308 CURVE SMOOTH",
"56 308 LINE SMOOTH",
"41 308 OFFCURVE",
"33 301 OFFCURVE",
"33 286 CURVE SMOOTH",
"33 271 OFFCURVE",
"41 263 OFFCURVE",
"56 263 CURVE SMOOTH"
);
},
{
closed = 1;
nodes = (
"354 170 LINE SMOOTH",
"369 170 OFFCURVE",
"377 177 OFFCURVE",
"377 192 CURVE SMOOTH",
"377 207 OFFCURVE",
"369 215 OFFCURVE",
"354 215 CURVE SMOOTH",
"56 215 LINE SMOOTH",
"41 215 OFFCURVE",
"33 207 OFFCURVE",
"33 192 CURVE SMOOTH",
"33 177 OFFCURVE",
"41 170 OFFCURVE",
"56 170 CURVE SMOOTH"
);
}
);
width = 578;
}
);
leftKerningGroup = sterling;
rightKerningGroup = sterlng;
unicode = 20A4;
},
{
color = 4;
glyphname = liraTurkish;
lastChange = "2016-07-31 01:33:47 +0000";
layers = (
{
layerId = "D7F5B317-FDDE-425C-99B8-2570E6EC45B4";
paths = (
{
closed = 1;
nodes = (
"241 0 LINE SMOOTH",
"364 0 OFFCURVE",
"422 48 OFFCURVE",
"429 161 CURVE SMOOTH",
"429 178 OFFCURVE",
"420 188 OFFCURVE",
"403 188 CURVE SMOOTH",
"386 188 OFFCURVE",
"378 179 OFFCURVE",
"377 162 CURVE SMOOTH",
"370 79 OFFCURVE",
"335 52 OFFCURVE",
"241 52 CURVE SMOOTH",
"155 52 LINE",
"155 612 LINE SMOOTH",
"155 629 OFFCURVE",
"146 638 OFFCURVE",
"129 638 CURVE SMOOTH",
"113 638 OFFCURVE",
"103 629 OFFCURVE",
"103 612 CURVE SMOOTH",
"103 26 LINE SMOOTH",
"103 9 OFFCURVE",
"113 0 OFFCURVE",
"129 0 CURVE SMOOTH"
);
},
{
closed = 1;
nodes = (
"296 458 LINE SMOOTH",
"308 464 OFFCURVE",
"313 476 OFFCURVE",
"307 488 CURVE SMOOTH",
"301 501 OFFCURVE",
"289 505 OFFCURVE",
"277 499 CURVE SMOOTH",
"31 385 LINE SMOOTH",
"18 379 OFFCURVE",
"14 367 OFFCURVE",
"20 354 CURVE SMOOTH",
"26 342 OFFCURVE",
"38 338 OFFCURVE",
"50 344 CURVE SMOOTH"
);
},
{
closed = 1;
nodes = (
"296 355 LINE SMOOTH",
"308 361 OFFCURVE",
"313 373 OFFCURVE",
"307 385 CURVE SMOOTH",
"301 397 OFFCURVE",
"289 402 OFFCURVE",
"277 396 CURVE SMOOTH",
"31 281 LINE SMOOTH",
"18 275 OFFCURVE",
"14 263 OFFCURVE",
"20 251 CURVE SMOOTH",
"26 239 OFFCURVE",
"38 235 OFFCURVE",
"50 240 CURVE SMOOTH"
);
}
);
width = 468;
}
);
leftKerningGroup = Hbar;
rightKerningGroup = L;
unicode = 20BA;
},
{
color = 4;
glyphname = manat;
lastChange = "2016-07-31 01:37:05 +0000";
layers = (
{
layerId = "D7F5B317-FDDE-425C-99B8-2570E6EC45B4";
paths = (
{
closed = 1;
nodes = (
"107 0 OFFCURVE",
"115 9 OFFCURVE",
"115 26 CURVE SMOOTH",
"115 325 LINE SMOOTH",
"115 513 OFFCURVE",
"164 581 OFFCURVE",
"291 581 CURVE SMOOTH",
"311 581 LINE SMOOTH",
"439 581 OFFCURVE",
"487 513 OFFCURVE",
"487 325 CURVE SMOOTH",
"487 26 LINE SMOOTH",
"487 9 OFFCURVE",
"496 0 OFFCURVE",
"513 0 CURVE SMOOTH",
"531 0 OFFCURVE",
"539 9 OFFCURVE",
"539 26 CURVE SMOOTH",
"539 325 LINE SMOOTH",
"539 539 OFFCURVE",
"472 633 OFFCURVE",
"311 633 CURVE SMOOTH",
"291 633 LINE SMOOTH",
"131 633 OFFCURVE",
"63 539 OFFCURVE",
"63 325 CURVE SMOOTH",
"63 26 LINE SMOOTH",
"63 9 OFFCURVE",
"72 0 OFFCURVE",
"89 0 CURVE SMOOTH"
);
},
{
closed = 1;
nodes = (
"326 132 CURVE SMOOTH",
"326 669 LINE SMOOTH",
"326 685 OFFCURVE",
"317 693 OFFCURVE",
"301 693 CURVE SMOOTH",
"285 693 OFFCURVE",
"277 685 OFFCURVE",
"277 669 CURVE SMOOTH",
"277 132 LINE SMOOTH",
"277 116 OFFCURVE",
"285 108 OFFCURVE",
"301 108 CURVE SMOOTH",
"317 108 OFFCURVE",
"326 116 OFFCURVE"
);
}
);
width = 602;
}
);
leftKerningGroup = U;
leftMetricsKey = "=U-20";
rightKerningGroup = U;
rightMetricsKey = "=U-20";
unicode = 20BC;
},
{
color = 4;
glyphname = naira;
lastChange = "2016-07-31 01:33:47 +0000";
layers = (
{
components = (
{
name = strokelongcomb;
transform = "{1, 0, 0, 1, -1, 59}";
}
);
layerId = "D7F5B317-FDDE-425C-99B8-2570E6EC45B4";
paths = (
{
closed = 1;
nodes = (
"176 26 CURVE SMOOTH",
"176 579 LINE",
"151 575 LINE",
"536 13 LINE",
"542 5 OFFCURVE",
"550 0 OFFCURVE",
"561 0 CURVE SMOOTH",
"577 0 OFFCURVE",
"587 10 OFFCURVE",
"587 26 CURVE SMOOTH",
"587 618 LINE SMOOTH",
"587 633 OFFCURVE",
"577 644 OFFCURVE",
"561 644 CURVE SMOOTH",
"546 644 OFFCURVE",
"535 633 OFFCURVE",
"535 618 CURVE SMOOTH",
"535 68 LINE",
"558 73 LINE",
"175 631 LINE SMOOTH",
"169 640 OFFCURVE",
"161 644 OFFCURVE",
"151 644 CURVE SMOOTH",
"134 644 OFFCURVE",
"124 633 OFFCURVE",
"124 618 CURVE SMOOTH",
"124 26 LINE SMOOTH",
"124 10 OFFCURVE",
"134 0 OFFCURVE",
"150 0 CURVE SMOOTH",
"165 0 OFFCURVE",
"176 10 OFFCURVE"
);
}
);
width = 710;
}
);
leftKerningGroup = Hbar;
leftMetricsKey = Hbar;
rightKerningGroup = Hbar;
rightMetricsKey = Hbar;
unicode = 20A6;
},
{
color = 4;
glyphname = peseta;
lastChange = "2016-07-31 01:37:05 +0000";
layers = (
{
layerId = "D7F5B317-FDDE-425C-99B8-2570E6EC45B4";
paths = (
{
closed = 1;
nodes = (
"142 21 CURVE SMOOTH",
"142 267 LINE",
"214 267 LINE SMOOTH",
"326 267 OFFCURVE",
"385 326 OFFCURVE",
"385 439 CURVE SMOOTH",
"385 469 LINE SMOOTH",
"385 581 OFFCURVE",
"326 640 OFFCURVE",
"214 640 CURVE SMOOTH",
"118 640 LINE SMOOTH",
"102 640 OFFCURVE",
"93 632 OFFCURVE",
"93 616 CURVE SMOOTH",
"93 21 LINE SMOOTH",
"93 8 OFFCURVE",
"104 -3 OFFCURVE",
"118 -3 CURVE SMOOTH",
"131 -3 OFFCURVE",
"142 8 OFFCURVE"
);
},
{
closed = 1;
nodes = (
"563 21 CURVE SMOOTH",
"563 34 OFFCURVE",
"552 45 OFFCURVE",
"539 45 CURVE SMOOTH",
"483 45 OFFCURVE",
"466 61 OFFCURVE",
"466 118 CURVE SMOOTH",
"466 268 LINE",
"539 268 LINE SMOOTH",
"552 268 OFFCURVE",
"563 278 OFFCURVE",
"563 292 CURVE SMOOTH",
"563 306 OFFCURVE",
"552 316 OFFCURVE",
"539 316 CURVE SMOOTH",
"466 316 LINE",
"466 385 LINE SMOOTH",
"466 399 OFFCURVE",
"455 409 OFFCURVE",
"442 409 CURVE SMOOTH",
"428 409 OFFCURVE",
"417 399 OFFCURVE",
"417 385 CURVE SMOOTH",
"417 316 LINE",
"399 316 LINE SMOOTH",
"385 316 OFFCURVE",
"374 306 OFFCURVE",
"374 292 CURVE SMOOTH",
"374 278 OFFCURVE",
"385 268 OFFCURVE",
"399 268 CURVE SMOOTH",
"417 268 LINE",
"417 118 LINE SMOOTH",
"417 34 OFFCURVE",
"455 -4 OFFCURVE",
"539 -4 CURVE SMOOTH",
"552 -4 OFFCURVE",
"563 7 OFFCURVE"
);
},
{
closed = 1;
nodes = (
"142 591 LINE",
"214 591 LINE SMOOTH",
"299 591 OFFCURVE",
"336 554 OFFCURVE",
"336 469 CURVE SMOOTH",
"336 439 LINE SMOOTH",
"336 353 OFFCURVE",
"299 316 OFFCURVE",
"214 316 CURVE SMOOTH",
"142 316 LINE"
);
},
{
closed = 1;
nodes = (
"742 -3 LINE SMOOTH",
"806 -3 OFFCURVE",
"837 27 OFFCURVE",
"837 91 CURVE SMOOTH",
"837 155 OFFCURVE",
"806 185 OFFCURVE",
"742 185 CURVE SMOOTH",
"682 185 LINE SMOOTH",
"650 185 OFFCURVE",
"641 194 OFFCURVE",
"641 226 CURVE SMOOTH",
"641 259 OFFCURVE",
"649 267 OFFCURVE",
"682 267 CURVE SMOOTH",
"740 267 LINE SMOOTH",
"773 267 OFFCURVE",
"781 259 OFFCURVE",
"781 226 CURVE SMOOTH",
"781 212 OFFCURVE",
"792 202 OFFCURVE",
"805 202 CURVE SMOOTH",
"819 202 OFFCURVE",
"830 212 OFFCURVE",
"830 226 CURVE SMOOTH",
"830 287 OFFCURVE",
"801 315 OFFCURVE",
"740 315 CURVE SMOOTH",
"682 315 LINE SMOOTH",
"622 315 OFFCURVE",
"592 286 OFFCURVE",
"592 226 CURVE SMOOTH",
"592 166 OFFCURVE",
"622 137 OFFCURVE",
"682 137 CURVE SMOOTH",
"742 137 LINE SMOOTH",
"778 137 OFFCURVE",
"788 127 OFFCURVE",
"788 91 CURVE SMOOTH",
"788 55 OFFCURVE",
"778 45 OFFCURVE",
"742 45 CURVE SMOOTH",
"676 45 LINE SMOOTH",
"641 45 OFFCURVE",
"631 55 OFFCURVE",
"631 91 CURVE SMOOTH",
"631 105 OFFCURVE",
"620 115 OFFCURVE",
"607 115 CURVE SMOOTH",
"593 115 OFFCURVE",
"582 105 OFFCURVE",
"582 91 CURVE SMOOTH",
"582 27 OFFCURVE",
"613 -3 OFFCURVE",
"676 -3 CURVE SMOOTH"
);
}
);
width = 871;
}
);
leftKerningGroup = P;
leftMetricsKey = P;
rightKerningGroup = s;
rightMetricsKey = "=s-30";
unicode = 20A7;
},
{
color = 4;
glyphname = peso;
lastChange = "2016-07-31 01:33:47 +0000";
layers = (
{
components = (
{
name = P;
}
);
layerId = "D7F5B317-FDDE-425C-99B8-2570E6EC45B4";
paths = (
{
closed = 1;
nodes = (
"105 475 LINE",
"117 476 LINE",
"492 476 LINE",
"504 476 LINE",
"575 476 LINE SMOOTH",
"590 476 OFFCURVE",
"597 483 OFFCURVE",
"597 497 CURVE SMOOTH",
"597 511 OFFCURVE",
"590 518 OFFCURVE",
"575 518 CURVE SMOOTH",
"502 518 LINE",
"489 516 LINE",
"117 516 LINE",
"106 516 LINE",
"52 516 LINE SMOOTH",
"37 516 OFFCURVE",
"30 509 OFFCURVE",
"30 495 CURVE SMOOTH",
"30 482 OFFCURVE",
"37 475 OFFCURVE",
"52 475 CURVE SMOOTH"
);
},
{
closed = 1;
nodes = (
"105 385 LINE",
"116 387 LINE",
"487 387 LINE",
"500 387 LINE",
"575 387 LINE SMOOTH",
"590 387 OFFCURVE",
"597 394 OFFCURVE",
"597 407 CURVE SMOOTH",
"597 421 OFFCURVE",
"590 428 OFFCURVE",
"575 428 CURVE SMOOTH",
"500 428 LINE",
"488 426 LINE",
"116 426 LINE",
"106 426 LINE",
"52 426 LINE SMOOTH",
"37 426 OFFCURVE",
"30 419 OFFCURVE",
"30 406 CURVE SMOOTH",
"30 392 OFFCURVE",
"37 385 OFFCURVE",
"52 385 CURVE SMOOTH"
);
}
);
width = 627;
}
);
leftKerningGroup = Hbar;
rightKerningGroup = P;
unicode = 20B1;
},
{
color = 4;
glyphname = rupeeIndian;
lastChange = "2016-07-31 01:33:47 +0000";
layers = (
{
layerId = "D7F5B317-FDDE-425C-99B8-2570E6EC45B4";
paths = (
{
closed = 1;
nodes = (
"354 26 CURVE SMOOTH",
"354 32 OFFCURVE",
"351 38 OFFCURVE",
"347 44 CURVE SMOOTH",
"122 304 LINE",
"101 270 LINE",
"190 270 LINE SMOOTH",
"305 270 OFFCURVE",
"365 330 OFFCURVE",
"365 446 CURVE SMOOTH",
"365 469 LINE SMOOTH",
"365 570 OFFCURVE",
"305 616 OFFCURVE",
"190 616 CURVE",
"166 644 LINE",
"98 644 LINE SMOOTH",
"81 644 OFFCURVE",
"72 635 OFFCURVE",
"72 618 CURVE SMOOTH",
"72 601 OFFCURVE",
"81 592 OFFCURVE",
"98 592 CURVE SMOOTH",
"190 592 LINE SMOOTH",
"276 592 OFFCURVE",
"313 554 OFFCURVE",
"313 469 CURVE SMOOTH",
"313 446 LINE SMOOTH",
"313 360 OFFCURVE",
"276 322 OFFCURVE",
"190 322 CURVE SMOOTH",
"72 322 LINE",
"72 294 LINE SMOOTH",
"72 284 OFFCURVE",
"75 277 OFFCURVE",
"81 269 CURVE SMOOTH",
"307 9 LINE SMOOTH",
"313 3 OFFCURVE",
"320 0 OFFCURVE",
"327 0 CURVE SMOOTH",
"341 0 OFFCURVE",
"354 12 OFFCURVE"
);
},
{
closed = 1;
nodes = (
"429 477 LINE SMOOTH",
"445 477 OFFCURVE",
"453 485 OFFCURVE",
"453 501 CURVE SMOOTH",
"453 517 OFFCURVE",
"445 525 OFFCURVE",
"429 525 CURVE SMOOTH",
"96 525 LINE SMOOTH",
"80 525 OFFCURVE",
"72 517 OFFCURVE",
"72 501 CURVE SMOOTH",
"72 485 OFFCURVE",
"80 477 OFFCURVE",
"96 477 CURVE SMOOTH"
);
},
{
closed = 1;
nodes = (
"449 595 LINE SMOOTH",
"465 595 OFFCURVE",
"473 603 OFFCURVE",
"473 619 CURVE SMOOTH",
"473 635 OFFCURVE",
"465 644 OFFCURVE",
"449 644 CURVE SMOOTH",
"141 644 LINE",
"141 595 LINE"
);
}
);
width = 477;
}
);
leftKerningGroup = H;
rightKerningGroup = rupeeIndan;
unicode = 20B9;
},
{
color = 5;
glyphname = sterling;
lastChange = "2016-07-31 01:33:47 +0000";
layers = (
{
layerId = "D7F5B317-FDDE-425C-99B8-2570E6EC45B4";
paths = (
{
closed = 1;
nodes = (
"525 0 LINE SMOOTH",
"542 0 OFFCURVE",
"551 9 OFFCURVE",
"551 26 CURVE SMOOTH",
"551 43 OFFCURVE",
"542 52 OFFCURVE",
"525 52 CURVE SMOOTH",
"145 52 LINE",
"160 73 OFFCURVE",
"167 102 OFFCURVE",
"167 139 CURVE SMOOTH",
"167 430 LINE SMOOTH",
"167 546 OFFCURVE",
"207 586 OFFCURVE",
"322 586 CURVE SMOOTH",
"343 586 LINE SMOOTH",
"446 586 OFFCURVE",
"479 553 OFFCURVE",
"479 450 CURVE SMOOTH",
"479 433 OFFCURVE",
"488 424 OFFCURVE",
"505 424 CURVE SMOOTH",
"522 424 OFFCURVE",
"531 433 OFFCURVE",
"531 450 CURVE SMOOTH",
"531 582 OFFCURVE",
"475 638 OFFCURVE",
"343 638 CURVE SMOOTH",
"322 638 LINE SMOOTH",
"178 638 OFFCURVE",
"115 576 OFFCURVE",
"115 430 CURVE SMOOTH",
"115 139 LINE SMOOTH",
"115 79 OFFCURVE",
"99 52 OFFCURVE",
"49 52 CURVE",
"49 0 LINE"
);
},
{
closed = 1;
nodes = (
"348 219 LINE SMOOTH",
"364 219 OFFCURVE",
"372 228 OFFCURVE",
"372 244 CURVE SMOOTH",
"372 260 OFFCURVE",
"364 268 OFFCURVE",
"348 268 CURVE SMOOTH",
"54 268 LINE SMOOTH",
"38 268 OFFCURVE",
"30 260 OFFCURVE",
"30 244 CURVE SMOOTH",
"30 228 OFFCURVE",
"38 219 OFFCURVE",
"54 219 CURVE SMOOTH"
);
}
);
width = 594;
}
);
leftKerningGroup = sterling;
rightKerningGroup = sterlng;
unicode = 00A3;
},
{
color = 4;
glyphname = won;
lastChange = "2016-07-31 01:37:05 +0000";
layers = (
{
layerId = "D7F5B317-FDDE-425C-99B8-2570E6EC45B4";
paths = (
{
closed = 1;
nodes = (
"219 0 LINE",
"233 0 OFFCURVE",
"241 7 OFFCURVE",
"245 20 CURVE SMOOTH",
"387 593 LINE",
"363 593 LINE",
"506 20 LINE SMOOTH",
"509 7 OFFCURVE",
"518 0 OFFCURVE",
"531 0 CURVE",
"536 0 LINE",
"549 0 OFFCURVE",
"558 7 OFFCURVE",
"562 20 CURVE SMOOTH",
"736 609 LINE SMOOTH",
"741 625 OFFCURVE",
"736 640 OFFCURVE",
"715 643 CURVE SMOOTH",
"701 645 OFFCURVE",
"691 639 OFFCURVE",
"686 625 CURVE SMOOTH",
"521 63 LINE",
"546 63 LINE",
"405 624 LINE SMOOTH",
"402 637 OFFCURVE",
"393 644 OFFCURVE",
"379 644 CURVE SMOOTH",
"372 644 LINE",
"357 644 OFFCURVE",
"349 637 OFFCURVE",
"345 624 CURVE SMOOTH",
"204 63 LINE",
"229 63 LINE",
"64 625 LINE SMOOTH",
"60 639 OFFCURVE",
"50 645 OFFCURVE",
"36 643 CURVE SMOOTH",
"16 640 OFFCURVE",
"10 624 OFFCURVE",
"15 609 CURVE SMOOTH",
"188 20 LINE SMOOTH",
"192 6 OFFCURVE",
"201 0 OFFCURVE",
"214 0 CURVE"
);
},
{
closed = 1;
nodes = (
"707 284 LINE SMOOTH",
"724 284 OFFCURVE",
"732 292 OFFCURVE",
"732 306 CURVE SMOOTH",
"732 320 OFFCURVE",
"724 328 OFFCURVE",
"707 328 CURVE SMOOTH",
"41 328 LINE SMOOTH",
"25 328 OFFCURVE",
"17 320 OFFCURVE",
"17 306 CURVE SMOOTH",
"17 292 OFFCURVE",
"25 284 OFFCURVE",
"41 284 CURVE SMOOTH"
);
}
);
width = 752;
}
);
leftKerningGroup = V;
leftMetricsKey = W;
rightKerningGroup = V;
rightMetricsKey = W;
unicode = 20A9;
},
{
color = 4;
glyphname = yen;
lastChange = "2016-07-31 01:33:47 +0000";
layers = (
{
layerId = "D7F5B317-FDDE-425C-99B8-2570E6EC45B4";
paths = (
{
closed = 1;
nodes = (
"295 26 CURVE SMOOTH",
"295 248 LINE",
"522 603 LINE SMOOTH",
"531 617 OFFCURVE",
"528 630 OFFCURVE",
"514 639 CURVE SMOOTH",
"500 648 OFFCURVE",
"487 645 OFFCURVE",
"478 631 CURVE SMOOTH",
"255 282 LINE",
"281 282 LINE",
"63 631 LINE SMOOTH",
"54 645 OFFCURVE",
"41 647 OFFCURVE",
"27 638 CURVE SMOOTH",
"12 629 OFFCURVE",
"10 617 OFFCURVE",
"19 602 CURVE SMOOTH",
"243 248 LINE",
"243 26 LINE SMOOTH",
"243 9 OFFCURVE",
"251 0 OFFCURVE",
"269 0 CURVE SMOOTH",
"286 0 OFFCURVE",
"295 9 OFFCURVE"
);
},
{
closed = 1;
nodes = (
"411 229 LINE SMOOTH",
"425 229 OFFCURVE",
"434 238 OFFCURVE",
"434 252 CURVE SMOOTH",
"434 265 OFFCURVE",
"425 274 OFFCURVE",
"411 274 CURVE SMOOTH",
"126 274 LINE SMOOTH",
"113 274 OFFCURVE",
"104 265 OFFCURVE",
"104 252 CURVE SMOOTH",
"104 238 OFFCURVE",
"113 229 OFFCURVE",
"126 229 CURVE SMOOTH"
);
},
{
closed = 1;
nodes = (
"411 140 LINE SMOOTH",
"425 140 OFFCURVE",
"434 149 OFFCURVE",
"434 163 CURVE SMOOTH",
"434 176 OFFCURVE",
"425 185 OFFCURVE",
"411 185 CURVE SMOOTH",
"126 185 LINE SMOOTH",
"113 185 OFFCURVE",
"104 176 OFFCURVE",
"104 163 CURVE SMOOTH",
"104 149 OFFCURVE",
"113 140 OFFCURVE",
"126 140 CURVE SMOOTH"
);
}
);
width = 541;
}
);
leftKerningGroup = Y;
leftMetricsKey = Y;
rightKerningGroup = Y;
rightMetricsKey = Y;
unicode = 00A5;
},
{
color = 4;
glyphname = franc.salt;
lastChange = "2016-07-31 01:33:47 +0000";
layers = (
{
components = (
{
name = F;
}
);
layerId = "D7F5B317-FDDE-425C-99B8-2570E6EC45B4";
paths = (
{
closed = 1;
nodes = (
"299 161 LINE SMOOTH",
"315 161 OFFCURVE",
"323 170 OFFCURVE",
"323 186 CURVE SMOOTH",
"323 202 OFFCURVE",
"315 210 OFFCURVE",
"299 210 CURVE SMOOTH",
"42 210 LINE SMOOTH",
"26 210 OFFCURVE",
"18 202 OFFCURVE",
"18 186 CURVE SMOOTH",
"18 170 OFFCURVE",
"26 161 OFFCURVE",
"42 161 CURVE SMOOTH"
);
}
);
width = 506;
}
);
leftKerningGroup = H;
rightKerningGroup = F;
rightMetricsKey = F;
},
{
color = 5;
glyphname = divisionslash;
lastChange = "2016-07-31 01:33:47 +0000";
layers = (
{
layerId = "D7F5B317-FDDE-425C-99B8-2570E6EC45B4";
paths = (
{
closed = 1;
nodes = (
"97 -134 CURVE SMOOTH",
"455 670 LINE SMOOTH",
"457 673 OFFCURVE",
"458 676 OFFCURVE",
"458 680 CURVE SMOOTH",
"458 694 OFFCURVE",
"447 704 OFFCURVE",
"433 704 CURVE SMOOTH",
"423 704 OFFCURVE",
"415 698 OFFCURVE",
"411 689 CURVE SMOOTH",
"52 -115 LINE SMOOTH",
"51 -118 OFFCURVE",
"50 -121 OFFCURVE",
"50 -125 CURVE SMOOTH",
"50 -139 OFFCURVE",
"61 -149 OFFCURVE",
"74 -149 CURVE SMOOTH",
"85 -149 OFFCURVE",
"93 -143 OFFCURVE"
);
}
);
width = 508;
}
);
leftKerningGroup = slash;
rightKerningGroup = slash;
unicode = 2215;
},
{
color = 5;
glyphname = notequal;
lastChange = "2016-07-31 01:33:47 +0000";
layers = (
{
components = (
{
name = equal;
}
);
layerId = "D7F5B317-FDDE-425C-99B8-2570E6EC45B4";
paths = (
{
closed = 1;
nodes = (
"233 167 CURVE SMOOTH",
"361 472 LINE SMOOTH",
"366 484 OFFCURVE",
"362 493 OFFCURVE",
"350 498 CURVE SMOOTH",
"338 503 OFFCURVE",
"329 499 OFFCURVE",
"324 487 CURVE SMOOTH",
"196 182 LINE SMOOTH",
"191 170 OFFCURVE",
"195 161 OFFCURVE",
"206.995 156.002 CURVE SMOOTH",
"219 151 OFFCURVE",
"228 155 OFFCURVE"
);
}
);
width = 560;
}
);
leftKerningGroup = plus;
leftMetricsKey = hyphen;
rightKerningGroup = plus;
rightMetricsKey = hyphen;
unicode = 2260;
},
{
color = 5;
glyphname = less;
lastChange = "2016-07-31 01:33:47 +0000";
layers = (
{
layerId = "D7F5B317-FDDE-425C-99B8-2570E6EC45B4";
paths = (
{
closed = 1;
nodes = (
"450 141 CURVE SMOOTH",
"458 155 OFFCURVE",
"454 166 OFFCURVE",
"440 175 CURVE SMOOTH",
"158 334 LINE",
"158 319 LINE",
"440 475 LINE SMOOTH",
"454 483 OFFCURVE",
"458 495 OFFCURVE",
"450 509 CURVE SMOOTH",
"442 523 OFFCURVE",
"430 526 OFFCURVE",
"416 518 CURVE SMOOTH",
"123 355 LINE SMOOTH",
"111 348 OFFCURVE",
"106 339 OFFCURVE",
"106 327 CURVE SMOOTH",
"106 312 OFFCURVE",
"111 303 OFFCURVE",
"123 296 CURVE SMOOTH",
"416 131 LINE SMOOTH",
"430 123 OFFCURVE",
"442 127 OFFCURVE"
);
}
);
width = 560;
}
);
leftKerningGroup = plus;
rightKerningGroup = plus;
unicode = 003C;
},
{
color = 5;
glyphname = lessequal;
lastChange = "2016-07-31 01:33:47 +0000";
layers = (
{
layerId = "D7F5B317-FDDE-425C-99B8-2570E6EC45B4";
paths = (
{
closed = 1;
nodes = (
"455 270 CURVE SMOOTH",
"460 285 OFFCURVE",
"455 296 OFFCURVE",
"440 302 CURVE SMOOTH",
"151 404 LINE",
"151 379 LINE",
"440 485 LINE SMOOTH",
"455 490 OFFCURVE",
"460 502 OFFCURVE",
"455 517 CURVE SMOOTH",
"449 532 OFFCURVE",
"438 538 OFFCURVE",
"423 532 CURVE SMOOTH",
"125 422 LINE SMOOTH",
"111 417 OFFCURVE",
"105 408 OFFCURVE",
"105 392 CURVE SMOOTH",
"105 379 OFFCURVE",
"109 369 OFFCURVE",
"125 363 CURVE SMOOTH",
"423 256 LINE SMOOTH",
"438 250 OFFCURVE",
"449 255 OFFCURVE"
);
},
{
closed = 1;
nodes = (
"432 160 LINE SMOOTH",
"449 160 OFFCURVE",
"457 169 OFFCURVE",
"457 185 CURVE SMOOTH",
"457 201 OFFCURVE",
"449 210 OFFCURVE",
"432 210 CURVE SMOOTH",
"130 210 LINE SMOOTH",
"114 210 OFFCURVE",
"105 201 OFFCURVE",
"105 185 CURVE SMOOTH",
"105 169 OFFCURVE",
"114 160 OFFCURVE",
"130 160 CURVE SMOOTH"
);
}
);
width = 560;
}
);
leftKerningGroup = plus;
rightKerningGroup = plus;
unicode = 2264;
},
{
color = 5;
glyphname = plusminus;
lastChange = "2016-07-31 01:33:47 +0000";
layers = (
{
components = (
{
name = endash;
transform = "{1, 0, 0, 1, 0, 93}";
},
{
name = endash;
transform = "{1, 0, 0, 1, 0, -116}";
}
);
layerId = "D7F5B317-FDDE-425C-99B8-2570E6EC45B4";
paths = (
{
closed = 1;
nodes = (
"244 228 LINE SMOOTH",
"244 214 OFFCURVE",
"254 204 OFFCURVE",
"268 204 CURVE SMOOTH",
"283 204 OFFCURVE",
"293 214 OFFCURVE",
"293 228 CURVE SMOOTH",
"293 496 LINE SMOOTH",
"293 510 OFFCURVE",
"283 520 OFFCURVE",
"268 520 CURVE SMOOTH",
"254 520 OFFCURVE",
"244 510 OFFCURVE",
"244 496 CURVE SMOOTH"
);
}
);
width = 560;
}
);
leftKerningGroup = plus;
leftMetricsKey = hyphen;
rightKerningGroup = plus;
rightMetricsKey = hyphen;
unicode = 00B1;
},
{
color = 5;
glyphname = approxequal;
lastChange = "2016-07-31 01:33:47 +0000";
layers = (
{
layerId = "D7F5B317-FDDE-425C-99B8-2570E6EC45B4";
paths = (
{
closed = 1;
nodes = (
"116 323 CURVE SMOOTH",
"140 362 OFFCURVE",
"157 371 OFFCURVE",
"193 371 CURVE SMOOTH",
"273 371 OFFCURVE",
"279 312 OFFCURVE",
"365 312 CURVE SMOOTH",
"416 312 OFFCURVE",
"454 335 OFFCURVE",
"482 381 CURVE SMOOTH",
"491 397 OFFCURVE",
"484 417 OFFCURVE",
"464 417 CURVE SMOOTH",
"455 417 OFFCURVE",
"449 413 OFFCURVE",
"443 404 CURVE SMOOTH",
"423 372 OFFCURVE",
"400 358 OFFCURVE",
"365 358 CURVE SMOOTH",
"300 358 OFFCURVE",
"284 417 OFFCURVE",
"193 417 CURVE SMOOTH",
"140 417 OFFCURVE",
"108 399 OFFCURVE",
"77 348 CURVE SMOOTH",
"67 330 OFFCURVE",
"79 312 OFFCURVE",
"97 312 CURVE SMOOTH",
"106 312 OFFCURVE",
"112 316 OFFCURVE"
);
},
{
closed = 1;
nodes = (
"116 193 CURVE SMOOTH",
"140 232 OFFCURVE",
"157 241 OFFCURVE",
"193 241 CURVE SMOOTH",
"273 241 OFFCURVE",
"279 182 OFFCURVE",
"365 182 CURVE SMOOTH",
"416 182 OFFCURVE",
"455 204 OFFCURVE",
"482 251 CURVE SMOOTH",
"492 268 OFFCURVE",
"484 287 OFFCURVE",
"464 287 CURVE SMOOTH",
"455 287 OFFCURVE",
"449 283 OFFCURVE",
"443 274 CURVE SMOOTH",
"423 242 OFFCURVE",
"400 228 OFFCURVE",
"365 228 CURVE SMOOTH",
"300 228 OFFCURVE",
"284 287 OFFCURVE",
"193 287 CURVE SMOOTH",
"140 287 OFFCURVE",
"108 270 OFFCURVE",
"77 218 CURVE SMOOTH",
"67 200 OFFCURVE",
"79 182 OFFCURVE",
"97 182 CURVE SMOOTH",
"106 182 OFFCURVE",
"112 186 OFFCURVE"
);
}
);
width = 560;
}
);
leftKerningGroup = plus;
rightKerningGroup = plus;
unicode = 2248;
},
{
color = 4;
glyphname = asciitilde;
lastChange = "2016-07-31 01:33:47 +0000";
layers = (
{
layerId = "D7F5B317-FDDE-425C-99B8-2570E6EC45B4";
paths = (
{
closed = 1;
nodes = (
"117 273 CURVE SMOOTH",
"141 312 OFFCURVE",
"157 321 OFFCURVE",
"194 321 CURVE SMOOTH",
"274 321 OFFCURVE",
"280 262 OFFCURVE",
"366 262 CURVE SMOOTH",
"417 262 OFFCURVE",
"455 285 OFFCURVE",
"482 331 CURVE SMOOTH",
"492 347 OFFCURVE",
"485 367 OFFCURVE",
"464 367 CURVE SMOOTH",
"455 367 OFFCURVE",
"449 363 OFFCURVE",
"444 354 CURVE SMOOTH",
"424 322 OFFCURVE",
"401 308 OFFCURVE",
"366 308 CURVE SMOOTH",
"301 308 OFFCURVE",
"285 367 OFFCURVE",
"194 367 CURVE SMOOTH",
"141 367 OFFCURVE",
"109 349 OFFCURVE",
"78 298 CURVE SMOOTH",
"67 280 OFFCURVE",
"80 262 OFFCURVE",
"97 262 CURVE SMOOTH",
"107 262 OFFCURVE",
"112 266 OFFCURVE"
);
}
);
width = 560;
}
);
leftKerningGroup = plus;
rightKerningGroup = plus;
unicode = 007E;
},
{
color = 5;
glyphname = logicalnot;
lastChange = "2016-07-31 01:33:47 +0000";
layers = (
{
layerId = "D7F5B317-FDDE-425C-99B8-2570E6EC45B4";
paths = (
{
closed = 1;
nodes = (
"490 238 CURVE SMOOTH",
"490 354 LINE SMOOTH",
"490 369 OFFCURVE",
"481 378 OFFCURVE",
"466 378 CURVE SMOOTH",
"96 378 LINE SMOOTH",
"82 378 OFFCURVE",
"73 368 OFFCURVE",
"73 354 CURVE SMOOTH",
"73 340 OFFCURVE",
"82 330 OFFCURVE",
"96 330 CURVE SMOOTH",
"442 330 LINE",
"442 238 LINE SMOOTH",
"442 224 OFFCURVE",
"452 215 OFFCURVE",
"466 215 CURVE SMOOTH",
"481 215 OFFCURVE",
"490 224 OFFCURVE"
);
}
);
width = 560;
}
);
leftKerningGroup = plus;
rightKerningGroup = plus;
unicode = 00AC;
},
{
color = 5;
glyphname = micro;
lastChange = "2016-07-31 01:37:05 +0000";
layers = (
{
layerId = "D7F5B317-FDDE-425C-99B8-2570E6EC45B4";
paths = (
{
closed = 1;
nodes = (
"516 118 CURVE SMOOTH",
"516 446 LINE SMOOTH",
"516 463 OFFCURVE",
"507 472 OFFCURVE",
"490 472 CURVE SMOOTH",
"473 472 OFFCURVE",
"464 463 OFFCURVE",
"464 446 CURVE SMOOTH",
"464 152 LINE SMOOTH",
"464 84 OFFCURVE",
"396 52 OFFCURVE",
"292 52 CURVE SMOOTH",
"264 52 LINE SMOOTH",
"169 52 OFFCURVE",
"136 85 OFFCURVE",
"136 180 CURVE SMOOTH",
"136 446 LINE SMOOTH",
"136 463 OFFCURVE",
"127 472 OFFCURVE",
"110 472 CURVE SMOOTH",
"93 472 OFFCURVE",
"84 463 OFFCURVE",
"84 446 CURVE SMOOTH",
"84 -66 LINE SMOOTH",
"84 -83 OFFCURVE",
"93 -92 OFFCURVE",
"110 -92 CURVE SMOOTH",
"127 -92 OFFCURVE",
"136 -82 OFFCURVE",
"136 -63 CURVE SMOOTH",
"136 64 LINE",
"160 20 OFFCURVE",
"202 0 OFFCURVE",
"264 0 CURVE SMOOTH",
"292 0 LINE SMOOTH",
"377 0 OFFCURVE",
"438 25 OFFCURVE",
"472 70 CURVE",
"486 29 OFFCURVE",
"516 2 OFFCURVE",
"566 0 CURVE SMOOTH",
"584 -1 OFFCURVE",
"593 9 OFFCURVE",
"593 26 CURVE SMOOTH",
"593 43 OFFCURVE",
"585 51 OFFCURVE",
"567 52 CURVE SMOOTH",
"527 55 OFFCURVE",
"516 72 OFFCURVE"
);
}
);
width = 626;
}
);
leftKerningGroup = u;
leftMetricsKey = u;
rightKerningGroup = mcro;
rightMetricsKey = l;
unicode = 00B5;
},
{
color = 5;
glyphname = percent;
lastChange = "2016-07-31 01:33:47 +0000";
layers = (
{
components = (
{
name = fraction;
transform = "{1, 0, 0, 1, 280, 0}";
}
);
layerId = "D7F5B317-FDDE-425C-99B8-2570E6EC45B4";
paths = (
{
closed = 1;
nodes = (
"199 310 LINE SMOOTH",
"287 310 OFFCURVE",
"328 351 OFFCURVE",
"328 440 CURVE SMOOTH",
"328 514 LINE SMOOTH",
"328 603 OFFCURVE",
"287 644 OFFCURVE",
"199 644 CURVE SMOOTH",
"183 644 LINE SMOOTH",
"94 644 OFFCURVE",
"53 604 OFFCURVE",
"53 514 CURVE SMOOTH",
"53 439 LINE SMOOTH",
"53 351 OFFCURVE",
"94 310 OFFCURVE",
"183 310 CURVE SMOOTH"
);
},
{
closed = 1;
nodes = (
"104 439 CURVE SMOOTH",
"104 514 LINE SMOOTH",
"104 576 OFFCURVE",
"123 593 OFFCURVE",
"183 593 CURVE SMOOTH",
"199 593 LINE SMOOTH",
"258 593 OFFCURVE",
"277 574 OFFCURVE",
"277 514 CURVE SMOOTH",
"277 440 LINE SMOOTH",
"277 380 OFFCURVE",
"258 361 OFFCURVE",
"199 361 CURVE SMOOTH",
"183 361 LINE SMOOTH",
"123 361 OFFCURVE",
"104 380 OFFCURVE"
);
},
{
closed = 1;
nodes = (
"572 0 LINE SMOOTH",
"660 0 OFFCURVE",
"701 41 OFFCURVE",
"701 130 CURVE SMOOTH",
"701 204 LINE SMOOTH",
"701 293 OFFCURVE",
"660 334 OFFCURVE",
"572 334 CURVE SMOOTH",
"556 334 LINE SMOOTH",
"468 334 OFFCURVE",
"427 294 OFFCURVE",
"427 204 CURVE SMOOTH",
"427 129 LINE SMOOTH",
"427 41 OFFCURVE",
"468 0 OFFCURVE",
"556 0 CURVE SMOOTH"
);
},
{
closed = 1;
nodes = (
"477 129 CURVE SMOOTH",
"477 204 LINE SMOOTH",
"477 266 OFFCURVE",
"496 283 OFFCURVE",
"556 283 CURVE SMOOTH",
"572 283 LINE SMOOTH",
"632 283 OFFCURVE",
"651 264 OFFCURVE",
"651 204 CURVE SMOOTH",
"651 130 LINE SMOOTH",
"651 70 OFFCURVE",
"632 51 OFFCURVE",
"572 51 CURVE SMOOTH",
"556 51 LINE SMOOTH",
"496 51 OFFCURVE",
"477 70 OFFCURVE"
);
}
);
width = 755;
}
);
leftKerningGroup = percent;
rightKerningGroup = percent;
unicode = 0025;
},
{
color = 5;
glyphname = perthousand;
lastChange = "2016-07-31 01:33:47 +0000";
layers = (
{
components = (
{
name = fraction;
transform = "{1, 0, 0, 1, 280, 0}";
}
);
layerId = "D7F5B317-FDDE-425C-99B8-2570E6EC45B4";
paths = (
{
closed = 1;
nodes = (
"199 310 LINE SMOOTH",
"287 310 OFFCURVE",
"328 351 OFFCURVE",
"328 440 CURVE SMOOTH",
"328 514 LINE SMOOTH",
"328 603 OFFCURVE",
"287 644 OFFCURVE",
"199 644 CURVE SMOOTH",
"183 644 LINE SMOOTH",
"94 644 OFFCURVE",
"53 604 OFFCURVE",
"53 514 CURVE SMOOTH",
"53 439 LINE SMOOTH",
"53 351 OFFCURVE",
"94 310 OFFCURVE",
"183 310 CURVE SMOOTH"
);
},
{
closed = 1;
nodes = (
"104 439 CURVE SMOOTH",
"104 514 LINE SMOOTH",
"104 576 OFFCURVE",
"123 593 OFFCURVE",
"183 593 CURVE SMOOTH",
"199 593 LINE SMOOTH",
"258 593 OFFCURVE",
"277 574 OFFCURVE",
"277 514 CURVE SMOOTH",
"277 440 LINE SMOOTH",
"277 380 OFFCURVE",
"258 361 OFFCURVE",
"199 361 CURVE SMOOTH",
"183 361 LINE SMOOTH",
"123 361 OFFCURVE",
"104 380 OFFCURVE"
);
},
{
closed = 1;
nodes = (
"572 0 LINE SMOOTH",
"660 0 OFFCURVE",
"701 41 OFFCURVE",
"701 130 CURVE SMOOTH",
"701 204 LINE SMOOTH",
"701 293 OFFCURVE",
"660 334 OFFCURVE",
"572 334 CURVE SMOOTH",
"556 334 LINE SMOOTH",
"468 334 OFFCURVE",
"427 294 OFFCURVE",
"427 204 CURVE SMOOTH",
"427 129 LINE SMOOTH",
"427 41 OFFCURVE",
"468 0 OFFCURVE",
"556 0 CURVE SMOOTH"
);
},
{
closed = 1;
nodes = (
"477 129 CURVE SMOOTH",
"477 204 LINE SMOOTH",
"477 266 OFFCURVE",
"496 283 OFFCURVE",
"556 283 CURVE SMOOTH",
"572 283 LINE SMOOTH",
"632 283 OFFCURVE",
"651 264 OFFCURVE",
"651 204 CURVE SMOOTH",
"651 130 LINE SMOOTH",
"651 70 OFFCURVE",
"632 51 OFFCURVE",
"572 51 CURVE SMOOTH",
"556 51 LINE SMOOTH",
"496 51 OFFCURVE",
"477 70 OFFCURVE"
);
},
{
closed = 1;
nodes = (
"899 0 LINE SMOOTH",
"987 0 OFFCURVE",
"1028 41 OFFCURVE",
"1028 130 CURVE SMOOTH",
"1028 204 LINE SMOOTH",
"1028 293 OFFCURVE",
"987 334 OFFCURVE",
"899 334 CURVE SMOOTH",
"883 334 LINE SMOOTH",
"794 334 OFFCURVE",
"753 294 OFFCURVE",
"753 204 CURVE SMOOTH",
"753 129 LINE SMOOTH",
"753 41 OFFCURVE",
"794 0 OFFCURVE",
"883 0 CURVE SMOOTH"
);
},
{
closed = 1;
nodes = (
"804 129 CURVE SMOOTH",
"804 204 LINE SMOOTH",
"804 266 OFFCURVE",
"823 283 OFFCURVE",
"883 283 CURVE SMOOTH",
"899 283 LINE SMOOTH",
"958 283 OFFCURVE",
"977 264 OFFCURVE",
"977 204 CURVE SMOOTH",
"977 130 LINE SMOOTH",
"977 70 OFFCURVE",
"958 51 OFFCURVE",
"899 51 CURVE SMOOTH",
"883 51 LINE SMOOTH",
"823 51 OFFCURVE",
"804 70 OFFCURVE"
);
}
);
width = 1081;
}
);
leftKerningGroup = percent;
leftMetricsKey = percent;
rightKerningGroup = percent;
rightMetricsKey = percent;
unicode = 2030;
},
{
color = 4;
glyphname = at;
lastChange = "2016-07-31 01:33:47 +0000";
layers = (
{
layerId = "D7F5B317-FDDE-425C-99B8-2570E6EC45B4";
paths = (
{
closed = 1;
nodes = (
"623 37 CURVE SMOOTH",
"628 42 OFFCURVE",
"632 48 OFFCURVE",
"632 56 CURVE SMOOTH",
"632 70 OFFCURVE",
"621 80 OFFCURVE",
"607 80 CURVE SMOOTH",
"601 80 OFFCURVE",
"596 78 OFFCURVE",
"591 75 CURVE SMOOTH",
"566 53 OFFCURVE",
"544 45 OFFCURVE",
"504 45 CURVE SMOOTH",
"229 45 LINE SMOOTH",
"151 44 OFFCURVE",
"129 68 OFFCURVE",
"129 150 CURVE SMOOTH",
"129 403 LINE SMOOTH",
"129 485 OFFCURVE",
"151 509 OFFCURVE",
"229 508 CURVE SMOOTH",
"489 508 LINE SMOOTH",
"568 508 OFFCURVE",
"591 484 OFFCURVE",
"591 402 CURVE SMOOTH",
"591 206 LINE SMOOTH",
"591 175 OFFCURVE",
"585 169 OFFCURVE",
"544 169 CURVE SMOOTH",
"504 169 OFFCURVE",
"499 174 OFFCURVE",
"499 206 CURVE SMOOTH",
"499 413 LINE SMOOTH",
"499 428 OFFCURVE",
"489 437 OFFCURVE",
"474 437 CURVE SMOOTH",
"463 437 OFFCURVE",
"454 430 OFFCURVE",
"452 400 CURVE",
"432 432 OFFCURVE",
"406 437 OFFCURVE",
"373 437 CURVE SMOOTH",
"332 437 LINE SMOOTH",
"246 437 OFFCURVE",
"207 399 OFFCURVE",
"207 309 CURVE SMOOTH",
"207 243 LINE SMOOTH",
"207 157 OFFCURVE",
"246 118 OFFCURVE",
"333 118 CURVE SMOOTH",
"340 118 LINE SMOOTH",
"394 118 OFFCURVE",
"435 130 OFFCURVE",
"462 174 CURVE",
"476 131 OFFCURVE",
"502 120 OFFCURVE",
"544 120 CURVE SMOOTH",
"611 120 OFFCURVE",
"640 145 OFFCURVE",
"640 206 CURVE SMOOTH",
"640 402 LINE SMOOTH",
"640 512 OFFCURVE",
"596 556 OFFCURVE",
"489 556 CURVE SMOOTH",
"229 556 LINE SMOOTH",
"124 557 OFFCURVE",
"80 512 OFFCURVE",
"80 403 CURVE SMOOTH",
"80 150 LINE SMOOTH",
"80 41 OFFCURVE",
"124 -4 OFFCURVE",
"229 -3 CURVE SMOOTH",
"504 -3 LINE SMOOTH",
"553 -3 OFFCURVE",
"589 9 OFFCURVE"
);
},
{
closed = 1;
nodes = (
"256 243 CURVE SMOOTH",
"256 309 LINE SMOOTH",
"256 372 OFFCURVE",
"273 389 OFFCURVE",
"332 389 CURVE SMOOTH",
"373 389 LINE SMOOTH",
"434 389 OFFCURVE",
"450 372 OFFCURVE",
"450 308 CURVE SMOOTH",
"450 243 LINE SMOOTH",
"450 192 OFFCURVE",
"416 167 OFFCURVE",
"340 167 CURVE SMOOTH",
"333 167 LINE SMOOTH",
"274 167 OFFCURVE",
"256 184 OFFCURVE"
);
}
);
width = 720;
}
);
leftKerningGroup = at;
leftMetricsKey = o;
rightKerningGroup = at;
rightMetricsKey = o;
unicode = 0040;
},
{
color = 4;
glyphname = ampersand;
lastChange = "2016-07-31 01:33:47 +0000";
layers = (
{
layerId = "D7F5B317-FDDE-425C-99B8-2570E6EC45B4";
paths = (
{
closed = 1;
nodes = (
"584 41 CURVE SMOOTH",
"596 54 OFFCURVE",
"595 67 OFFCURVE",
"582 78 CURVE SMOOTH",
"250 371 LINE SMOOTH",
"194 419 OFFCURVE",
"182 442 OFFCURVE",
"182 488 CURVE SMOOTH",
"182 562 OFFCURVE",
"206 586 OFFCURVE",
"279 586 CURVE SMOOTH",
"304 586 LINE SMOOTH",
"368 586 OFFCURVE",
"394 568 OFFCURVE",
"399 515 CURVE SMOOTH",
"402 498 OFFCURVE",
"410 489 OFFCURVE",
"427 489 CURVE SMOOTH",
"443 489 OFFCURVE",
"453 499 OFFCURVE",
"452 516 CURVE SMOOTH",
"444 600 OFFCURVE",
"397 638 OFFCURVE",
"304 638 CURVE SMOOTH",
"279 638 LINE SMOOTH",
"177 638 OFFCURVE",
"130 591 OFFCURVE",
"130 488 CURVE SMOOTH",
"130 426 OFFCURVE",
"149 390 OFFCURVE",
"216 331 CURVE SMOOTH",
"547 39 LINE SMOOTH",
"561 28 OFFCURVE",
"573 29 OFFCURVE"
);
},
{
closed = 1;
nodes = (
"299 -5 LINE SMOOTH",
"443 -5 OFFCURVE",
"506 58 OFFCURVE",
"506 202 CURVE SMOOTH",
"506 253 LINE SMOOTH",
"506 270 OFFCURVE",
"497 279 OFFCURVE",
"480 279 CURVE SMOOTH",
"463 279 OFFCURVE",
"454 270 OFFCURVE",
"454 253 CURVE SMOOTH",
"454 202 LINE SMOOTH",
"454 88 OFFCURVE",
"413 47 OFFCURVE",
"299 47 CURVE SMOOTH",
"267 47 LINE SMOOTH",
"152 47 OFFCURVE",
"112 87 OFFCURVE",
"112 202 CURVE SMOOTH",
"112 287 OFFCURVE",
"135 329 OFFCURVE",
"192 348 CURVE SMOOTH",
"207 353 OFFCURVE",
"216 361 OFFCURVE",
"212 379 CURVE SMOOTH",
"209 396 OFFCURVE",
"196 404 OFFCURVE",
"180 398 CURVE SMOOTH",
"97 374 OFFCURVE",
"60 311 OFFCURVE",
"60 202 CURVE SMOOTH",
"60 57 OFFCURVE",
"122 -5 OFFCURVE",
"267 -5 CURVE SMOOTH"
);
}
);
width = 612;
}
);
leftKerningGroup = ampersand;
rightKerningGroup = ampersand;
unicode = 0026;
},
{
color = 5;
glyphname = paragraph;
lastChange = "2016-07-31 01:37:05 +0000";
layers = (
{
layerId = "D7F5B317-FDDE-425C-99B8-2570E6EC45B4";
paths = (
{
closed = 1;
nodes = (
"311 -163 CURVE SMOOTH",
"311 599 LINE",
"392 599 LINE",
"392 -163 LINE SMOOTH",
"392 -177 OFFCURVE",
"403 -187 OFFCURVE",
"417 -187 CURVE SMOOTH",
"430 -187 OFFCURVE",
"441 -177 OFFCURVE",
"441 -163 CURVE SMOOTH",
"441 623 LINE SMOOTH",
"441 639 OFFCURVE",
"433 647 OFFCURVE",
"417 647 CURVE SMOOTH",
"201 647 LINE SMOOTH",
"91 647 OFFCURVE",
"34 591 OFFCURVE",
"34 481 CURVE SMOOTH",
"34 452 LINE SMOOTH",
"34 343 OFFCURVE",
"91 287 OFFCURVE",
"201 287 CURVE SMOOTH",
"262 287 LINE",
"262 -163 LINE SMOOTH",
"262 -177 OFFCURVE",
"273 -187 OFFCURVE",
"287 -187 CURVE SMOOTH",
"300 -187 OFFCURVE",
"311 -177 OFFCURVE"
);
}
);
width = 534;
}
);
leftKerningGroup = paragraph;
leftMetricsKey = "=|P";
rightKerningGroup = H;
rightMetricsKey = H;
unicode = 00B6;
},
{
color = 5;
glyphname = section;
lastChange = "2016-07-31 01:33:47 +0000";
layers = (
{
layerId = "D7F5B317-FDDE-425C-99B8-2570E6EC45B4";
paths = (
{
closed = 1;
nodes = (
"455 282 CURVE SMOOTH",
"455 356 OFFCURVE",
"422 397 OFFCURVE",
"340 426 CURVE SMOOTH",
"241 461 LINE SMOOTH",
"184 481 OFFCURVE",
"165 503 OFFCURVE",
"165 546 CURVE SMOOTH",
"165 582 OFFCURVE",
"182 597 OFFCURVE",
"232 597 CURVE SMOOTH",
"330 597 LINE SMOOTH",
"381 597 OFFCURVE",
"396 581 OFFCURVE",
"396 530 CURVE SMOOTH",
"396 514 OFFCURVE",
"406 505 OFFCURVE",
"421 505 CURVE SMOOTH",
"437 505 OFFCURVE",
"447 514 OFFCURVE",
"447 530 CURVE SMOOTH",
"447 609 OFFCURVE",
"409 647 OFFCURVE",
"330 647 CURVE SMOOTH",
"232 647 LINE SMOOTH",
"155 647 OFFCURVE",
"114 613 OFFCURVE",
"114 546 CURVE SMOOTH",
"114 480 OFFCURVE",
"148 439 OFFCURVE",
"224 413 CURVE SMOOTH",
"323 378 LINE SMOOTH",
"385 356 OFFCURVE",
"404 333 OFFCURVE",
"404 282 CURVE SMOOTH",
"404 218 OFFCURVE",
"382 192 OFFCURVE",
"326 192 CURVE SMOOTH",
"312 192 OFFCURVE",
"301 181 OFFCURVE",
"301 167 CURVE SMOOTH",
"301 163 OFFCURVE",
"312 160 OFFCURVE",
"326 158 CURVE SMOOTH",
"411 158 OFFCURVE",
"455 201 OFFCURVE"
);
},
{
closed = 1;
nodes = (
"331 -76 LINE SMOOTH",
"423 -76 OFFCURVE",
"465 -34 OFFCURVE",
"465 57 CURVE SMOOTH",
"465 128 OFFCURVE",
"436 158 OFFCURVE",
"339 189 CURVE SMOOTH",
"215 229 LINE SMOOTH",
"147 251 OFFCURVE",
"131 271 OFFCURVE",
"131 328 CURVE SMOOTH",
"131 394 OFFCURVE",
"152 416 OFFCURVE",
"217 416 CURVE SMOOTH",
"232 416 OFFCURVE",
"243 427 OFFCURVE",
"243 441 CURVE SMOOTH",
"243 444 OFFCURVE",
"232 446 OFFCURVE",
"217 450 CURVE SMOOTH",
"124 450 OFFCURVE",
"80 411 OFFCURVE",
"80 328 CURVE SMOOTH",
"80 247 OFFCURVE",
"111 209 OFFCURVE",
"200 181 CURVE SMOOTH",
"324 141 LINE SMOOTH",
"402 115 OFFCURVE",
"414 102 OFFCURVE",
"414 57 CURVE SMOOTH",
"414 -6 OFFCURVE",
"394 -26 OFFCURVE",
"331 -26 CURVE SMOOTH",
"217 -26 LINE SMOOTH",
"155 -26 OFFCURVE",
"135 -6 OFFCURVE",
"135 57 CURVE SMOOTH",
"135 73 OFFCURVE",
"125 82 OFFCURVE",
"109 82 CURVE SMOOTH",
"94 82 OFFCURVE",
"84 73 OFFCURVE",
"84 57 CURVE SMOOTH",
"84 -34 OFFCURVE",
"126 -76 OFFCURVE",
"217 -76 CURVE SMOOTH"
);
}
);
width = 545;
}
);
leftKerningGroup = section;
leftMetricsKey = S;
rightKerningGroup = secton;
rightMetricsKey = S;
unicode = 00A7;
},
{
color = 4;
glyphname = copyright;
lastChange = "2016-07-31 01:33:47 +0000";
layers = (
{
layerId = "D7F5B317-FDDE-425C-99B8-2570E6EC45B4";
paths = (
{
closed = 1;
nodes = (
"717 321 CURVE SMOOTH",
"717 507 OFFCURVE",
"584 640 OFFCURVE",
"398 640 CURVE SMOOTH",
"213 640 OFFCURVE",
"80 507 OFFCURVE",
"80 321 CURVE SMOOTH",
"80 136 OFFCURVE",
"213 2 OFFCURVE",
"398 2 CURVE SMOOTH",
"584 2 OFFCURVE",
"717 136 OFFCURVE"
);
},
{
closed = 1;
nodes = (
"129 321 CURVE SMOOTH",
"129 480 OFFCURVE",
"240 592 OFFCURVE",
"398 592 CURVE SMOOTH",
"557 592 OFFCURVE",
"668 480 OFFCURVE",
"668 321 CURVE SMOOTH",
"668 163 OFFCURVE",
"557 50 OFFCURVE",
"398 50 CURVE SMOOTH",
"240 50 OFFCURVE",
"129 163 OFFCURVE"
);
},
{
closed = 1;
nodes = (
"426 143 LINE SMOOTH",
"504 143 OFFCURVE",
"543 171 OFFCURVE",
"547 232 CURVE SMOOTH",
"549 247 OFFCURVE",
"538 257 OFFCURVE",
"523 257 CURVE SMOOTH",
"508 257 OFFCURVE",
"501 248 OFFCURVE",
"498 234 CURVE SMOOTH",
"495 203 OFFCURVE",
"477 192 OFFCURVE",
"426 192 CURVE SMOOTH",
"380 192 LINE SMOOTH",
"314 192 OFFCURVE",
"293 213 OFFCURVE",
"293 278 CURVE SMOOTH",
"293 361 LINE SMOOTH",
"293 429 OFFCURVE",
"314 449 OFFCURVE",
"380 449 CURVE SMOOTH",
"426 449 LINE SMOOTH",
"477 449 OFFCURVE",
"495 438 OFFCURVE",
"498 406 CURVE SMOOTH",
"501 393 OFFCURVE",
"508 383 OFFCURVE",
"523 383 CURVE SMOOTH",
"539 383 OFFCURVE",
"548 394 OFFCURVE",
"547 408 CURVE SMOOTH",
"544 470 OFFCURVE",
"504 498 OFFCURVE",
"426 498 CURVE SMOOTH",
"380 498 LINE SMOOTH",
"287 498 OFFCURVE",
"244 456 OFFCURVE",
"244 361 CURVE SMOOTH",
"244 278 LINE SMOOTH",
"244 186 OFFCURVE",
"287 143 OFFCURVE",
"380 143 CURVE SMOOTH"
);
}
);
width = 797;
}
);
leftKerningGroup = O;
leftMetricsKey = O;
rightKerningGroup = O;
rightMetricsKey = O;
unicode = 00A9;
},
{
color = 4;
glyphname = registered;
lastChange = "2016-07-31 01:33:47 +0000";
layers = (
{
layerId = "D7F5B317-FDDE-425C-99B8-2570E6EC45B4";
paths = (
{
closed = 1;
nodes = (
"717 320 CURVE SMOOTH",
"717 506 OFFCURVE",
"584 638 OFFCURVE",
"398 638 CURVE SMOOTH",
"213 638 OFFCURVE",
"80 506 OFFCURVE",
"80 320 CURVE SMOOTH",
"80 134 OFFCURVE",
"213 2 OFFCURVE",
"398 2 CURVE SMOOTH",
"584 2 OFFCURVE",
"717 134 OFFCURVE"
);
},
{
closed = 1;
nodes = (
"129 320 CURVE SMOOTH",
"129 478 OFFCURVE",
"240 590 OFFCURVE",
"398 590 CURVE SMOOTH",
"557 590 OFFCURVE",
"668 478 OFFCURVE",
"668 320 CURVE SMOOTH",
"668 162 OFFCURVE",
"557 50 OFFCURVE",
"398 50 CURVE SMOOTH",
"240 50 OFFCURVE",
"129 162 OFFCURVE"
);
},
{
closed = 1;
nodes = (
"333 179 CURVE SMOOTH",
"333 284 LINE",
"410 284 LINE",
"472 167 LINE SMOOTH",
"480 153 OFFCURVE",
"491 150 OFFCURVE",
"505 157 CURVE SMOOTH",
"519 164 OFFCURVE",
"523 175 OFFCURVE",
"515 189 CURVE SMOOTH",
"461 290 LINE",
"497 303 OFFCURVE",
"518 335 OFFCURVE",
"518 383 CURVE SMOOTH",
"518 398 LINE SMOOTH",
"518 461 OFFCURVE",
"482 496 OFFCURVE",
"419 496 CURVE SMOOTH",
"309 496 LINE SMOOTH",
"293 496 OFFCURVE",
"285 488 OFFCURVE",
"285 472 CURVE SMOOTH",
"285 179 LINE SMOOTH",
"285 163 OFFCURVE",
"293 155 OFFCURVE",
"309 155 CURVE SMOOTH",
"325 155 OFFCURVE",
"333 163 OFFCURVE"
);
},
{
closed = 1;
nodes = (
"333 448 LINE",
"419 448 LINE SMOOTH",
"455 448 OFFCURVE",
"469 434 OFFCURVE",
"469 398 CURVE SMOOTH",
"469 383 LINE SMOOTH",
"469 346 OFFCURVE",
"455 332 OFFCURVE",
"419 332 CURVE SMOOTH",
"333 332 LINE"
);
}
);
width = 797;
}
);
leftKerningGroup = O;
leftMetricsKey = O;
rightKerningGroup = O;
rightMetricsKey = O;
unicode = 00AE;
},
{
color = 4;
glyphname = trademark;
lastChange = "2016-07-31 01:33:47 +0000";
layers = (
{
layerId = "D7F5B317-FDDE-425C-99B8-2570E6EC45B4";
paths = (
{
closed = 1;
nodes = (
"422 333 CURVE SMOOTH",
"422 539 LINE",
"508 409 LINE SMOOTH",
"513 401 OFFCURVE",
"520 398 OFFCURVE",
"529 398 CURVE SMOOTH",
"538 398 OFFCURVE",
"545 401 OFFCURVE",
"550 409 CURVE SMOOTH",
"635 538 LINE",
"635 333 LINE SMOOTH",
"635 317 OFFCURVE",
"643 309 OFFCURVE",
"658 309 CURVE SMOOTH",
"674 309 OFFCURVE",
"682 317 OFFCURVE",
"682 333 CURVE SMOOTH",
"682 616 LINE SMOOTH",
"682 631 OFFCURVE",
"674 639 OFFCURVE",
"657 639 CURVE SMOOTH",
"648 639 OFFCURVE",
"642 636 OFFCURVE",
"637 628 CURVE SMOOTH",
"529 463 LINE",
"419 628 LINE SMOOTH",
"415 636 OFFCURVE",
"408 639 OFFCURVE",
"399 639 CURVE SMOOTH",
"383 639 OFFCURVE",
"375 631 OFFCURVE",
"375 616 CURVE SMOOTH",
"375 333 LINE SMOOTH",
"375 317 OFFCURVE",
"383 309 OFFCURVE",
"398 309 CURVE SMOOTH",
"414 309 OFFCURVE",
"422 317 OFFCURVE"
);
},
{
closed = 1;
nodes = (
"207 333 CURVE SMOOTH",
"207 592 LINE",
"294 592 LINE SMOOTH",
"309 592 OFFCURVE",
"317 600 OFFCURVE",
"317 616 CURVE SMOOTH",
"317 631 OFFCURVE",
"309 639 OFFCURVE",
"294 639 CURVE SMOOTH",
"74 639 LINE SMOOTH",
"58 639 OFFCURVE",
"50 631 OFFCURVE",
"50 616 CURVE SMOOTH",
"50 600 OFFCURVE",
"58 592 OFFCURVE",
"74 592 CURVE SMOOTH",
"160 592 LINE",
"160 333 LINE SMOOTH",
"160 317 OFFCURVE",
"168 309 OFFCURVE",
"184 309 CURVE SMOOTH",
"199 309 OFFCURVE",
"207 317 OFFCURVE"
);
}
);
width = 732;
}
);
leftKerningGroup = ordfeminine;
rightKerningGroup = ordfemnne;
unicode = 2122;
},
{
color = 5;
glyphname = degree;
lastChange = "2016-07-31 01:33:47 +0000";
layers = (
{
layerId = "D7F5B317-FDDE-425C-99B8-2570E6EC45B4";
paths = (
{
closed = 1;
nodes = (
"151 444 LINE SMOOTH",
"201 444 OFFCURVE",
"228 472 OFFCURVE",
"228 522 CURVE SMOOTH",
"228 594 LINE SMOOTH",
"228 644 OFFCURVE",
"201 672 OFFCURVE",
"151 672 CURVE SMOOTH",
"128 672 LINE SMOOTH",
"78 672 OFFCURVE",
"50 644 OFFCURVE",
"50 594 CURVE SMOOTH",
"50 522 LINE SMOOTH",
"50 472 OFFCURVE",
"78 444 OFFCURVE",
"128 444 CURVE SMOOTH"
);
},
{
closed = 1;
nodes = (
"95 522 CURVE SMOOTH",
"95 594 LINE SMOOTH",
"95 618 OFFCURVE",
"104 626 OFFCURVE",
"128 626 CURVE SMOOTH",
"151 626 LINE SMOOTH",
"175 626 OFFCURVE",
"183 618 OFFCURVE",
"183 594 CURVE SMOOTH",
"183 522 LINE SMOOTH",
"183 498 OFFCURVE",
"175 490 OFFCURVE",
"151 490 CURVE SMOOTH",
"128 490 LINE SMOOTH",
"104 490 OFFCURVE",
"95 498 OFFCURVE"
);
}
);
width = 278;
}
);
leftKerningGroup = ordfeminine;
rightKerningGroup = ordfemnne;
unicode = 00B0;
},
{
color = 5;
glyphname = bar;
lastChange = "2016-07-31 01:33:47 +0000";
layers = (
{
layerId = "D7F5B317-FDDE-425C-99B8-2570E6EC45B4";
paths = (
{
closed = 1;
nodes = (
"132 -120 CURVE SMOOTH",
"132 673 LINE SMOOTH",
"132 690 OFFCURVE",
"123 699 OFFCURVE",
"106 699 CURVE SMOOTH",
"89 699 OFFCURVE",
"80 690 OFFCURVE",
"80 673 CURVE SMOOTH",
"80 -120 LINE SMOOTH",
"80 -137 OFFCURVE",
"89 -146 OFFCURVE",
"106 -146 CURVE SMOOTH",
"123 -146 OFFCURVE",
"132 -137 OFFCURVE"
);
}
);
width = 212;
}
);
leftKerningGroup = H;
rightKerningGroup = H;
unicode = 007C;
},
{
color = 5;
glyphname = brokenbar;
lastChange = "2016-07-31 01:33:47 +0000";
layers = (
{
layerId = "D7F5B317-FDDE-425C-99B8-2570E6EC45B4";
paths = (
{
closed = 1;
nodes = (
"132 -120 CURVE SMOOTH",
"132 167 LINE SMOOTH",
"132 182 OFFCURVE",
"121 193 OFFCURVE",
"106 193 CURVE SMOOTH",
"91 193 OFFCURVE",
"80 182 OFFCURVE",
"80 167 CURVE SMOOTH",
"80 -120 LINE SMOOTH",
"80 -135 OFFCURVE",
"91 -146 OFFCURVE",
"106 -146 CURVE SMOOTH",
"121 -146 OFFCURVE",
"132 -135 OFFCURVE"
);
},
{
closed = 1;
nodes = (
"132 389 CURVE SMOOTH",
"132 674 LINE SMOOTH",
"132 689 OFFCURVE",
"121 700 OFFCURVE",
"106 700 CURVE SMOOTH",
"91 700 OFFCURVE",
"80 689 OFFCURVE",
"80 674 CURVE SMOOTH",
"80 389 LINE SMOOTH",
"80 374 OFFCURVE",
"91 363 OFFCURVE",
"106 363 CURVE SMOOTH",
"121 363 OFFCURVE",
"132 374 OFFCURVE"
);
}
);
width = 212;
}
);
leftKerningGroup = H;
leftMetricsKey = bar;
rightKerningGroup = H;
rightMetricsKey = bar;
unicode = 00A6;
},
{
color = 5;
glyphname = dagger;
lastChange = "2016-07-31 01:33:47 +0000";
layers = (
{
layerId = "D7F5B317-FDDE-425C-99B8-2570E6EC45B4";
paths = (
{
closed = 1;
nodes = (
"210 -174 CURVE SMOOTH",
"210 420 LINE",
"292 420 LINE SMOOTH",
"309 420 OFFCURVE",
"318 429 OFFCURVE",
"318 446 CURVE SMOOTH",
"318 463 OFFCURVE",
"309 472 OFFCURVE",
"292 472 CURVE SMOOTH",
"210 472 LINE",
"210 667 LINE SMOOTH",
"210 685 OFFCURVE",
"201 693 OFFCURVE",
"184 693 CURVE SMOOTH",
"167 693 OFFCURVE",
"158 685 OFFCURVE",
"158 667 CURVE SMOOTH",
"158 472 LINE",
"76 472 LINE SMOOTH",
"59 472 OFFCURVE",
"50 463 OFFCURVE",
"50 446 CURVE SMOOTH",
"50 429 OFFCURVE",
"59 420 OFFCURVE",
"76 420 CURVE SMOOTH",
"158 420 LINE",
"158 -174 LINE SMOOTH",
"158 -191 OFFCURVE",
"167 -200 OFFCURVE",
"184 -200 CURVE SMOOTH",
"201 -200 OFFCURVE",
"210 -191 OFFCURVE"
);
}
);
width = 368;
}
);
leftKerningGroup = Hbar;
rightKerningGroup = Hbar;
unicode = 2020;
},
{
color = 5;
glyphname = daggerdbl;
lastChange = "2016-07-31 01:33:47 +0000";
layers = (
{
layerId = "D7F5B317-FDDE-425C-99B8-2570E6EC45B4";
paths = (
{
closed = 1;
nodes = (
"210 -174 CURVE SMOOTH",
"210 0 LINE",
"292 0 LINE SMOOTH",
"309 0 OFFCURVE",
"318 9 OFFCURVE",
"318 26 CURVE SMOOTH",
"318 43 OFFCURVE",
"309 52 OFFCURVE",
"292 52 CURVE SMOOTH",
"210 52 LINE",
"210 420 LINE",
"292 420 LINE SMOOTH",
"309 420 OFFCURVE",
"318 429 OFFCURVE",
"318 446 CURVE SMOOTH",
"318 463 OFFCURVE",
"309 472 OFFCURVE",
"292 472 CURVE SMOOTH",
"210 472 LINE",
"210 669 LINE SMOOTH",
"210 686 OFFCURVE",
"201 695 OFFCURVE",
"184 695 CURVE SMOOTH",
"167 695 OFFCURVE",
"158 686 OFFCURVE",
"158 669 CURVE SMOOTH",
"158 472 LINE",
"76 472 LINE SMOOTH",
"59 472 OFFCURVE",
"50 463 OFFCURVE",
"50 446 CURVE SMOOTH",
"50 429 OFFCURVE",
"59 420 OFFCURVE",
"76 420 CURVE SMOOTH",
"158 420 LINE",
"158 52 LINE",
"76 52 LINE SMOOTH",
"59 52 OFFCURVE",
"50 43 OFFCURVE",
"50 26 CURVE SMOOTH",
"50 9 OFFCURVE",
"59 0 OFFCURVE",
"76 0 CURVE SMOOTH",
"158 0 LINE",
"158 -174 LINE SMOOTH",
"158 -191 OFFCURVE",
"167 -200 OFFCURVE",
"184 -200 CURVE SMOOTH",
"201 -200 OFFCURVE",
"210 -191 OFFCURVE"
);
}
);
width = 368;
}
);
leftKerningGroup = Hbar;
rightKerningGroup = Hbar;
unicode = 2021;
},
{
color = 4;
glyphname = asciicircum;
lastChange = "2016-07-31 01:33:47 +0000";
layers = (
{
layerId = "D7F5B317-FDDE-425C-99B8-2570E6EC45B4";
paths = (
{
closed = 1;
nodes = (
"121 431 CURVE SMOOTH",
"193 617 LINE",
"265 431 LINE SMOOTH",
"268 422 OFFCURVE",
"277 415 OFFCURVE",
"288 415 CURVE SMOOTH",
"301 415 OFFCURVE",
"312 425 OFFCURVE",
"312 439 CURVE SMOOTH",
"312 442 OFFCURVE",
"311 446 OFFCURVE",
"310 448 CURVE SMOOTH",
"231 653 LINE SMOOTH",
"225 666 OFFCURVE",
"217 672 OFFCURVE",
"203 672 CURVE SMOOTH",
"182 672 LINE SMOOTH",
"168 672 OFFCURVE",
"160 666 OFFCURVE",
"154 653 CURVE SMOOTH",
"75 448 LINE SMOOTH",
"74 446 OFFCURVE",
"73 442 OFFCURVE",
"73 439 CURVE SMOOTH",
"73 425 OFFCURVE",
"84 415 OFFCURVE",
"98 415 CURVE SMOOTH",
"108 415 OFFCURVE",
"117 422 OFFCURVE"
);
}
);
width = 385;
}
);
leftKerningGroup = asterisk;
leftMetricsKey = period;
rightKerningGroup = astersk;
rightMetricsKey = period;
unicode = 005E;
},
{
color = 5;
glyphname = hookabovecomb;
lastChange = "2016-07-31 01:33:47 +0000";
layers = (
{
anchors = (
{
name = _top;
position = "{125, 472}";
},
{
name = top;
position = "{134, 642}";
}
);
layerId = "D7F5B317-FDDE-425C-99B8-2570E6EC45B4";
paths = (
{
closed = 1;
nodes = (
"141 528 OFFCURVE",
"148 535 OFFCURVE",
"148 550 CURVE SMOOTH",
"148 564 OFFCURVE",
"152 569 OFFCURVE",
"173 583 CURVE SMOOTH",
"191 593 OFFCURVE",
"219 611 OFFCURVE",
"219 650 CURVE SMOOTH",
"219 707 OFFCURVE",
"192 735 OFFCURVE",
"135 735 CURVE SMOOTH",
"78 735 OFFCURVE",
"50 707 OFFCURVE",
"50 650 CURVE SMOOTH",
"50 634 OFFCURVE",
"57 627 OFFCURVE",
"73 627 CURVE SMOOTH",
"88 627 OFFCURVE",
"95 634 OFFCURVE",
"95 650 CURVE SMOOTH",
"95 681 OFFCURVE",
"104 690 OFFCURVE",
"135 690 CURVE SMOOTH",
"166 690 OFFCURVE",
"174 681 OFFCURVE",
"174 650 CURVE SMOOTH",
"174 638 OFFCURVE",
"170 634 OFFCURVE",
"150 622 CURVE SMOOTH",
"132 611 OFFCURVE",
"102 593 OFFCURVE",
"102 550 CURVE SMOOTH",
"102 535 OFFCURVE",
"109 528 OFFCURVE",
"125 528 CURVE SMOOTH"
);
}
);
width = 269;
}
);
leftKerningGroup = hookabovecomb;
rightKerningGroup = hookabovecomb;
unicode = 0309;
},
{
color = 5;
glyphname = horncomb;
lastChange = "2016-07-31 01:33:47 +0000";
layers = (
{
anchors = (
{
name = _topright;
position = "{50, 472}";
},
{
name = topright;
position = "{50, 472}";
}
);
layerId = "D7F5B317-FDDE-425C-99B8-2570E6EC45B4";
paths = (
{
closed = 1;
nodes = (
"119 425 OFFCURVE",
"162 452 OFFCURVE",
"162 518 CURVE SMOOTH",
"162 538 LINE SMOOTH",
"162 555 OFFCURVE",
"154 564 OFFCURVE",
"137 564 CURVE SMOOTH",
"120 564 OFFCURVE",
"112 556 OFFCURVE",
"112 541 CURVE SMOOTH",
"112 518 LINE SMOOTH",
"112 483 OFFCURVE",
"97 472 OFFCURVE",
"50 472 CURVE",
"50 425 LINE"
);
}
);
width = 212;
}
);
leftKerningGroup = horncomb;
rightKerningGroup = horncomb;
unicode = 031B;
},
{
color = 5;
glyphname = ogonekcomb;
lastChange = "2016-07-31 01:33:47 +0000";
layers = (
{
anchors = (
{
name = _ogonek;
position = "{173, 0}";
}
);
layerId = "D7F5B317-FDDE-425C-99B8-2570E6EC45B4";
paths = (
{
closed = 1;
nodes = (
"170 -213 OFFCURVE",
"200 -201 OFFCURVE",
"224 -179 CURVE SMOOTH",
"230 -175 OFFCURVE",
"233 -169 OFFCURVE",
"233 -162 CURVE SMOOTH",
"233 -148 OFFCURVE",
"224 -137 OFFCURVE",
"208 -137 CURVE SMOOTH",
"202 -137 OFFCURVE",
"198 -138 OFFCURVE",
"193 -142 CURVE SMOOTH",
"177 -156 OFFCURVE",
"161 -164 OFFCURVE",
"142 -164 CURVE SMOOTH",
"117 -164 OFFCURVE",
"99 -150 OFFCURVE",
"99 -131 CURVE SMOOTH",
"99 -121 OFFCURVE",
"104 -111 OFFCURVE",
"113 -100 CURVE SMOOTH",
"192 5 LINE SMOOTH",
"196 10 OFFCURVE",
"197 15 OFFCURVE",
"197 21 CURVE SMOOTH",
"197 35 OFFCURVE",
"184 46 OFFCURVE",
"172 46 CURVE SMOOTH",
"164 46 OFFCURVE",
"158 42 OFFCURVE",
"152 36 CURVE SMOOTH",
"73 -70 LINE SMOOTH",
"58 -88 OFFCURVE",
"50 -110 OFFCURVE",
"50 -131 CURVE SMOOTH",
"50 -178 OFFCURVE",
"90 -213 OFFCURVE",
"142 -213 CURVE SMOOTH"
);
}
);
width = 283;
}
);
leftKerningGroup = ogonekcomb;
rightKerningGroup = ogonekcomb;
unicode = 0328;
},
{
color = 5;
glyphname = strokeshortcomb;
lastChange = "2016-07-31 01:33:47 +0000";
layers = (
{
anchors = (
{
name = _center;
position = "{204, 270}";
}
);
layerId = "D7F5B317-FDDE-425C-99B8-2570E6EC45B4";
paths = (
{
closed = 1;
nodes = (
"333 246 LINE SMOOTH",
"349 246 OFFCURVE",
"358 254 OFFCURVE",
"358 270 CURVE SMOOTH",
"358 286 OFFCURVE",
"349 294 OFFCURVE",
"333 294 CURVE SMOOTH",
"74 294 LINE SMOOTH",
"58 294 OFFCURVE",
"50 286 OFFCURVE",
"50 270 CURVE SMOOTH",
"50 254 OFFCURVE",
"58 246 OFFCURVE",
"74 246 CURVE SMOOTH"
);
}
);
width = 408;
}
);
leftKerningGroup = strokeshortcomb;
rightKerningGroup = strokeshortcomb;
unicode = 0335;
},
{
color = 5;
glyphname = strokelongcomb;
lastChange = "2016-07-31 01:33:47 +0000";
layers = (
{
anchors = (
{
name = _center;
position = "{356, 270}";
}
);
layerId = "D7F5B317-FDDE-425C-99B8-2570E6EC45B4";
paths = (
{
closed = 1;
nodes = (
"641 247 LINE SMOOTH",
"655 247 OFFCURVE",
"662 254 OFFCURVE",
"662 269 CURVE SMOOTH",
"662 283 OFFCURVE",
"655 290 OFFCURVE",
"641 290 CURVE SMOOTH",
"72 290 LINE SMOOTH",
"57 290 OFFCURVE",
"50 283 OFFCURVE",
"50 269 CURVE SMOOTH",
"50 254 OFFCURVE",
"57 247 OFFCURVE",
"72 247 CURVE SMOOTH"
);
}
);
width = 712;
}
);
leftKerningGroup = strokelongcomb;
rightKerningGroup = strokelongcomb;
unicode = 0336;
},
{
color = 5;
glyphname = slashshortcomb;
lastChange = "2016-07-31 01:33:47 +0000";
layers = (
{
anchors = (
{
name = _center;
position = "{188, 323}";
}
);
layerId = "D7F5B317-FDDE-425C-99B8-2570E6EC45B4";
paths = (
{
closed = 1;
nodes = (
"338 406 LINE SMOOTH",
"351 416 OFFCURVE",
"354 428 OFFCURVE",
"343 441 CURVE SMOOTH",
"333 454 OFFCURVE",
"321 456 OFFCURVE",
"308 446 CURVE SMOOTH",
"61 258 LINE SMOOTH",
"48 248 OFFCURVE",
"46 236 OFFCURVE",
"56 223 CURVE SMOOTH",
"67 210 OFFCURVE",
"79 208 OFFCURVE",
"92 218 CURVE SMOOTH"
);
}
);
width = 400;
}
);
leftKerningGroup = slashshortcomb;
rightKerningGroup = slashshortcomb;
unicode = 0337;
},
{
color = 5;
glyphname = slashlongcomb;
lastChange = "2016-07-31 01:33:47 +0000";
layers = (
{
anchors = (
{
name = _center;
position = "{285, 286}";
}
);
layerId = "D7F5B317-FDDE-425C-99B8-2570E6EC45B4";
paths = (
{
closed = 1;
nodes = (
"78 -85 OFFCURVE",
"90 -82 OFFCURVE",
"98 -68 CURVE SMOOTH",
"517 618 LINE SMOOTH",
"525 632 OFFCURVE",
"523 644 OFFCURVE",
"508 653 CURVE SMOOTH",
"494 662 OFFCURVE",
"482 659 OFFCURVE",
"473 645 CURVE SMOOTH",
"55 -41 LINE SMOOTH",
"46 -55 OFFCURVE",
"49 -67 OFFCURVE",
"63 -76 CURVE SMOOTH"
);
}
);
width = 572;
}
);
leftKerningGroup = slashlongcomb;
rightKerningGroup = slashlongcomb;
unicode = 0338;
},
